<?xml version="1.0" encoding="utf-8"?>
<!-- Generator: Adobe Illustrator 16.0.0, SVG Export Plug-In . SVG Version: 6.00 Build 0)  -->
<!DOCTYPE svg PUBLIC "-//W3C//DTD SVG 1.1//EN" "http://www.w3.org/Graphics/SVG/1.1/DTD/svg11.dtd">
<svg version="1.1" id="Layer_1" xmlns="http://www.w3.org/2000/svg" xmlns:xlink="http://www.w3.org/1999/xlink" x="0px" y="0px"
	 width="191.67px" height="137.67px" viewBox="0 0 191.67 137.67" enable-background="new 0 0 191.67 137.67" xml:space="preserve">
<g>
	<g>
		
			<path fill-rule="evenodd" clip-rule="evenodd" fill="none" stroke="#000000" stroke-width="4" stroke-linecap="round" stroke-linejoin="round" stroke-miterlimit="3" stroke-opacity="0.2471" d="
			M20.35,128.13c8.91-5.71,16.54-4.42,22.91,3.87c1.54,2.51,4.95,2.16,10.24-1.04c5.29-3.25,10.4-3.56,15.33-0.93
			c6.66,1.48,13.36-1.97,20.13-10.35c8.39-8.69,21.41-20.05,39.04-34.09c17.64-13.99,28.14-26.27,31.5-36.84
			c3.36-10.56,7.34-23.02,11.94-37.37l5.06-2.54"/>
	</g>
	<g>
		
			<path fill-rule="evenodd" clip-rule="evenodd" fill="none" stroke="#000000" stroke-width="4" stroke-linecap="round" stroke-linejoin="round" stroke-miterlimit="3" d="
			M14.38,121.51c4.83-1.31,8.35-1.1,10.56,0.65c2.2,1.75,5.63,1.83,10.29,0.24c3.87-2.54,7.69-1.39,11.46,3.44
			c3.77,4.83,8.9,4.1,15.4-2.19c3.63-1.83,7.33-1.01,11.12,2.45c4.49,1.84,10.1-2.17,16.83-12.01c9.24-10.8,17.17-18.56,23.79-23.27
			c6.62-4.71,13.86-9.92,21.72-15.66c7.86-5.73,13.53-13.89,17.03-24.46c3.49-10.58,5.89-18.9,7.22-24.94
			c1.33-6.04,3.43-10.78,6.3-14.24c2.87-3.47,5.08-5.47,6.61-6c1.54-0.53,3.36-0.5,5.46,0.1c3.55,1.34,6.33,1.42,8.34,0.22
			 M5.47,122.61c2.48,1.85,5.33,1.5,8.55-1.05"/>
	</g>
	<g>
		
			<radialGradient id="SVGID_1_" cx="-115.3999" cy="-200.3335" r="3.8" gradientTransform="matrix(1.449 -0.1787 0.1787 1.449 383.5853 275.0599)" gradientUnits="userSpaceOnUse">
			<stop  offset="0" style="stop-color:#FFFFFF;stop-opacity:0.6902"/>
			<stop  offset="1" style="stop-color:#FFFFFF;stop-opacity:0.0235"/>
		</radialGradient>
		<path fill-rule="evenodd" clip-rule="evenodd" fill="url(#SVGID_1_)" d="M174.72,4.86c0.04-0.09,0.1-0.16,0.2-0.21
			c0.08-0.05,0.17-0.06,0.25-0.03c6.06,1.94,9.57,2.27,10.53,0.98c0.05-0.08,0.12-0.12,0.2-0.14c0.11-0.01,0.21,0.01,0.3,0.07
			c0.08,0.05,0.12,0.11,0.14,0.2c0.01,0.11-0.01,0.21-0.07,0.3c-1.04,1.61-4.8,1.36-11.31-0.74c-0.09-0.04-0.16-0.1-0.21-0.19
			C174.71,5.03,174.7,4.95,174.72,4.86z"/>
		
			<radialGradient id="SVGID_2_" cx="-128.1499" cy="-191.5327" r="8.1492" gradientTransform="matrix(1.449 -0.1787 0.1787 1.449 383.5853 275.0599)" gradientUnits="userSpaceOnUse">
			<stop  offset="0" style="stop-color:#FFFFFF;stop-opacity:0.6902"/>
			<stop  offset="1" style="stop-color:#FFFFFF;stop-opacity:0.0235"/>
		</radialGradient>
		<path fill-rule="evenodd" clip-rule="evenodd" fill="url(#SVGID_2_)" d="M158.67,31.56c0.09-0.43,0.18-0.88,0.28-1.32
			c0.03-0.09,0.02-0.18-0.03-0.25c-0.02-0.02-0.03-0.04-0.05-0.07c2.17-10.92,5.25-17.83,9.25-20.74c0.09-0.06,0.18-0.09,0.29-0.07
			c0.1,0.02,0.18,0.07,0.24,0.15c0.06,0.09,0.09,0.18,0.07,0.29c-0.02,0.1-0.07,0.18-0.15,0.24c-4.02,2.98-7.09,10.2-9.21,21.66
			c-0.02,0.1-0.07,0.18-0.15,0.24c-0.09,0.06-0.18,0.09-0.29,0.07c-0.1-0.02-0.18-0.07-0.24-0.15L158.67,31.56z"/>
		
			<radialGradient id="SVGID_3_" cx="-141.6499" cy="-171.3335" r="14.45" gradientTransform="matrix(1.449 -0.1787 0.1787 1.449 383.5853 275.0599)" gradientUnits="userSpaceOnUse">
			<stop  offset="0" style="stop-color:#FFFFFF;stop-opacity:0.6902"/>
			<stop  offset="1" style="stop-color:#FFFFFF;stop-opacity:0.0235"/>
		</radialGradient>
		<path fill-rule="evenodd" clip-rule="evenodd" fill="url(#SVGID_3_)" d="M158.67,31.56c-4.6,20.69-11.17,34.38-19.72,41.08
			c-0.07,0.06-0.16,0.08-0.25,0.07c-0.11-0.02-0.2-0.07-0.28-0.15c-0.06-0.07-0.08-0.16-0.07-0.25c0.02-0.11,0.07-0.2,0.15-0.28
			c8.62-6.77,15.2-20.75,19.76-41.94c0.02-0.1,0.07-0.18,0.15-0.24c0.08-0.05,0.16-0.06,0.25-0.03c0.08,0.02,0.14,0.04,0.19,0.09
			c0.02,0.02,0.03,0.05,0.05,0.07c0.05,0.08,0.06,0.16,0.03,0.25C158.85,30.68,158.76,31.12,158.67,31.56z"/>
		
			<radialGradient id="SVGID_4_" cx="-170.02" cy="-144.6836" r="20.8662" gradientTransform="matrix(1.449 -0.1787 0.1787 1.449 383.5853 275.0599)" gradientUnits="userSpaceOnUse">
			<stop  offset="0" style="stop-color:#FFFFFF;stop-opacity:0.6902"/>
			<stop  offset="1" style="stop-color:#FFFFFF;stop-opacity:0.0235"/>
		</radialGradient>
		<path fill-rule="evenodd" clip-rule="evenodd" fill="url(#SVGID_4_)" d="M134.5,75.62c-0.02,0.1-0.07,0.18-0.15,0.24
			c-21,14.33-36.16,27.78-45.48,40.33c-0.06,0.08-0.14,0.13-0.24,0.14c-0.1,0.01-0.19-0.01-0.27-0.08
			c-0.08-0.06-0.13-0.14-0.14-0.24c-0.01-0.1,0.02-0.19,0.08-0.27c9.34-12.6,24.55-26.1,45.61-40.49c0.09-0.06,0.18-0.09,0.29-0.07
			c0.1,0.02,0.18,0.07,0.24,0.15C134.49,75.42,134.52,75.51,134.5,75.62z"/>
		
			<radialGradient id="SVGID_5_" cx="-196.5498" cy="-128.4834" r="4" gradientTransform="matrix(1.449 -0.1787 0.1787 1.449 383.5853 275.0599)" gradientUnits="userSpaceOnUse">
			<stop  offset="0" style="stop-color:#FFFFFF;stop-opacity:0.6902"/>
			<stop  offset="1" style="stop-color:#FFFFFF;stop-opacity:0.0235"/>
		</radialGradient>
		<path fill-rule="evenodd" clip-rule="evenodd" fill="url(#SVGID_5_)" d="M81.94,123.55c0,0.09-0.04,0.17-0.12,0.24
			c-3.56,3.3-7.57,3.62-12.02,0.97c-0.09-0.06-0.15-0.13-0.18-0.24c-0.03-0.09-0.01-0.18,0.04-0.26c0.06-0.09,0.13-0.15,0.24-0.18
			c0.09-0.02,0.18-0.01,0.26,0.04c4.13,2.47,7.84,2.18,11.15-0.86c0.08-0.07,0.17-0.11,0.28-0.11c0.09,0,0.17,0.04,0.24,0.12
			C81.9,123.35,81.94,123.44,81.94,123.55z"/>
		
			<radialGradient id="SVGID_6_" cx="-227.75" cy="-134.3833" r="4.9" gradientTransform="matrix(1.449 -0.1787 0.1787 1.449 383.5853 275.0599)" gradientUnits="userSpaceOnUse">
			<stop  offset="0" style="stop-color:#FFFFFF;stop-opacity:0.6902"/>
			<stop  offset="1" style="stop-color:#FFFFFF;stop-opacity:0.0235"/>
		</radialGradient>
		<path fill-rule="evenodd" clip-rule="evenodd" fill="url(#SVGID_6_)" d="M23.12,121.64c0.08-0.08,0.17-0.13,0.28-0.14
			c0.09-0.01,0.17,0.02,0.23,0.08c3.41,2.98,7.69,2.96,12.83-0.04c0.09-0.05,0.19-0.06,0.29-0.04c0.09,0.02,0.16,0.08,0.2,0.16
			c0.05,0.09,0.06,0.19,0.04,0.29c-0.02,0.09-0.08,0.16-0.16,0.2c-5.47,3.21-10.02,3.21-13.65-0.01c-0.08-0.08-0.13-0.17-0.14-0.28
			C23.03,121.79,23.05,121.71,23.12,121.64z"/>
		
			<radialGradient id="SVGID_7_" cx="-214" cy="-127.1836" r="4.5" gradientTransform="matrix(1.449 -0.1787 0.1787 1.449 383.5853 275.0599)" gradientUnits="userSpaceOnUse">
			<stop  offset="0" style="stop-color:#FFFFFF;stop-opacity:0.6902"/>
			<stop  offset="1" style="stop-color:#FFFFFF;stop-opacity:0.0235"/>
		</radialGradient>
		<path fill-rule="evenodd" clip-rule="evenodd" fill="url(#SVGID_7_)" d="M46.72,126.05c0.1,0.02,0.18,0.07,0.24,0.15
			c1.6,1.97,3.45,2.93,5.54,2.88c2.13-0.07,4.52-1.18,7.17-3.31c0.07-0.07,0.15-0.11,0.24-0.1c0.1,0.02,0.18,0.07,0.24,0.15
			c0.07,0.07,0.11,0.15,0.1,0.25c-0.02,0.1-0.07,0.18-0.15,0.24c-2.8,2.26-5.33,3.42-7.59,3.47c-2.31,0.08-4.33-0.97-6.09-3.15
			c-0.07-0.07-0.11-0.15-0.1-0.24c0.02-0.1,0.07-0.18,0.15-0.24C46.55,126.08,46.63,126.05,46.72,126.05z"/>
		
			<radialGradient id="SVGID_8_" cx="-241.0449" cy="-135.2837" r="2.9962" gradientTransform="matrix(1.449 -0.1787 0.1787 1.449 383.5853 275.0599)" gradientUnits="userSpaceOnUse">
			<stop  offset="0" style="stop-color:#FFFFFF;stop-opacity:0.6902"/>
			<stop  offset="1" style="stop-color:#FFFFFF;stop-opacity:0.0235"/>
		</radialGradient>
		<path fill-rule="evenodd" clip-rule="evenodd" fill="url(#SVGID_8_)" d="M14.84,121.6c-0.02,0.11-0.07,0.2-0.15,0.28
			c-3.43,2.68-6.48,3.01-9.15,0.98c-0.08-0.06-0.13-0.14-0.14-0.24c-0.01-0.1,0.01-0.19,0.08-0.27c0.06-0.08,0.14-0.13,0.24-0.14
			c0.1-0.01,0.19,0.01,0.27,0.08c2.41,1.76,5.16,1.42,8.26-1.02c0.07-0.06,0.16-0.08,0.25-0.07c0.11,0.02,0.2,0.07,0.28,0.15
			C14.83,121.42,14.85,121.51,14.84,121.6z"/>
	</g>
</g>
</svg>
