<?xml version="1.0" encoding="utf-8"?>
<!-- Generator: Adobe Illustrator 16.0.0, SVG Export Plug-In . SVG Version: 6.00 Build 0)  -->
<!DOCTYPE svg PUBLIC "-//W3C//DTD SVG 1.1//EN" "http://www.w3.org/Graphics/SVG/1.1/DTD/svg11.dtd">
<svg version="1.1" id="Layer_1" xmlns="http://www.w3.org/2000/svg" xmlns:xlink="http://www.w3.org/1999/xlink" x="0px" y="0px"
	 width="181.33px" height="156.33px" viewBox="0 0 181.33 156.33" enable-background="new 0 0 181.33 156.33" xml:space="preserve">
<g>
	<g>
		
			<path fill-rule="evenodd" clip-rule="evenodd" fill="none" stroke="#000000" stroke-width="4" stroke-linecap="round" stroke-linejoin="round" stroke-miterlimit="3" stroke-opacity="0.2471" d="
			M18.32,141.39c3.93,3.01,9.16,3.97,15.71,2.9c4.81-0.41,7.07,1.92,6.79,7c12.6-3.99,20.94-3.87,25.01,0.36l12.87-8.88
			c16.32-18.45,30.49-32.67,42.49-42.66c11.96-9.99,20.72-18.48,26.29-25.48c5.51-7.03,11.58-24.41,18.22-52.13
			c4.2-9.77,7.61-14.74,10.22-14.92"/>
	</g>
	<g>
		
			<path fill-rule="evenodd" clip-rule="evenodd" fill="none" stroke="#000000" stroke-width="4" stroke-linecap="round" stroke-linejoin="round" stroke-miterlimit="3" d="
			M5.53,139.07c3.41,1.56,6.36,1.8,8.84,0.72c2.47-1.07,6.73-1.47,12.77-1.2c6.05,0.27,11.43,2.17,16.12,5.69
			c4.69,3.51,11.63,0.11,20.81-10.19c1.98-2.22,4.05-2.16,6.2,0.19c3.88,7.81,10.62,4.7,20.23-9.34
			c9.6-14.03,18.5-23.92,26.71-29.67c8.21-5.74,15.29-11.25,21.24-16.53c5.95-5.28,9.56-10.84,10.84-16.69
			c1.27-5.84,3.93-15.85,7.96-30.03c7.78-20.01,13.38-29.3,16.81-27.88c0.36,0.14,0.79,0.42,1.29,0.85
			c0.32,0.27,0.75,0.42,1.31,0.44"/>
	</g>
	<g>
		
			<radialGradient id="SVGID_1_" cx="-126.3164" cy="-173.0498" r="16.55" gradientTransform="matrix(1.4189 -0.3419 0.3419 1.4189 396.2877 240.1613)" gradientUnits="userSpaceOnUse">
			<stop  offset="0" style="stop-color:#FFFFFF;stop-opacity:0.6902"/>
			<stop  offset="1" style="stop-color:#FFFFFF;stop-opacity:0.0235"/>
		</radialGradient>
		<path fill-rule="evenodd" clip-rule="evenodd" fill="url(#SVGID_1_)" d="M165.97,14.89c0.01,0.1-0.02,0.2-0.08,0.28
			c-6.07,8.1-11.21,23.27-15.42,45.52c-0.01,0.09-0.06,0.17-0.13,0.22c-0.09,0.06-0.18,0.08-0.28,0.07
			c-0.09-0.01-0.17-0.06-0.22-0.13c-0.06-0.09-0.08-0.18-0.07-0.28c4.24-22.42,9.43-37.7,15.56-45.86c0.06-0.08,0.13-0.12,0.23-0.13
			c0.1-0.01,0.2,0.02,0.28,0.08C165.91,14.71,165.96,14.79,165.97,14.89z"/>
		
			<radialGradient id="SVGID_2_" cx="-106.6665" cy="-192.5498" r="4.05" gradientTransform="matrix(1.4189 -0.3419 0.3419 1.4189 396.2877 240.1613)" gradientUnits="userSpaceOnUse">
			<stop  offset="0" style="stop-color:#FFFFFF;stop-opacity:0.6902"/>
			<stop  offset="1" style="stop-color:#FFFFFF;stop-opacity:0.0235"/>
		</radialGradient>
		<path fill-rule="evenodd" clip-rule="evenodd" fill="url(#SVGID_2_)" d="M173.11,4.34c-0.09-0.03-0.16-0.09-0.19-0.18
			c-0.04-0.1-0.04-0.2,0-0.3c0.03-0.09,0.09-0.16,0.18-0.19c0.1-0.04,0.2-0.04,0.3,0c1.63,0.64,2.92,1.04,3.89,1.2
			c0.09,0.01,0.17,0.06,0.22,0.13c0.06,0.09,0.08,0.18,0.07,0.28c-0.01,0.09-0.06,0.17-0.13,0.22c-0.08,0.06-0.18,0.08-0.28,0.07
			C176.15,5.42,174.8,5.01,173.11,4.34z"/>
		
			<radialGradient id="SVGID_3_" cx="-171.4663" cy="-134" r="17.45" gradientTransform="matrix(1.4189 -0.3419 0.3419 1.4189 396.2877 240.1613)" gradientUnits="userSpaceOnUse">
			<stop  offset="0" style="stop-color:#FFFFFF;stop-opacity:0.6902"/>
			<stop  offset="1" style="stop-color:#FFFFFF;stop-opacity:0.0235"/>
		</radialGradient>
		<path fill-rule="evenodd" clip-rule="evenodd" fill="url(#SVGID_3_)" d="M126.6,88.74c-0.03,0.1-0.08,0.17-0.17,0.23
			c-14.61,9.11-26.87,21.8-36.77,38.06c-0.05,0.09-0.13,0.14-0.22,0.17c-0.1,0.02-0.19,0.01-0.27-0.05
			c-0.09-0.05-0.14-0.13-0.17-0.22c-0.02-0.1-0.01-0.19,0.05-0.27c9.97-16.35,22.31-29.11,37.02-38.27
			c0.08-0.06,0.16-0.08,0.25-0.06c0.1,0.03,0.17,0.08,0.23,0.17C126.6,88.56,126.62,88.65,126.6,88.74z"/>
		
			<radialGradient id="SVGID_4_" cx="-197.4165" cy="-119.6499" r="3.9" gradientTransform="matrix(1.4189 -0.3419 0.3419 1.4189 396.2877 240.1613)" gradientUnits="userSpaceOnUse">
			<stop  offset="0" style="stop-color:#FFFFFF;stop-opacity:0.6902"/>
			<stop  offset="1" style="stop-color:#FFFFFF;stop-opacity:0.0235"/>
		</radialGradient>
		<path fill-rule="evenodd" clip-rule="evenodd" fill="url(#SVGID_4_)" d="M82.09,135.3c0.08,0.06,0.12,0.14,0.13,0.23
			c-0.01,0.1-0.05,0.18-0.13,0.26c-1.99,2.12-3.96,3.21-5.93,3.27c-1.98,0.09-3.95-0.87-5.91-2.86c-0.07-0.07-0.1-0.15-0.09-0.24
			c0-0.11,0.04-0.21,0.12-0.29c0.07-0.07,0.15-0.1,0.24-0.1c0.11,0,0.21,0.04,0.29,0.12c1.77,1.82,3.54,2.7,5.33,2.66
			c1.8-0.08,3.62-1.09,5.46-3.04c0.06-0.08,0.14-0.12,0.23-0.13C81.93,135.18,82.01,135.22,82.09,135.3z"/>
		
			<radialGradient id="SVGID_5_" cx="-230.9688" cy="-126.8999" r="5.7022" gradientTransform="matrix(1.4189 -0.3419 0.3419 1.4189 396.2877 240.1613)" gradientUnits="userSpaceOnUse">
			<stop  offset="0" style="stop-color:#FFFFFF;stop-opacity:0.6902"/>
			<stop  offset="1" style="stop-color:#FFFFFF;stop-opacity:0.0235"/>
		</radialGradient>
		<path fill-rule="evenodd" clip-rule="evenodd" fill="url(#SVGID_5_)" d="M33.54,138.82c0.1,0.03,0.18,0.08,0.23,0.17
			c0.06,0.08,0.08,0.16,0.06,0.25c-0.03,0.1-0.08,0.17-0.17,0.23c-0.08,0.06-0.16,0.08-0.25,0.06c-5.26-1.21-10.75-1.3-16.47-0.27
			c-0.09,0.02-0.17,0-0.24-0.05c-0.09-0.07-0.15-0.15-0.17-0.26c-0.02-0.09,0-0.17,0.05-0.24c0.06-0.09,0.15-0.15,0.26-0.17
			C22.64,137.48,28.21,137.58,33.54,138.82z"/>
		
			<radialGradient id="SVGID_6_" cx="-213.9663" cy="-121.7998" r="6.85" gradientTransform="matrix(1.4189 -0.3419 0.3419 1.4189 396.2877 240.1613)" gradientUnits="userSpaceOnUse">
			<stop  offset="0" style="stop-color:#FFFFFF;stop-opacity:0.6902"/>
			<stop  offset="1" style="stop-color:#FFFFFF;stop-opacity:0.0235"/>
		</radialGradient>
		<path fill-rule="evenodd" clip-rule="evenodd" fill="url(#SVGID_6_)" d="M49.69,145.7c-3.35,0.91-6.21,0.13-8.56-2.33
			c-0.07-0.08-0.11-0.17-0.1-0.27c0.01-0.1,0.05-0.19,0.13-0.26c0.08-0.07,0.17-0.1,0.27-0.1c0.1,0.01,0.19,0.05,0.26,0.13
			c2.14,2.26,4.74,2.97,7.8,2.14c3.16-0.87,6.79-3.34,10.9-7.39c0.07-0.07,0.15-0.1,0.24-0.09c0.11,0,0.21,0.04,0.29,0.12
			c0.07,0.07,0.1,0.15,0.09,0.24c0,0.11-0.04,0.21-0.12,0.29C56.67,142.31,52.94,144.83,49.69,145.7z"/>
		
			<radialGradient id="SVGID_7_" cx="-240.9155" cy="-129.25" r="3.4992" gradientTransform="matrix(1.4189 -0.3419 0.3419 1.4189 396.2877 240.1613)" gradientUnits="userSpaceOnUse">
			<stop  offset="0" style="stop-color:#FFFFFF;stop-opacity:0.6902"/>
			<stop  offset="1" style="stop-color:#FFFFFF;stop-opacity:0.0235"/>
		</radialGradient>
		<path fill-rule="evenodd" clip-rule="evenodd" fill="url(#SVGID_7_)" d="M5.11,138.57c0.1-0.02,0.19-0.01,0.27,0.05
			c3.05,1.82,6.32,1.95,9.81,0.38c0.1-0.04,0.2-0.04,0.3,0c0.09,0.03,0.16,0.09,0.19,0.18c0.04,0.1,0.04,0.2,0,0.3
			c-0.03,0.09-0.09,0.15-0.18,0.19c-3.74,1.67-7.24,1.53-10.5-0.44c-0.09-0.05-0.14-0.13-0.17-0.22c-0.02-0.1-0.01-0.19,0.05-0.27
			C4.94,138.65,5.01,138.6,5.11,138.57z"/>
	</g>
</g>
</svg>
