<?xml version="1.0" encoding="utf-8"?>
<!-- Generator: Adobe Illustrator 16.0.0, SVG Export Plug-In . SVG Version: 6.00 Build 0)  -->
<!DOCTYPE svg PUBLIC "-//W3C//DTD SVG 1.1//EN" "http://www.w3.org/Graphics/SVG/1.1/DTD/svg11.dtd">
<svg version="1.1" id="Layer_1" xmlns="http://www.w3.org/2000/svg" xmlns:xlink="http://www.w3.org/1999/xlink" x="0px" y="0px"
	 width="197.5px" height="130.83px" viewBox="0 0 197.5 130.83" enable-background="new 0 0 197.5 130.83" xml:space="preserve">
<g>
	<g>
		
			<path fill-rule="evenodd" clip-rule="evenodd" fill="none" stroke="#000000" stroke-width="4" stroke-linecap="round" stroke-linejoin="round" stroke-miterlimit="3" stroke-opacity="0.2471" d="
			M10.73,85.71c6.72,3.55,9.4,8.89,8.03,15.99c3.21,0.58,6.74,2.43,10.59,5.55c9.79,19.08,22.93,22.37,39.44,9.86
			c6.09-5.16,16.9-14.68,32.43-28.55c15.48-13.93,32.64-25.73,51.49-35.42c18.79-9.69,27.7-23.64,26.73-41.85
			c2.63-0.24,4.46-0.75,5.48-1.53"/>
	</g>
	<g>
		
			<path fill-rule="evenodd" clip-rule="evenodd" fill="none" stroke="#000000" stroke-width="4" stroke-linecap="round" stroke-linejoin="round" stroke-miterlimit="3" d="
			M5.25,82.57c2.72,1.48,5.11,1.49,7.16,0.04c2.05-1.45,9.76,6.93,23.15,25.16c13.39,18.22,29.07,14.82,47.03-10.22
			c9.71-10.88,24.68-22.01,44.91-33.38c17.12-10.29,28.38-17.23,33.78-20.81c5.39-3.57,8.17-9.61,8.36-18.11
			c0.19-8.51,2.1-14.3,5.73-17.34c3.63-3.04,6.49-3.71,8.58-2.01c3.61,1.25,6.41,1.15,8.4-0.29"/>
	</g>
	<g>
		
			<radialGradient id="SVGID_1_" cx="-133.9502" cy="-227.4165" r="3.4" gradientTransform="matrix(1.4606 0 0 1.4606 383.111 337.1762)" gradientUnits="userSpaceOnUse">
			<stop  offset="0" style="stop-color:#FFFFFF;stop-opacity:0.6902"/>
			<stop  offset="1" style="stop-color:#FFFFFF;stop-opacity:0.0235"/>
		</radialGradient>
		<path fill-rule="evenodd" clip-rule="evenodd" fill="url(#SVGID_1_)" d="M192.72,5.16c-0.02,0.09-0.07,0.17-0.15,0.22
			c-3.14,2.1-6.56,2.03-10.26-0.18c-0.09-0.06-0.15-0.15-0.18-0.26c-0.03-0.09-0.01-0.18,0.04-0.26c0.06-0.09,0.15-0.15,0.26-0.18
			c0.09-0.03,0.17-0.01,0.25,0.04c3.41,2.07,6.56,2.15,9.46,0.26c0.09-0.06,0.19-0.09,0.29-0.07c0.09,0.03,0.17,0.09,0.22,0.18
			C192.71,4.98,192.74,5.06,192.72,5.16z"/>
		
			<radialGradient id="SVGID_2_" cx="-145.1499" cy="-215.8662" r="8.1495" gradientTransform="matrix(1.4606 0 0 1.4606 383.111 337.1762)" gradientUnits="userSpaceOnUse">
			<stop  offset="0" style="stop-color:#FFFFFF;stop-opacity:0.6902"/>
			<stop  offset="1" style="stop-color:#FFFFFF;stop-opacity:0.0235"/>
		</radialGradient>
		<path fill-rule="evenodd" clip-rule="evenodd" fill="url(#SVGID_2_)" d="M172.89,9.94c0.07-0.07,0.15-0.11,0.25-0.11
			c0.1,0,0.18,0.04,0.26,0.11c0.07,0.07,0.11,0.15,0.11,0.26c0,0.1-0.04,0.18-0.11,0.26c-2.22,2.41-3.58,10.11-4.05,23.11
			c0,0.1-0.04,0.19-0.11,0.26c-0.07,0.07-0.16,0.11-0.26,0.11c-0.1,0-0.19-0.04-0.25-0.11c-0.07-0.07-0.11-0.16-0.11-0.26
			C169.12,20.28,170.54,12.4,172.89,9.94z"/>
		
			<radialGradient id="SVGID_3_" cx="-177.5708" cy="-184.3442" r="27.7823" gradientTransform="matrix(1.4606 0 0 1.4606 383.111 337.1762)" gradientUnits="userSpaceOnUse">
			<stop  offset="0" style="stop-color:#FFFFFF;stop-opacity:0.6902"/>
			<stop  offset="1" style="stop-color:#FFFFFF;stop-opacity:0.0235"/>
		</radialGradient>
		<path fill-rule="evenodd" clip-rule="evenodd" fill="url(#SVGID_3_)" d="M158.32,46.31c-0.03,0.1-0.09,0.17-0.18,0.22
			c-34.84,19.8-57.63,34.27-68.39,43.42c-0.07,0.06-0.16,0.09-0.26,0.07c-0.1-0.01-0.19-0.06-0.26-0.15
			c-0.06-0.07-0.08-0.16-0.07-0.26c0.01-0.1,0.06-0.19,0.15-0.25c10.76-9.16,33.58-23.66,68.47-43.49c0.09-0.05,0.19-0.06,0.29-0.04
			c0.1,0.03,0.17,0.09,0.22,0.18C158.34,46.11,158.35,46.21,158.32,46.31z"/>
		
			<radialGradient id="SVGID_4_" cx="-216.5996" cy="-157.0166" r="13.4496" gradientTransform="matrix(1.4606 0 0 1.4606 383.111 337.1762)" gradientUnits="userSpaceOnUse">
			<stop  offset="0" style="stop-color:#FFFFFF;stop-opacity:0.6902"/>
			<stop  offset="1" style="stop-color:#FFFFFF;stop-opacity:0.0235"/>
		</radialGradient>
		<path fill-rule="evenodd" clip-rule="evenodd" fill="url(#SVGID_4_)" d="M83.18,96.44c0.01,0.09-0.01,0.18-0.07,0.25
			c-10.81,16.52-21.63,24.13-32.46,22.82c-0.1-0.01-0.19-0.06-0.26-0.15c-0.06-0.07-0.09-0.16-0.07-0.25
			c0.01-0.1,0.06-0.19,0.15-0.26c0.07-0.06,0.16-0.09,0.26-0.07c10.59,1.22,21.19-6.26,31.81-22.46c0.05-0.09,0.12-0.15,0.22-0.18
			c0.09-0.01,0.18,0.01,0.26,0.07C83.09,96.28,83.15,96.35,83.18,96.44z"/>
		
			<radialGradient id="SVGID_5_" cx="-255.7495" cy="-174.5664" r="2.4997" gradientTransform="matrix(1.4606 0 0 1.4606 383.111 337.1762)" gradientUnits="userSpaceOnUse">
			<stop  offset="0" style="stop-color:#FFFFFF;stop-opacity:0.6902"/>
			<stop  offset="1" style="stop-color:#FFFFFF;stop-opacity:0.0235"/>
		</radialGradient>
		<path fill-rule="evenodd" clip-rule="evenodd" fill="url(#SVGID_5_)" d="M13.58,81.95c-0.02,0.1-0.06,0.19-0.15,0.26
			c-1.75,1.32-3.26,2.03-4.53,2.12c-1.35,0.11-2.45-0.42-3.29-1.61c-0.06-0.09-0.09-0.19-0.07-0.29c0.02-0.09,0.06-0.17,0.15-0.22
			c0.09-0.06,0.19-0.09,0.29-0.07c0.09,0.02,0.17,0.07,0.22,0.15c0.67,0.96,1.55,1.39,2.63,1.31c1.16-0.1,2.55-0.76,4.16-1.97
			c0.08-0.06,0.16-0.09,0.26-0.07c0.1,0.02,0.19,0.06,0.26,0.15C13.57,81.77,13.59,81.85,13.58,81.95z"/>
		
			<radialGradient id="SVGID_6_" cx="-241.8501" cy="-162.5156" r="11.5993" gradientTransform="matrix(1.4606 0 0 1.4606 383.111 337.1762)" gradientUnits="userSpaceOnUse">
			<stop  offset="0" style="stop-color:#FFFFFF;stop-opacity:0.6902"/>
			<stop  offset="1" style="stop-color:#FFFFFF;stop-opacity:0.0235"/>
		</radialGradient>
		<path fill-rule="evenodd" clip-rule="evenodd" fill="url(#SVGID_6_)" d="M19.06,86.4c0.02-0.1,0.06-0.19,0.15-0.26
			c0.08-0.06,0.16-0.08,0.26-0.07c0.1,0.02,0.19,0.06,0.26,0.15l20.81,26.73c0.06,0.08,0.09,0.16,0.07,0.26
			c-0.02,0.1-0.06,0.19-0.15,0.25c-0.07,0.06-0.16,0.09-0.26,0.07c-0.1-0.02-0.19-0.06-0.26-0.15L19.13,86.66
			C19.07,86.58,19.04,86.5,19.06,86.4z"/>
	</g>
</g>
</svg>
