<?xml version="1.0" encoding="utf-8"?>
<!-- Generator: Adobe Illustrator 16.0.0, SVG Export Plug-In . SVG Version: 6.00 Build 0)  -->
<!DOCTYPE svg PUBLIC "-//W3C//DTD SVG 1.1//EN" "http://www.w3.org/Graphics/SVG/1.1/DTD/svg11.dtd">
<svg version="1.1" id="Layer_1" xmlns="http://www.w3.org/2000/svg" xmlns:xlink="http://www.w3.org/1999/xlink" x="0px" y="0px"
	 width="543px" height="546.5px" viewBox="-3 -4 543 546.5" enable-background="new -3 -4 543 546.5" xml:space="preserve">
<g id="Layer_2">
	<line fill="none" stroke="#231F20" stroke-width="0.75" stroke-miterlimit="10" x1="268.73" y1="17.62" x2="268.73" y2="55.72"/>
	<line fill="none" stroke="#231F20" stroke-width="0.75" stroke-miterlimit="10" x1="224.92" y1="21.5" x2="231.53" y2="59.02"/>
	<line fill="none" stroke="#231F20" stroke-width="0.75" stroke-miterlimit="10" x1="182.44" y1="32.93" x2="195.48" y2="68.74"/>
	<line fill="none" stroke="#231F20" stroke-width="0.75" stroke-miterlimit="10" x1="142.6" y1="51.56" x2="161.65" y2="84.56"/>
	<line fill="none" stroke="#231F20" stroke-width="0.75" stroke-miterlimit="10" x1="106.6" y1="76.83" x2="131.09" y2="106.02"/>
	<line fill="none" stroke="#231F20" stroke-width="0.75" stroke-miterlimit="10" x1="75.53" y1="107.96" x2="104.72" y2="132.45"/>
	<line fill="none" stroke="#231F20" stroke-width="0.75" stroke-miterlimit="10" x1="50.34" y1="144.02" x2="83.34" y2="163.07"/>
	<line fill="none" stroke="#231F20" stroke-width="0.75" stroke-miterlimit="10" x1="31.79" y1="183.9" x2="67.6" y2="196.93"/>
	<line fill="none" stroke="#231F20" stroke-width="0.75" stroke-miterlimit="10" x1="20.45" y1="226.4" x2="57.98" y2="233.02"/>
	<line fill="none" stroke="#231F20" stroke-width="0.75" stroke-miterlimit="10" x1="16.67" y1="270.22" x2="54.77" y2="270.22"/>
	<line fill="none" stroke="#231F20" stroke-width="0.75" stroke-miterlimit="10" x1="20.55" y1="314.03" x2="58.07" y2="307.42"/>
	<line fill="none" stroke="#231F20" stroke-width="0.75" stroke-miterlimit="10" x1="31.98" y1="356.51" x2="67.79" y2="343.47"/>
	<line fill="none" stroke="#231F20" stroke-width="0.75" stroke-miterlimit="10" x1="50.61" y1="396.35" x2="83.61" y2="377.3"/>
	<line fill="none" stroke="#231F20" stroke-width="0.75" stroke-miterlimit="10" x1="75.88" y1="432.36" x2="105.07" y2="407.86"/>
	<line fill="none" stroke="#231F20" stroke-width="0.75" stroke-miterlimit="10" x1="107.01" y1="463.42" x2="131.51" y2="434.23"/>
	<line fill="none" stroke="#231F20" stroke-width="0.75" stroke-miterlimit="10" x1="143.07" y1="488.61" x2="162.12" y2="455.61"/>
	<line fill="none" stroke="#231F20" stroke-width="0.75" stroke-miterlimit="10" x1="182.95" y1="507.16" x2="195.98" y2="471.35"/>
	<line fill="none" stroke="#231F20" stroke-width="0.75" stroke-miterlimit="10" x1="225.45" y1="518.5" x2="232.07" y2="480.97"/>
	<line fill="none" stroke="#231F20" stroke-width="0.75" stroke-miterlimit="10" x1="269.27" y1="522.28" x2="269.27" y2="484.17"/>
	<line fill="none" stroke="#231F20" stroke-width="0.75" stroke-miterlimit="10" x1="313.09" y1="518.4" x2="306.47" y2="480.87"/>
	<line fill="none" stroke="#231F20" stroke-width="0.75" stroke-miterlimit="10" x1="355.56" y1="506.97" x2="342.52" y2="471.16"/>
	<line fill="none" stroke="#231F20" stroke-width="0.75" stroke-miterlimit="10" x1="395.4" y1="488.34" x2="376.35" y2="455.34"/>
	<line fill="none" stroke="#231F20" stroke-width="0.75" stroke-miterlimit="10" x1="431.41" y1="463.07" x2="406.91" y2="433.88"/>
	<line fill="none" stroke="#231F20" stroke-width="0.75" stroke-miterlimit="10" x1="462.47" y1="431.94" x2="433.28" y2="407.44"/>
	<line fill="none" stroke="#231F20" stroke-width="0.75" stroke-miterlimit="10" x1="487.66" y1="395.88" x2="454.66" y2="376.83"/>
	<line fill="none" stroke="#231F20" stroke-width="0.75" stroke-miterlimit="10" x1="506.21" y1="356" x2="470.4" y2="342.97"/>
	<line fill="none" stroke="#231F20" stroke-width="0.75" stroke-miterlimit="10" x1="517.55" y1="313.5" x2="480.02" y2="306.89"/>
	<line fill="none" stroke="#231F20" stroke-width="0.75" stroke-miterlimit="10" x1="521.33" y1="269.68" x2="483.22" y2="269.68"/>
	<line fill="none" stroke="#231F20" stroke-width="0.75" stroke-miterlimit="10" x1="517.45" y1="225.87" x2="479.92" y2="232.48"/>
	<line fill="none" stroke="#231F20" stroke-width="0.75" stroke-miterlimit="10" x1="506.02" y1="183.39" x2="470.21" y2="196.43"/>
	<line fill="none" stroke="#231F20" stroke-width="0.75" stroke-miterlimit="10" x1="487.39" y1="143.55" x2="454.39" y2="162.6"/>
	<line fill="none" stroke="#231F20" stroke-width="0.75" stroke-miterlimit="10" x1="462.12" y1="107.54" x2="432.93" y2="132.04"/>
	<line fill="none" stroke="#231F20" stroke-width="0.75" stroke-miterlimit="10" x1="430.99" y1="76.48" x2="406.49" y2="105.67"/>
	<line fill="none" stroke="#231F20" stroke-width="0.75" stroke-miterlimit="10" x1="394.93" y1="51.29" x2="375.88" y2="84.29"/>
	<line fill="none" stroke="#231F20" stroke-width="0.75" stroke-miterlimit="10" x1="355.05" y1="32.74" x2="342.02" y2="68.55"/>
	<line fill="none" stroke="#231F20" stroke-width="0.75" stroke-miterlimit="10" x1="312.55" y1="21.41" x2="305.93" y2="58.93"/>
	<line fill="none" stroke="#231F20" stroke-width="0.75" stroke-miterlimit="10" x1="247.62" y1="28.69" x2="250.06" y2="56.56"/>
	<line fill="none" stroke="#231F20" stroke-width="0.75" stroke-miterlimit="10" x1="206.05" y1="36.07" x2="213.29" y2="63.09"/>
	<line fill="none" stroke="#231F20" stroke-width="0.75" stroke-miterlimit="10" x1="166.4" y1="50.55" x2="178.22" y2="75.91"/>
	<line fill="none" stroke="#231F20" stroke-width="0.75" stroke-miterlimit="10" x1="129.86" y1="71.7" x2="145.9" y2="94.62"/>
	<line fill="none" stroke="#231F20" stroke-width="0.75" stroke-miterlimit="10" x1="97.54" y1="98.88" x2="117.33" y2="118.66"/>
	<line fill="none" stroke="#231F20" stroke-width="0.75" stroke-miterlimit="10" x1="70.44" y1="131.25" x2="93.36" y2="147.3"/>
	<line fill="none" stroke="#231F20" stroke-width="0.75" stroke-miterlimit="10" x1="49.37" y1="167.84" x2="74.73" y2="179.66"/>
	<line fill="none" stroke="#231F20" stroke-width="0.75" stroke-miterlimit="10" x1="34.98" y1="207.52" x2="62" y2="214.77"/>
	<line fill="none" stroke="#231F20" stroke-width="0.75" stroke-miterlimit="10" x1="27.69" y1="249.11" x2="55.56" y2="251.55"/>
	<line fill="none" stroke="#231F20" stroke-width="0.75" stroke-miterlimit="10" x1="27.74" y1="291.33" x2="55.61" y2="288.89"/>
	<line fill="none" stroke="#231F20" stroke-width="0.75" stroke-miterlimit="10" x1="35.12" y1="332.9" x2="62.14" y2="325.66"/>
	<line fill="none" stroke="#231F20" stroke-width="0.75" stroke-miterlimit="10" x1="49.6" y1="372.56" x2="74.96" y2="360.73"/>
	<line fill="none" stroke="#231F20" stroke-width="0.75" stroke-miterlimit="10" x1="70.75" y1="409.1" x2="93.67" y2="393.05"/>
	<line fill="none" stroke="#231F20" stroke-width="0.75" stroke-miterlimit="10" x1="97.92" y1="441.41" x2="117.71" y2="421.62"/>
	<line fill="none" stroke="#231F20" stroke-width="0.75" stroke-miterlimit="10" x1="130.3" y1="468.51" x2="146.34" y2="445.59"/>
	<line fill="none" stroke="#231F20" stroke-width="0.75" stroke-miterlimit="10" x1="166.88" y1="489.58" x2="178.71" y2="464.22"/>
	<line fill="none" stroke="#231F20" stroke-width="0.75" stroke-miterlimit="10" x1="206.57" y1="503.98" x2="213.81" y2="476.95"/>
	<line fill="none" stroke="#231F20" stroke-width="0.75" stroke-miterlimit="10" x1="248.16" y1="511.26" x2="250.6" y2="483.38"/>
	<line fill="none" stroke="#231F20" stroke-width="0.75" stroke-miterlimit="10" x1="290.38" y1="511.21" x2="287.94" y2="483.34"/>
	<line fill="none" stroke="#231F20" stroke-width="0.75" stroke-miterlimit="10" x1="331.95" y1="503.83" x2="324.7" y2="476.81"/>
	<line fill="none" stroke="#231F20" stroke-width="0.75" stroke-miterlimit="10" x1="371.61" y1="489.35" x2="359.78" y2="463.99"/>
	<line fill="none" stroke="#231F20" stroke-width="0.75" stroke-miterlimit="10" x1="408.15" y1="468.2" x2="392.09" y2="445.28"/>
	<line fill="none" stroke="#231F20" stroke-width="0.75" stroke-miterlimit="10" x1="440.46" y1="441.02" x2="420.67" y2="421.24"/>
	<line fill="none" stroke="#231F20" stroke-width="0.75" stroke-miterlimit="10" x1="467.56" y1="408.65" x2="444.64" y2="392.61"/>
	<line fill="none" stroke="#231F20" stroke-width="0.75" stroke-miterlimit="10" x1="488.63" y1="372.07" x2="463.27" y2="360.24"/>
	<line fill="none" stroke="#231F20" stroke-width="0.75" stroke-miterlimit="10" x1="503.02" y1="332.38" x2="475.99" y2="325.14"/>
	<line fill="none" stroke="#231F20" stroke-width="0.75" stroke-miterlimit="10" x1="510.3" y1="290.79" x2="482.43" y2="288.36"/>
	<line fill="none" stroke="#231F20" stroke-width="0.75" stroke-miterlimit="10" x1="510.26" y1="248.57" x2="482.38" y2="251.01"/>
	<line fill="none" stroke="#231F20" stroke-width="0.75" stroke-miterlimit="10" x1="502.88" y1="207" x2="475.85" y2="214.25"/>
	<line fill="none" stroke="#231F20" stroke-width="0.75" stroke-miterlimit="10" x1="488.4" y1="167.34" x2="463.04" y2="179.17"/>
	<line fill="none" stroke="#231F20" stroke-width="0.75" stroke-miterlimit="10" x1="467.25" y1="130.8" x2="444.33" y2="146.86"/>
	<line fill="none" stroke="#231F20" stroke-width="0.75" stroke-miterlimit="10" x1="440.07" y1="98.49" x2="420.29" y2="118.28"/>
	<line fill="none" stroke="#231F20" stroke-width="0.75" stroke-miterlimit="10" x1="407.7" y1="71.39" x2="391.65" y2="94.32"/>
	<line fill="none" stroke="#231F20" stroke-width="0.75" stroke-miterlimit="10" x1="371.11" y1="50.32" x2="359.29" y2="75.68"/>
	<line fill="none" stroke="#231F20" stroke-width="0.75" stroke-miterlimit="10" x1="331.42" y1="35.93" x2="324.19" y2="62.96"/>
	<line fill="none" stroke="#231F20" stroke-width="0.75" stroke-miterlimit="10" x1="289.84" y1="28.65" x2="287.4" y2="56.52"/>
	<line fill="none" stroke="#231F20" stroke-width="0.75" stroke-miterlimit="10" x1="264.71" y1="39.61" x2="264.99" y2="55.76"/>
	<line fill="none" stroke="#231F20" stroke-width="0.75" stroke-miterlimit="10" x1="260.69" y1="39.72" x2="261.26" y2="55.86"/>
	<line fill="none" stroke="#231F20" stroke-width="0.75" stroke-miterlimit="10" x1="256.67" y1="39.9" x2="257.52" y2="56.03"/>
	<line fill="none" stroke="#231F20" stroke-width="0.75" stroke-miterlimit="10" x1="252.66" y1="40.15" x2="253.79" y2="56.26"/>
	<line fill="none" stroke="#231F20" stroke-width="0.75" stroke-miterlimit="10" x1="244.65" y1="40.86" x2="246.34" y2="56.92"/>
	<line fill="none" stroke="#231F20" stroke-width="0.75" stroke-miterlimit="10" x1="240.66" y1="41.32" x2="242.63" y2="57.35"/>
	<line fill="none" stroke="#231F20" stroke-width="0.75" stroke-miterlimit="10" x1="236.67" y1="41.85" x2="238.92" y2="57.84"/>
	<line fill="none" stroke="#231F20" stroke-width="0.75" stroke-miterlimit="10" x1="232.69" y1="42.45" x2="235.22" y2="58.4"/>
	<line fill="none" stroke="#231F20" stroke-width="0.75" stroke-miterlimit="10" x1="224.78" y1="43.85" x2="227.86" y2="59.71"/>
	<line fill="none" stroke="#231F20" stroke-width="0.75" stroke-miterlimit="10" x1="220.84" y1="44.66" x2="224.2" y2="60.46"/>
	<line fill="none" stroke="#231F20" stroke-width="0.75" stroke-miterlimit="10" x1="216.91" y1="45.53" x2="220.55" y2="61.27"/>
	<line fill="none" stroke="#231F20" stroke-width="0.75" stroke-miterlimit="10" x1="213" y1="46.47" x2="216.91" y2="62.15"/>
	<line fill="none" stroke="#231F20" stroke-width="0.75" stroke-miterlimit="10" x1="205.24" y1="48.57" x2="209.69" y2="64.09"/>
	<line fill="none" stroke="#231F20" stroke-width="0.75" stroke-miterlimit="10" x1="201.38" y1="49.71" x2="206.11" y2="65.16"/>
	<line fill="none" stroke="#231F20" stroke-width="0.75" stroke-miterlimit="10" x1="197.55" y1="50.93" x2="202.55" y2="66.29"/>
	<line fill="none" stroke="#231F20" stroke-width="0.75" stroke-miterlimit="10" x1="193.74" y1="52.21" x2="199" y2="67.48"/>
	<line fill="none" stroke="#231F20" stroke-width="0.75" stroke-miterlimit="10" x1="186.19" y1="54.97" x2="191.98" y2="70.05"/>
	<line fill="none" stroke="#231F20" stroke-width="0.75" stroke-miterlimit="10" x1="182.45" y1="56.45" x2="188.5" y2="71.42"/>
	<line fill="none" stroke="#231F20" stroke-width="0.75" stroke-miterlimit="10" x1="178.73" y1="57.99" x2="185.05" y2="72.86"/>
	<line fill="none" stroke="#231F20" stroke-width="0.75" stroke-miterlimit="10" x1="175.05" y1="59.6" x2="181.62" y2="74.35"/>
	<line fill="none" stroke="#231F20" stroke-width="0.75" stroke-miterlimit="10" x1="167.76" y1="63" x2="174.85" y2="77.52"/>
	<line fill="none" stroke="#231F20" stroke-width="0.75" stroke-miterlimit="10" x1="164.17" y1="64.8" x2="171.5" y2="79.19"/>
	<line fill="none" stroke="#231F20" stroke-width="0.75" stroke-miterlimit="10" x1="160.6" y1="66.66" x2="168.19" y2="80.92"/>
	<line fill="none" stroke="#231F20" stroke-width="0.75" stroke-miterlimit="10" x1="157.07" y1="68.58" x2="164.9" y2="82.71"/>
	<line fill="none" stroke="#231F20" stroke-width="0.75" stroke-miterlimit="10" x1="150.11" y1="72.61" x2="158.43" y2="86.46"/>
	<line fill="none" stroke="#231F20" stroke-width="0.75" stroke-miterlimit="10" x1="146.69" y1="74.72" x2="155.25" y2="88.41"/>
	<line fill="none" stroke="#231F20" stroke-width="0.75" stroke-miterlimit="10" x1="143.3" y1="76.88" x2="152.1" y2="90.43"/>
	<line fill="none" stroke="#231F20" stroke-width="0.75" stroke-miterlimit="10" x1="139.95" y1="79.1" x2="148.98" y2="92.5"/>
	<line fill="none" stroke="#231F20" stroke-width="0.75" stroke-miterlimit="10" x1="133.37" y1="83.73" x2="142.86" y2="96.79"/>
	<line fill="none" stroke="#231F20" stroke-width="0.75" stroke-miterlimit="10" x1="130.14" y1="86.12" x2="139.86" y2="99.02"/>
	<line fill="none" stroke="#231F20" stroke-width="0.75" stroke-miterlimit="10" x1="126.95" y1="88.57" x2="136.89" y2="101.3"/>
	<line fill="none" stroke="#231F20" stroke-width="0.75" stroke-miterlimit="10" x1="123.81" y1="91.08" x2="133.97" y2="103.63"/>
	<line fill="none" stroke="#231F20" stroke-width="0.75" stroke-miterlimit="10" x1="117.65" y1="96.25" x2="128.25" y2="108.44"/>
	<line fill="none" stroke="#231F20" stroke-width="0.75" stroke-miterlimit="10" x1="114.64" y1="98.92" x2="125.45" y2="110.93"/>
	<line fill="none" stroke="#231F20" stroke-width="0.75" stroke-miterlimit="10" x1="111.68" y1="101.64" x2="122.7" y2="113.45"/>
	<line fill="none" stroke="#231F20" stroke-width="0.75" stroke-miterlimit="10" x1="108.77" y1="104.41" x2="119.99" y2="116.03"/>
	<line fill="none" stroke="#231F20" stroke-width="0.75" stroke-miterlimit="10" x1="103.09" y1="110.11" x2="114.71" y2="121.33"/>
	<line fill="none" stroke="#231F20" stroke-width="0.75" stroke-miterlimit="10" x1="100.32" y1="113.03" x2="112.14" y2="124.04"/>
	<line fill="none" stroke="#231F20" stroke-width="0.75" stroke-miterlimit="10" x1="97.61" y1="115.99" x2="109.62" y2="126.8"/>
	<line fill="none" stroke="#231F20" stroke-width="0.75" stroke-miterlimit="10" x1="94.95" y1="119.01" x2="107.14" y2="129.6"/>
	<line fill="none" stroke="#231F20" stroke-width="0.75" stroke-miterlimit="10" x1="89.79" y1="125.17" x2="102.34" y2="135.34"/>
	<line fill="none" stroke="#231F20" stroke-width="0.75" stroke-miterlimit="10" x1="87.29" y1="128.32" x2="100.02" y2="138.27"/>
	<line fill="none" stroke="#231F20" stroke-width="0.75" stroke-miterlimit="10" x1="84.85" y1="131.52" x2="97.75" y2="141.24"/>
	<line fill="none" stroke="#231F20" stroke-width="0.75" stroke-miterlimit="10" x1="82.46" y1="134.75" x2="95.53" y2="144.25"/>
	<line fill="none" stroke="#231F20" stroke-width="0.75" stroke-miterlimit="10" x1="77.85" y1="141.34" x2="91.24" y2="150.38"/>
	<line fill="none" stroke="#231F20" stroke-width="0.75" stroke-miterlimit="10" x1="75.64" y1="144.7" x2="89.18" y2="153.5"/>
	<line fill="none" stroke="#231F20" stroke-width="0.75" stroke-miterlimit="10" x1="73.48" y1="148.09" x2="87.18" y2="156.65"/>
	<line fill="none" stroke="#231F20" stroke-width="0.75" stroke-miterlimit="10" x1="71.38" y1="151.52" x2="85.23" y2="159.84"/>
	<line fill="none" stroke="#231F20" stroke-width="0.75" stroke-miterlimit="10" x1="67.37" y1="158.49" x2="81.5" y2="166.32"/>
	<line fill="none" stroke="#231F20" stroke-width="0.75" stroke-miterlimit="10" x1="65.46" y1="162.03" x2="79.72" y2="169.61"/>
	<line fill="none" stroke="#231F20" stroke-width="0.75" stroke-miterlimit="10" x1="63.61" y1="165.6" x2="78" y2="172.93"/>
	<line fill="none" stroke="#231F20" stroke-width="0.75" stroke-miterlimit="10" x1="61.82" y1="169.2" x2="76.33" y2="176.28"/>
	<line fill="none" stroke="#231F20" stroke-width="0.75" stroke-miterlimit="10" x1="58.43" y1="176.49" x2="73.18" y2="183.06"/>
	<line fill="none" stroke="#231F20" stroke-width="0.75" stroke-miterlimit="10" x1="56.83" y1="180.18" x2="71.69" y2="186.49"/>
	<line fill="none" stroke="#231F20" stroke-width="0.75" stroke-miterlimit="10" x1="55.29" y1="183.9" x2="70.27" y2="189.95"/>
	<line fill="none" stroke="#231F20" stroke-width="0.75" stroke-miterlimit="10" x1="53.82" y1="187.64" x2="68.9" y2="193.43"/>
	<line fill="none" stroke="#231F20" stroke-width="0.75" stroke-miterlimit="10" x1="51.08" y1="195.2" x2="66.35" y2="200.46"/>
	<line fill="none" stroke="#231F20" stroke-width="0.75" stroke-miterlimit="10" x1="49.81" y1="199.01" x2="65.17" y2="204.01"/>
	<line fill="none" stroke="#231F20" stroke-width="0.75" stroke-miterlimit="10" x1="48.61" y1="202.85" x2="64.05" y2="207.57"/>
	<line fill="none" stroke="#231F20" stroke-width="0.75" stroke-miterlimit="10" x1="47.47" y1="206.7" x2="62.99" y2="211.16"/>
	<line fill="none" stroke="#231F20" stroke-width="0.75" stroke-miterlimit="10" x1="45.39" y1="214.48" x2="61.07" y2="218.38"/>
	<line fill="none" stroke="#231F20" stroke-width="0.75" stroke-miterlimit="10" x1="44.46" y1="218.39" x2="60.2" y2="222.02"/>
	<line fill="none" stroke="#231F20" stroke-width="0.75" stroke-miterlimit="10" x1="43.59" y1="222.31" x2="59.39" y2="225.67"/>
	<line fill="none" stroke="#231F20" stroke-width="0.75" stroke-miterlimit="10" x1="42.8" y1="226.25" x2="58.65" y2="229.34"/>
	<line fill="none" stroke="#231F20" stroke-width="0.75" stroke-miterlimit="10" x1="41.41" y1="234.18" x2="57.36" y2="236.7"/>
	<line fill="none" stroke="#231F20" stroke-width="0.75" stroke-miterlimit="10" x1="40.82" y1="238.15" x2="56.82" y2="240.4"/>
	<line fill="none" stroke="#231F20" stroke-width="0.75" stroke-miterlimit="10" x1="40.3" y1="242.14" x2="56.33" y2="244.11"/>
	<line fill="none" stroke="#231F20" stroke-width="0.75" stroke-miterlimit="10" x1="39.85" y1="246.14" x2="55.91" y2="247.82"/>
	<line fill="none" stroke="#231F20" stroke-width="0.75" stroke-miterlimit="10" x1="39.16" y1="254.15" x2="55.27" y2="255.27"/>
	<line fill="none" stroke="#231F20" stroke-width="0.75" stroke-miterlimit="10" x1="38.92" y1="258.16" x2="55.05" y2="259.01"/>
	<line fill="none" stroke="#231F20" stroke-width="0.75" stroke-miterlimit="10" x1="38.75" y1="262.18" x2="54.89" y2="262.74"/>
	<line fill="none" stroke="#231F20" stroke-width="0.75" stroke-miterlimit="10" x1="38.65" y1="266.2" x2="54.8" y2="266.48"/>
	<line fill="none" stroke="#231F20" stroke-width="0.75" stroke-miterlimit="10" x1="38.66" y1="274.24" x2="54.81" y2="273.96"/>
	<line fill="none" stroke="#231F20" stroke-width="0.75" stroke-miterlimit="10" x1="38.77" y1="278.26" x2="54.91" y2="277.7"/>
	<line fill="none" stroke="#231F20" stroke-width="0.75" stroke-miterlimit="10" x1="38.94" y1="282.28" x2="55.08" y2="281.43"/>
	<line fill="none" stroke="#231F20" stroke-width="0.75" stroke-miterlimit="10" x1="39.19" y1="286.29" x2="55.31" y2="285.16"/>
	<line fill="none" stroke="#231F20" stroke-width="0.75" stroke-miterlimit="10" x1="39.9" y1="294.3" x2="55.97" y2="292.61"/>
	<line fill="none" stroke="#231F20" stroke-width="0.75" stroke-miterlimit="10" x1="40.36" y1="298.3" x2="56.4" y2="296.33"/>
	<line fill="none" stroke="#231F20" stroke-width="0.75" stroke-miterlimit="10" x1="40.89" y1="302.28" x2="56.89" y2="300.03"/>
	<line fill="none" stroke="#231F20" stroke-width="0.75" stroke-miterlimit="10" x1="41.49" y1="306.26" x2="57.45" y2="303.73"/>
	<line fill="none" stroke="#231F20" stroke-width="0.75" stroke-miterlimit="10" x1="42.9" y1="314.17" x2="58.76" y2="311.09"/>
	<line fill="none" stroke="#231F20" stroke-width="0.75" stroke-miterlimit="10" x1="43.7" y1="318.11" x2="59.51" y2="314.75"/>
	<line fill="none" stroke="#231F20" stroke-width="0.75" stroke-miterlimit="10" x1="44.58" y1="322.04" x2="60.32" y2="318.41"/>
	<line fill="none" stroke="#231F20" stroke-width="0.75" stroke-miterlimit="10" x1="45.52" y1="325.95" x2="61.2" y2="322.04"/>
	<line fill="none" stroke="#231F20" stroke-width="0.75" stroke-miterlimit="10" x1="47.61" y1="333.71" x2="63.14" y2="329.26"/>
	<line fill="none" stroke="#231F20" stroke-width="0.75" stroke-miterlimit="10" x1="48.76" y1="337.57" x2="64.21" y2="332.84"/>
	<line fill="none" stroke="#231F20" stroke-width="0.75" stroke-miterlimit="10" x1="49.97" y1="341.4" x2="65.34" y2="336.41"/>
	<line fill="none" stroke="#231F20" stroke-width="0.75" stroke-miterlimit="10" x1="51.25" y1="345.21" x2="66.53" y2="339.95"/>
	<line fill="none" stroke="#231F20" stroke-width="0.75" stroke-miterlimit="10" x1="54.01" y1="352.76" x2="69.09" y2="346.98"/>
	<line fill="none" stroke="#231F20" stroke-width="0.75" stroke-miterlimit="10" x1="55.49" y1="356.5" x2="70.47" y2="350.45"/>
	<line fill="none" stroke="#231F20" stroke-width="0.75" stroke-miterlimit="10" x1="57.03" y1="360.22" x2="71.9" y2="353.91"/>
	<line fill="none" stroke="#231F20" stroke-width="0.75" stroke-miterlimit="10" x1="58.64" y1="363.9" x2="73.4" y2="357.33"/>
	<line fill="none" stroke="#231F20" stroke-width="0.75" stroke-miterlimit="10" x1="62.05" y1="371.19" x2="76.57" y2="364.1"/>
	<line fill="none" stroke="#231F20" stroke-width="0.75" stroke-miterlimit="10" x1="63.85" y1="374.79" x2="78.24" y2="367.45"/>
	<line fill="none" stroke="#231F20" stroke-width="0.75" stroke-miterlimit="10" x1="65.71" y1="378.35" x2="79.97" y2="370.76"/>
	<line fill="none" stroke="#231F20" stroke-width="0.75" stroke-miterlimit="10" x1="67.63" y1="381.88" x2="81.76" y2="374.05"/>
	<line fill="none" stroke="#231F20" stroke-width="0.75" stroke-miterlimit="10" x1="71.66" y1="388.84" x2="85.5" y2="380.52"/>
	<line fill="none" stroke="#231F20" stroke-width="0.75" stroke-miterlimit="10" x1="73.76" y1="392.27" x2="87.46" y2="383.7"/>
	<line fill="none" stroke="#231F20" stroke-width="0.75" stroke-miterlimit="10" x1="75.93" y1="395.66" x2="89.47" y2="386.85"/>
	<line fill="none" stroke="#231F20" stroke-width="0.75" stroke-miterlimit="10" x1="78.15" y1="399.01" x2="91.54" y2="389.97"/>
	<line fill="none" stroke="#231F20" stroke-width="0.75" stroke-miterlimit="10" x1="82.77" y1="405.59" x2="95.84" y2="396.09"/>
	<line fill="none" stroke="#231F20" stroke-width="0.75" stroke-miterlimit="10" x1="85.17" y1="408.82" x2="98.07" y2="399.09"/>
	<line fill="none" stroke="#231F20" stroke-width="0.75" stroke-miterlimit="10" x1="87.62" y1="412.01" x2="100.35" y2="402.06"/>
	<line fill="none" stroke="#231F20" stroke-width="0.75" stroke-miterlimit="10" x1="90.13" y1="415.15" x2="102.68" y2="404.98"/>
	<line fill="none" stroke="#231F20" stroke-width="0.75" stroke-miterlimit="10" x1="95.3" y1="421.3" x2="107.49" y2="410.7"/>
	<line fill="none" stroke="#231F20" stroke-width="0.75" stroke-miterlimit="10" x1="97.97" y1="424.31" x2="109.97" y2="413.5"/>
	<line fill="none" stroke="#231F20" stroke-width="0.75" stroke-miterlimit="10" x1="100.69" y1="427.27" x2="112.5" y2="416.25"/>
	<line fill="none" stroke="#231F20" stroke-width="0.75" stroke-miterlimit="10" x1="103.46" y1="430.19" x2="115.08" y2="418.96"/>
	<line fill="none" stroke="#231F20" stroke-width="0.75" stroke-miterlimit="10" x1="109.15" y1="435.87" x2="120.37" y2="424.24"/>
	<line fill="none" stroke="#231F20" stroke-width="0.75" stroke-miterlimit="10" x1="112.07" y1="438.63" x2="123.09" y2="426.81"/>
	<line fill="none" stroke="#231F20" stroke-width="0.75" stroke-miterlimit="10" x1="115.04" y1="441.34" x2="125.85" y2="429.33"/>
	<line fill="none" stroke="#231F20" stroke-width="0.75" stroke-miterlimit="10" x1="118.06" y1="444" x2="128.65" y2="431.81"/>
	<line fill="none" stroke="#231F20" stroke-width="0.75" stroke-miterlimit="10" x1="124.22" y1="449.16" x2="134.39" y2="436.61"/>
	<line fill="none" stroke="#231F20" stroke-width="0.75" stroke-miterlimit="10" x1="127.37" y1="451.66" x2="137.31" y2="438.93"/>
	<line fill="none" stroke="#231F20" stroke-width="0.75" stroke-miterlimit="10" x1="130.56" y1="454.11" x2="140.28" y2="441.2"/>
	<line fill="none" stroke="#231F20" stroke-width="0.75" stroke-miterlimit="10" x1="133.8" y1="456.5" x2="143.29" y2="443.42"/>
	<line fill="none" stroke="#231F20" stroke-width="0.75" stroke-miterlimit="10" x1="140.39" y1="461.1" x2="149.42" y2="447.7"/>
	<line fill="none" stroke="#231F20" stroke-width="0.75" stroke-miterlimit="10" x1="143.75" y1="463.32" x2="152.54" y2="449.76"/>
	<line fill="none" stroke="#231F20" stroke-width="0.75" stroke-miterlimit="10" x1="147.14" y1="465.47" x2="155.7" y2="451.77"/>
	<line fill="none" stroke="#231F20" stroke-width="0.75" stroke-miterlimit="10" x1="150.57" y1="467.57" x2="158.89" y2="453.72"/>
	<line fill="none" stroke="#231F20" stroke-width="0.75" stroke-miterlimit="10" x1="157.54" y1="471.58" x2="165.37" y2="457.45"/>
	<line fill="none" stroke="#231F20" stroke-width="0.75" stroke-miterlimit="10" x1="161.08" y1="473.5" x2="168.66" y2="459.23"/>
	<line fill="none" stroke="#231F20" stroke-width="0.75" stroke-miterlimit="10" x1="164.65" y1="475.35" x2="171.98" y2="460.95"/>
	<line fill="none" stroke="#231F20" stroke-width="0.75" stroke-miterlimit="10" x1="168.25" y1="477.14" x2="175.33" y2="462.61"/>
	<line fill="none" stroke="#231F20" stroke-width="0.75" stroke-miterlimit="10" x1="175.54" y1="480.53" x2="182.11" y2="465.77"/>
	<line fill="none" stroke="#231F20" stroke-width="0.75" stroke-miterlimit="10" x1="179.23" y1="482.13" x2="185.54" y2="467.25"/>
	<line fill="none" stroke="#231F20" stroke-width="0.75" stroke-miterlimit="10" x1="182.95" y1="483.66" x2="188.99" y2="468.68"/>
	<line fill="none" stroke="#231F20" stroke-width="0.75" stroke-miterlimit="10" x1="186.69" y1="485.13" x2="192.47" y2="470.05"/>
	<line fill="none" stroke="#231F20" stroke-width="0.75" stroke-miterlimit="10" x1="194.25" y1="487.87" x2="199.5" y2="472.59"/>
	<line fill="none" stroke="#231F20" stroke-width="0.75" stroke-miterlimit="10" x1="198.06" y1="489.14" x2="203.05" y2="473.78"/>
	<line fill="none" stroke="#231F20" stroke-width="0.75" stroke-miterlimit="10" x1="201.9" y1="490.35" x2="206.62" y2="474.9"/>
	<line fill="none" stroke="#231F20" stroke-width="0.75" stroke-miterlimit="10" x1="205.76" y1="491.49" x2="210.2" y2="475.95"/>
	<line fill="none" stroke="#231F20" stroke-width="0.75" stroke-miterlimit="10" x1="213.53" y1="493.56" x2="217.43" y2="477.88"/>
	<line fill="none" stroke="#231F20" stroke-width="0.75" stroke-miterlimit="10" x1="217.44" y1="494.49" x2="221.07" y2="478.75"/>
	<line fill="none" stroke="#231F20" stroke-width="0.75" stroke-miterlimit="10" x1="221.36" y1="495.36" x2="224.72" y2="479.55"/>
	<line fill="none" stroke="#231F20" stroke-width="0.75" stroke-miterlimit="10" x1="225.31" y1="496.16" x2="228.38" y2="480.29"/>
	<line fill="none" stroke="#231F20" stroke-width="0.75" stroke-miterlimit="10" x1="233.23" y1="497.54" x2="235.75" y2="481.58"/>
	<line fill="none" stroke="#231F20" stroke-width="0.75" stroke-miterlimit="10" x1="237.21" y1="498.13" x2="239.45" y2="482.13"/>
	<line fill="none" stroke="#231F20" stroke-width="0.75" stroke-miterlimit="10" x1="241.19" y1="498.65" x2="243.15" y2="482.61"/>
	<line fill="none" stroke="#231F20" stroke-width="0.75" stroke-miterlimit="10" x1="245.19" y1="499.1" x2="246.87" y2="483.03"/>
	<line fill="none" stroke="#231F20" stroke-width="0.75" stroke-miterlimit="10" x1="253.2" y1="499.79" x2="254.32" y2="483.67"/>
	<line fill="none" stroke="#231F20" stroke-width="0.75" stroke-miterlimit="10" x1="257.21" y1="500.04" x2="258.05" y2="483.9"/>
	<line fill="none" stroke="#231F20" stroke-width="0.75" stroke-miterlimit="10" x1="261.23" y1="500.2" x2="261.79" y2="484.06"/>
	<line fill="none" stroke="#231F20" stroke-width="0.75" stroke-miterlimit="10" x1="265.25" y1="500.31" x2="265.52" y2="484.15"/>
	<line fill="none" stroke="#231F20" stroke-width="0.75" stroke-miterlimit="10" x1="273.29" y1="500.29" x2="273" y2="484.14"/>
	<line fill="none" stroke="#231F20" stroke-width="0.75" stroke-miterlimit="10" x1="277.31" y1="500.18" x2="276.74" y2="484.04"/>
	<line fill="none" stroke="#231F20" stroke-width="0.75" stroke-miterlimit="10" x1="281.33" y1="500.01" x2="280.47" y2="483.87"/>
	<line fill="none" stroke="#231F20" stroke-width="0.75" stroke-miterlimit="10" x1="285.34" y1="499.75" x2="284.21" y2="483.64"/>
	<line fill="none" stroke="#231F20" stroke-width="0.75" stroke-miterlimit="10" x1="293.35" y1="499.04" x2="291.65" y2="482.98"/>
	<line fill="none" stroke="#231F20" stroke-width="0.75" stroke-miterlimit="10" x1="297.35" y1="498.58" x2="295.37" y2="482.55"/>
	<line fill="none" stroke="#231F20" stroke-width="0.75" stroke-miterlimit="10" x1="301.33" y1="498.05" x2="299.07" y2="482.06"/>
	<line fill="none" stroke="#231F20" stroke-width="0.75" stroke-miterlimit="10" x1="305.31" y1="497.46" x2="302.77" y2="481.5"/>
	<line fill="none" stroke="#231F20" stroke-width="0.75" stroke-miterlimit="10" x1="313.22" y1="496.05" x2="310.13" y2="480.19"/>
	<line fill="none" stroke="#231F20" stroke-width="0.75" stroke-miterlimit="10" x1="317.16" y1="495.25" x2="313.8" y2="479.44"/>
	<line fill="none" stroke="#231F20" stroke-width="0.75" stroke-miterlimit="10" x1="321.09" y1="494.37" x2="317.45" y2="478.63"/>
	<line fill="none" stroke="#231F20" stroke-width="0.75" stroke-miterlimit="10" x1="325" y1="493.43" x2="321.08" y2="477.75"/>
	<line fill="none" stroke="#231F20" stroke-width="0.75" stroke-miterlimit="10" x1="332.76" y1="491.33" x2="328.3" y2="475.81"/>
	<line fill="none" stroke="#231F20" stroke-width="0.75" stroke-miterlimit="10" x1="336.62" y1="490.19" x2="331.88" y2="474.74"/>
	<line fill="none" stroke="#231F20" stroke-width="0.75" stroke-miterlimit="10" x1="340.45" y1="488.98" x2="335.45" y2="473.61"/>
	<line fill="none" stroke="#231F20" stroke-width="0.75" stroke-miterlimit="10" x1="344.26" y1="487.7" x2="338.99" y2="472.42"/>
	<line fill="none" stroke="#231F20" stroke-width="0.75" stroke-miterlimit="10" x1="351.82" y1="484.94" x2="346.02" y2="469.85"/>
	<line fill="none" stroke="#231F20" stroke-width="0.75" stroke-miterlimit="10" x1="355.55" y1="483.46" x2="349.49" y2="468.48"/>
	<line fill="none" stroke="#231F20" stroke-width="0.75" stroke-miterlimit="10" x1="359.27" y1="481.91" x2="352.95" y2="467.04"/>
	<line fill="none" stroke="#231F20" stroke-width="0.75" stroke-miterlimit="10" x1="362.96" y1="480.31" x2="356.37" y2="465.55"/>
	<line fill="none" stroke="#231F20" stroke-width="0.75" stroke-miterlimit="10" x1="370.24" y1="476.9" x2="363.15" y2="462.38"/>
	<line fill="none" stroke="#231F20" stroke-width="0.75" stroke-miterlimit="10" x1="373.84" y1="475.1" x2="366.49" y2="460.71"/>
	<line fill="none" stroke="#231F20" stroke-width="0.75" stroke-miterlimit="10" x1="377.4" y1="473.24" x2="369.8" y2="458.98"/>
	<line fill="none" stroke="#231F20" stroke-width="0.75" stroke-miterlimit="10" x1="380.93" y1="471.32" x2="373.09" y2="457.19"/>
	<line fill="none" stroke="#231F20" stroke-width="0.75" stroke-miterlimit="10" x1="387.89" y1="467.29" x2="379.56" y2="453.44"/>
	<line fill="none" stroke="#231F20" stroke-width="0.75" stroke-miterlimit="10" x1="391.32" y1="465.18" x2="382.75" y2="451.49"/>
	<line fill="none" stroke="#231F20" stroke-width="0.75" stroke-miterlimit="10" x1="394.71" y1="463.02" x2="385.9" y2="449.47"/>
	<line fill="none" stroke="#231F20" stroke-width="0.75" stroke-miterlimit="10" x1="398.06" y1="460.8" x2="389.01" y2="447.4"/>
	<line fill="none" stroke="#231F20" stroke-width="0.75" stroke-miterlimit="10" x1="404.64" y1="456.17" x2="395.13" y2="443.11"/>
	<line fill="none" stroke="#231F20" stroke-width="0.75" stroke-miterlimit="10" x1="407.87" y1="453.78" x2="398.13" y2="440.88"/>
	<line fill="none" stroke="#231F20" stroke-width="0.75" stroke-miterlimit="10" x1="411.06" y1="451.33" x2="401.1" y2="438.6"/>
	<line fill="none" stroke="#231F20" stroke-width="0.75" stroke-miterlimit="10" x1="414.2" y1="448.82" x2="404.02" y2="436.27"/>
	<line fill="none" stroke="#231F20" stroke-width="0.75" stroke-miterlimit="10" x1="420.35" y1="443.64" x2="409.74" y2="431.45"/>
	<line fill="none" stroke="#231F20" stroke-width="0.75" stroke-miterlimit="10" x1="423.36" y1="440.98" x2="412.54" y2="428.98"/>
	<line fill="none" stroke="#231F20" stroke-width="0.75" stroke-miterlimit="10" x1="426.32" y1="438.26" x2="415.29" y2="426.45"/>
	<line fill="none" stroke="#231F20" stroke-width="0.75" stroke-miterlimit="10" x1="429.24" y1="435.49" x2="418" y2="423.87"/>
	<line fill="none" stroke="#231F20" stroke-width="0.75" stroke-miterlimit="10" x1="434.92" y1="429.79" x2="423.28" y2="418.57"/>
	<line fill="none" stroke="#231F20" stroke-width="0.75" stroke-miterlimit="10" x1="437.68" y1="426.87" x2="425.85" y2="415.86"/>
	<line fill="none" stroke="#231F20" stroke-width="0.75" stroke-miterlimit="10" x1="440.39" y1="423.91" x2="428.38" y2="413.1"/>
	<line fill="none" stroke="#231F20" stroke-width="0.75" stroke-miterlimit="10" x1="443.05" y1="420.89" x2="430.85" y2="410.29"/>
	<line fill="none" stroke="#231F20" stroke-width="0.75" stroke-miterlimit="10" x1="448.21" y1="414.72" x2="435.65" y2="404.56"/>
	<line fill="none" stroke="#231F20" stroke-width="0.75" stroke-miterlimit="10" x1="450.72" y1="411.57" x2="437.97" y2="401.63"/>
	<line fill="none" stroke="#231F20" stroke-width="0.75" stroke-miterlimit="10" x1="453.16" y1="408.38" x2="440.25" y2="398.66"/>
	<line fill="none" stroke="#231F20" stroke-width="0.75" stroke-miterlimit="10" x1="455.55" y1="405.15" x2="442.46" y2="395.66"/>
	<line fill="none" stroke="#231F20" stroke-width="0.75" stroke-miterlimit="10" x1="460.15" y1="398.55" x2="446.75" y2="389.53"/>
	<line fill="none" stroke="#231F20" stroke-width="0.75" stroke-miterlimit="10" x1="462.37" y1="395.2" x2="448.8" y2="386.41"/>
	<line fill="none" stroke="#231F20" stroke-width="0.75" stroke-miterlimit="10" x1="464.52" y1="391.8" x2="450.81" y2="383.25"/>
	<line fill="none" stroke="#231F20" stroke-width="0.75" stroke-miterlimit="10" x1="466.62" y1="388.37" x2="452.76" y2="380.06"/>
	<line fill="none" stroke="#231F20" stroke-width="0.75" stroke-miterlimit="10" x1="470.63" y1="381.4" x2="456.49" y2="373.58"/>
	<line fill="none" stroke="#231F20" stroke-width="0.75" stroke-miterlimit="10" x1="472.55" y1="377.87" x2="458.27" y2="370.29"/>
	<line fill="none" stroke="#231F20" stroke-width="0.75" stroke-miterlimit="10" x1="474.4" y1="374.3" x2="459.99" y2="366.97"/>
	<line fill="none" stroke="#231F20" stroke-width="0.75" stroke-miterlimit="10" x1="476.19" y1="370.7" x2="461.66" y2="363.62"/>
	<line fill="none" stroke="#231F20" stroke-width="0.75" stroke-miterlimit="10" x1="479.58" y1="363.41" x2="464.81" y2="356.84"/>
	<line fill="none" stroke="#231F20" stroke-width="0.75" stroke-miterlimit="10" x1="481.18" y1="359.72" x2="466.3" y2="353.41"/>
	<line fill="none" stroke="#231F20" stroke-width="0.75" stroke-miterlimit="10" x1="482.71" y1="356" x2="467.72" y2="349.96"/>
	<line fill="none" stroke="#231F20" stroke-width="0.75" stroke-miterlimit="10" x1="484.18" y1="352.26" x2="469.09" y2="346.48"/>
	<line fill="none" stroke="#231F20" stroke-width="0.75" stroke-miterlimit="10" x1="486.92" y1="344.7" x2="471.63" y2="339.45"/>
	<line fill="none" stroke="#231F20" stroke-width="0.75" stroke-miterlimit="10" x1="488.19" y1="340.88" x2="472.82" y2="335.9"/>
	<line fill="none" stroke="#231F20" stroke-width="0.75" stroke-miterlimit="10" x1="489.4" y1="337.05" x2="473.94" y2="332.33"/>
	<line fill="none" stroke="#231F20" stroke-width="0.75" stroke-miterlimit="10" x1="490.54" y1="333.19" x2="475" y2="328.75"/>
	<line fill="none" stroke="#231F20" stroke-width="0.75" stroke-miterlimit="10" x1="492.61" y1="325.42" x2="476.92" y2="321.52"/>
	<line fill="none" stroke="#231F20" stroke-width="0.75" stroke-miterlimit="10" x1="493.54" y1="321.51" x2="477.79" y2="317.88"/>
	<line fill="none" stroke="#231F20" stroke-width="0.75" stroke-miterlimit="10" x1="494.41" y1="317.58" x2="478.59" y2="314.23"/>
	<line fill="none" stroke="#231F20" stroke-width="0.75" stroke-miterlimit="10" x1="495.21" y1="313.64" x2="479.34" y2="310.57"/>
	<line fill="none" stroke="#231F20" stroke-width="0.75" stroke-miterlimit="10" x1="496.59" y1="305.72" x2="480.62" y2="303.2"/>
	<line fill="none" stroke="#231F20" stroke-width="0.75" stroke-miterlimit="10" x1="497.18" y1="301.75" x2="481.17" y2="299.5"/>
	<line fill="none" stroke="#231F20" stroke-width="0.75" stroke-miterlimit="10" x1="497.7" y1="297.76" x2="481.65" y2="295.8"/>
	<line fill="none" stroke="#231F20" stroke-width="0.75" stroke-miterlimit="10" x1="498.15" y1="293.76" x2="482.07" y2="292.08"/>
	<line fill="none" stroke="#231F20" stroke-width="0.75" stroke-miterlimit="10" x1="498.84" y1="285.75" x2="482.71" y2="284.63"/>
	<line fill="none" stroke="#231F20" stroke-width="0.75" stroke-miterlimit="10" x1="499.08" y1="281.74" x2="482.94" y2="280.9"/>
	<line fill="none" stroke="#231F20" stroke-width="0.75" stroke-miterlimit="10" x1="499.26" y1="277.72" x2="483.1" y2="277.16"/>
	<line fill="none" stroke="#231F20" stroke-width="0.75" stroke-miterlimit="10" x1="499.36" y1="273.7" x2="483.19" y2="273.43"/>
	<line fill="none" stroke="#231F20" stroke-width="0.75" stroke-miterlimit="10" x1="499.35" y1="265.66" x2="483.18" y2="265.95"/>
	<line fill="none" stroke="#231F20" stroke-width="0.75" stroke-miterlimit="10" x1="499.24" y1="261.64" x2="483.08" y2="262.21"/>
	<line fill="none" stroke="#231F20" stroke-width="0.75" stroke-miterlimit="10" x1="499.06" y1="257.62" x2="482.91" y2="258.48"/>
	<line fill="none" stroke="#231F20" stroke-width="0.75" stroke-miterlimit="10" x1="498.81" y1="253.61" x2="482.68" y2="254.75"/>
	<line fill="none" stroke="#231F20" stroke-width="0.75" stroke-miterlimit="10" x1="498.1" y1="245.6" x2="482.02" y2="247.3"/>
	<line fill="none" stroke="#231F20" stroke-width="0.75" stroke-miterlimit="10" x1="497.64" y1="241.61" x2="481.59" y2="243.58"/>
	<line fill="none" stroke="#231F20" stroke-width="0.75" stroke-miterlimit="10" x1="497.11" y1="237.62" x2="481.1" y2="239.88"/>
	<line fill="none" stroke="#231F20" stroke-width="0.75" stroke-miterlimit="10" x1="496.51" y1="233.64" x2="480.54" y2="236.18"/>
	<line fill="none" stroke="#231F20" stroke-width="0.75" stroke-miterlimit="10" x1="495.1" y1="225.73" x2="479.23" y2="228.82"/>
	<line fill="none" stroke="#231F20" stroke-width="0.75" stroke-miterlimit="10" x1="494.3" y1="221.79" x2="478.48" y2="225.16"/>
	<line fill="none" stroke="#231F20" stroke-width="0.75" stroke-miterlimit="10" x1="493.42" y1="217.86" x2="477.67" y2="221.51"/>
	<line fill="none" stroke="#231F20" stroke-width="0.75" stroke-miterlimit="10" x1="492.48" y1="213.95" x2="476.79" y2="217.87"/>
	<line fill="none" stroke="#231F20" stroke-width="0.75" stroke-miterlimit="10" x1="490.39" y1="206.19" x2="474.85" y2="210.65"/>
	<line fill="none" stroke="#231F20" stroke-width="0.75" stroke-miterlimit="10" x1="489.24" y1="202.33" x2="473.78" y2="207.07"/>
	<line fill="none" stroke="#231F20" stroke-width="0.75" stroke-miterlimit="10" x1="488.03" y1="198.5" x2="472.65" y2="203.5"/>
	<line fill="none" stroke="#231F20" stroke-width="0.75" stroke-miterlimit="10" x1="486.75" y1="194.69" x2="471.46" y2="199.96"/>
	<line fill="none" stroke="#231F20" stroke-width="0.75" stroke-miterlimit="10" x1="483.99" y1="187.14" x2="468.9" y2="192.94"/>
	<line fill="none" stroke="#231F20" stroke-width="0.75" stroke-miterlimit="10" x1="482.51" y1="183.4" x2="467.52" y2="189.46"/>
	<line fill="none" stroke="#231F20" stroke-width="0.75" stroke-miterlimit="10" x1="480.97" y1="179.68" x2="466.09" y2="186.01"/>
	<line fill="none" stroke="#231F20" stroke-width="0.75" stroke-miterlimit="10" x1="479.36" y1="176" x2="464.59" y2="182.58"/>
	<line fill="none" stroke="#231F20" stroke-width="0.75" stroke-miterlimit="10" x1="475.95" y1="168.71" x2="461.42" y2="175.81"/>
	<line fill="none" stroke="#231F20" stroke-width="0.75" stroke-miterlimit="10" x1="474.15" y1="165.12" x2="459.75" y2="172.46"/>
	<line fill="none" stroke="#231F20" stroke-width="0.75" stroke-miterlimit="10" x1="472.29" y1="161.55" x2="458.02" y2="169.15"/>
	<line fill="none" stroke="#231F20" stroke-width="0.75" stroke-miterlimit="10" x1="470.37" y1="158.02" x2="456.23" y2="165.87"/>
	<line fill="none" stroke="#231F20" stroke-width="0.75" stroke-miterlimit="10" x1="466.34" y1="151.06" x2="452.48" y2="159.4"/>
	<line fill="none" stroke="#231F20" stroke-width="0.75" stroke-miterlimit="10" x1="464.24" y1="147.64" x2="450.53" y2="156.21"/>
	<line fill="none" stroke="#231F20" stroke-width="0.75" stroke-miterlimit="10" x1="462.07" y1="144.25" x2="448.51" y2="153.06"/>
	<line fill="none" stroke="#231F20" stroke-width="0.75" stroke-miterlimit="10" x1="459.85" y1="140.9" x2="446.45" y2="149.95"/>
	<line fill="none" stroke="#231F20" stroke-width="0.75" stroke-miterlimit="10" x1="455.23" y1="134.32" x2="442.15" y2="143.83"/>
	<line fill="none" stroke="#231F20" stroke-width="0.75" stroke-miterlimit="10" x1="452.84" y1="131.09" x2="439.92" y2="140.82"/>
	<line fill="none" stroke="#231F20" stroke-width="0.75" stroke-miterlimit="10" x1="450.38" y1="127.9" x2="437.64" y2="137.86"/>
	<line fill="none" stroke="#231F20" stroke-width="0.75" stroke-miterlimit="10" x1="447.88" y1="124.75" x2="435.31" y2="134.94"/>
	<line fill="none" stroke="#231F20" stroke-width="0.75" stroke-miterlimit="10" x1="442.7" y1="118.6" x2="430.5" y2="129.22"/>
	<line fill="none" stroke="#231F20" stroke-width="0.75" stroke-miterlimit="10" x1="440.03" y1="115.59" x2="428.02" y2="126.42"/>
	<line fill="none" stroke="#231F20" stroke-width="0.75" stroke-miterlimit="10" x1="437.31" y1="112.63" x2="425.49" y2="123.67"/>
	<line fill="none" stroke="#231F20" stroke-width="0.75" stroke-miterlimit="10" x1="434.54" y1="109.72" x2="422.91" y2="120.96"/>
	<line fill="none" stroke="#231F20" stroke-width="0.75" stroke-miterlimit="10" x1="428.85" y1="104.04" x2="417.62" y2="115.68"/>
	<line fill="none" stroke="#231F20" stroke-width="0.75" stroke-miterlimit="10" x1="425.93" y1="101.27" x2="414.9" y2="113.11"/>
	<line fill="none" stroke="#231F20" stroke-width="0.75" stroke-miterlimit="10" x1="422.96" y1="98.56" x2="412.14" y2="110.58"/>
	<line fill="none" stroke="#231F20" stroke-width="0.75" stroke-miterlimit="10" x1="419.94" y1="95.9" x2="409.34" y2="108.11"/>
	<line fill="none" stroke="#231F20" stroke-width="0.75" stroke-miterlimit="10" x1="413.78" y1="90.74" x2="403.61" y2="103.31"/>
	<line fill="none" stroke="#231F20" stroke-width="0.75" stroke-miterlimit="10" x1="410.63" y1="88.24" x2="400.68" y2="100.99"/>
	<line fill="none" stroke="#231F20" stroke-width="0.75" stroke-miterlimit="10" x1="407.44" y1="85.79" x2="397.71" y2="98.72"/>
	<line fill="none" stroke="#231F20" stroke-width="0.75" stroke-miterlimit="10" x1="404.2" y1="83.4" x2="394.7" y2="96.5"/>
	<line fill="none" stroke="#231F20" stroke-width="0.75" stroke-miterlimit="10" x1="397.61" y1="78.8" x2="388.57" y2="92.21"/>
	<line fill="none" stroke="#231F20" stroke-width="0.75" stroke-miterlimit="10" x1="394.25" y1="76.58" x2="385.45" y2="90.15"/>
	<line fill="none" stroke="#231F20" stroke-width="0.75" stroke-miterlimit="10" x1="390.86" y1="74.43" x2="382.3" y2="88.15"/>
	<line fill="none" stroke="#231F20" stroke-width="0.75" stroke-miterlimit="10" x1="387.43" y1="72.33" x2="379.11" y2="86.2"/>
	<line fill="none" stroke="#231F20" stroke-width="0.75" stroke-miterlimit="10" x1="380.46" y1="68.32" x2="372.63" y2="82.47"/>
	<line fill="none" stroke="#231F20" stroke-width="0.75" stroke-miterlimit="10" x1="376.92" y1="66.41" x2="369.34" y2="80.69"/>
	<line fill="none" stroke="#231F20" stroke-width="0.75" stroke-miterlimit="10" x1="373.35" y1="64.55" x2="366.02" y2="78.97"/>
	<line fill="none" stroke="#231F20" stroke-width="0.75" stroke-miterlimit="10" x1="369.75" y1="62.76" x2="362.67" y2="77.3"/>
	<line fill="none" stroke="#231F20" stroke-width="0.75" stroke-miterlimit="10" x1="362.46" y1="59.37" x2="355.89" y2="74.15"/>
	<line fill="none" stroke="#231F20" stroke-width="0.75" stroke-miterlimit="10" x1="358.77" y1="57.77" x2="352.46" y2="72.66"/>
	<line fill="none" stroke="#231F20" stroke-width="0.75" stroke-miterlimit="10" x1="355.06" y1="56.24" x2="349" y2="71.24"/>
	<line fill="none" stroke="#231F20" stroke-width="0.75" stroke-miterlimit="10" x1="351.31" y1="54.77" x2="345.52" y2="69.87"/>
	<line fill="none" stroke="#231F20" stroke-width="0.75" stroke-miterlimit="10" x1="343.75" y1="52.03" x2="338.49" y2="67.32"/>
	<line fill="none" stroke="#231F20" stroke-width="0.75" stroke-miterlimit="10" x1="339.94" y1="50.76" x2="334.95" y2="66.14"/>
	<line fill="none" stroke="#231F20" stroke-width="0.75" stroke-miterlimit="10" x1="336.1" y1="49.55" x2="331.38" y2="65.02"/>
	<line fill="none" stroke="#231F20" stroke-width="0.75" stroke-miterlimit="10" x1="332.25" y1="48.41" x2="327.79" y2="63.96"/>
	<line fill="none" stroke="#231F20" stroke-width="0.75" stroke-miterlimit="10" x1="324.48" y1="46.34" x2="320.57" y2="62.04"/>
	<line fill="none" stroke="#231F20" stroke-width="0.75" stroke-miterlimit="10" x1="320.57" y1="45.41" x2="316.93" y2="61.17"/>
	<line fill="none" stroke="#231F20" stroke-width="0.75" stroke-miterlimit="10" x1="316.64" y1="44.54" x2="313.28" y2="60.36"/>
	<line fill="none" stroke="#231F20" stroke-width="0.75" stroke-miterlimit="10" x1="312.7" y1="43.74" x2="309.62" y2="59.62"/>
	<line fill="none" stroke="#231F20" stroke-width="0.75" stroke-miterlimit="10" x1="304.78" y1="42.36" x2="302.25" y2="58.33"/>
	<line fill="none" stroke="#231F20" stroke-width="0.75" stroke-miterlimit="10" x1="300.8" y1="41.77" x2="298.55" y2="57.78"/>
	<line fill="none" stroke="#231F20" stroke-width="0.75" stroke-miterlimit="10" x1="296.81" y1="41.25" x2="294.85" y2="57.3"/>
	<line fill="none" stroke="#231F20" stroke-width="0.75" stroke-miterlimit="10" x1="292.82" y1="40.8" x2="291.13" y2="56.88"/>
	<line fill="none" stroke="#231F20" stroke-width="0.75" stroke-miterlimit="10" x1="284.81" y1="40.11" x2="283.68" y2="56.24"/>
	<line fill="none" stroke="#231F20" stroke-width="0.75" stroke-miterlimit="10" x1="280.79" y1="39.86" x2="279.95" y2="56.02"/>
	<line fill="none" stroke="#231F20" stroke-width="0.75" stroke-miterlimit="10" x1="276.78" y1="39.69" x2="276.22" y2="55.86"/>
	<line fill="none" stroke="#231F20" stroke-width="0.75" stroke-miterlimit="10" x1="272.76" y1="39.59" x2="272.48" y2="55.77"/>
</g>
<g id="Layer_3">
	<g enable-background="new    ">
		<path fill="#231F20" d="M44.17,135.5c1.16,0.67,2.15,1.46,2.97,2.36c0.51,0.54,0.86,1.11,1.06,1.66c0.2,0.55,0.31,1.11,0.29,1.66
			c-0.01,0.55-0.16,1.08-0.44,1.56c-0.32,0.56-0.76,0.98-1.31,1.27c-0.55,0.29-1.18,0.45-1.92,0.5c-0.54,0.03-1.17-0.05-1.93-0.24
			c-1.02-0.26-1.99-0.65-2.93-1.19c-1.27-0.73-2.33-1.57-3.18-2.54c-0.71-0.8-1.12-1.63-1.25-2.48c-0.12-0.87,0-1.63,0.39-2.29
			c0.39-0.68,0.99-1.17,1.78-1.49c0.8-0.32,1.67-0.39,2.6-0.22C41.63,134.29,42.91,134.77,44.17,135.5z M42.64,138.12
			c-2.04-1.17-3.23-1.85-3.58-2.02c-0.83-0.4-1.44-0.58-1.85-0.51c-0.27,0.04-0.49,0.21-0.68,0.53c-0.14,0.24-0.19,0.48-0.13,0.7
			c0.08,0.32,0.35,0.67,0.81,1.03c0.46,0.37,2.21,1.42,5.23,3.16c1.65,0.95,2.78,1.52,3.41,1.73c0.46,0.15,0.8,0.18,1.03,0.1
			c0.23-0.08,0.42-0.25,0.57-0.51c0.16-0.29,0.19-0.56,0.09-0.8c-0.18-0.43-0.59-0.85-1.24-1.27L42.64,138.12z"/>
	</g>
	<g enable-background="new    ">
		<path fill="#231F20" d="M14.94,182.11l10.32,3.75c0.77,0.28,1.28,0.42,1.52,0.44c0.24,0.01,0.46-0.07,0.68-0.24
			c0.21-0.17,0.41-0.49,0.58-0.97l0.11-0.28l0.34,0.13l-2.41,6.64l-0.34-0.13l0.12-0.33c0.2-0.54,0.28-0.95,0.23-1.22
			c-0.04-0.28-0.15-0.49-0.34-0.65c-0.19-0.15-0.68-0.38-1.47-0.67l-6.54-2.37c-0.58-0.21-0.96-0.32-1.12-0.31
			c-0.17,0.01-0.33,0.07-0.49,0.18c-0.16,0.12-0.27,0.27-0.34,0.47c-0.11,0.32-0.16,0.74-0.12,1.26l-0.4,0.05l-0.44-5.41
			L14.94,182.11z"/>
		<path fill="#231F20" d="M25.92,172.35c1.26,0.46,2.37,1.06,3.33,1.81c0.59,0.46,1.04,0.94,1.33,1.45
			c0.29,0.52,0.49,1.04,0.58,1.58c0.09,0.55,0.03,1.08-0.16,1.62c-0.22,0.61-0.58,1.1-1.06,1.48c-0.48,0.38-1.09,0.65-1.8,0.82
			c-0.52,0.12-1.17,0.16-1.94,0.1c-1.04-0.08-2.08-0.3-3.08-0.67c-1.37-0.5-2.56-1.15-3.56-1.95c-0.83-0.66-1.38-1.41-1.65-2.24
			c-0.27-0.83-0.28-1.6-0.01-2.32c0.26-0.74,0.76-1.33,1.5-1.78c0.74-0.45,1.57-0.68,2.52-0.67
			C23.2,171.59,24.55,171.85,25.92,172.35z M24.86,175.2c-2.21-0.8-3.5-1.26-3.87-1.37c-0.88-0.25-1.52-0.31-1.91-0.19
			c-0.26,0.08-0.45,0.3-0.57,0.64c-0.1,0.27-0.1,0.51-0.01,0.71c0.13,0.31,0.46,0.6,0.98,0.89c0.52,0.28,2.42,1.01,5.7,2.21
			c1.79,0.65,3,1.02,3.66,1.12c0.47,0.06,0.82,0.04,1.03-0.08s0.37-0.32,0.47-0.6c0.11-0.32,0.1-0.58-0.04-0.81
			c-0.25-0.39-0.73-0.73-1.45-1.03L24.86,175.2z"/>
	</g>
	<g enable-background="new    ">
		<path fill="#231F20" d="M17.22,228.26l-1.37,7.78l-0.21-0.04c-2.42-2.89-4.07-4.67-4.96-5.34c-0.89-0.68-1.81-1.11-2.74-1.27
			c-0.68-0.12-1.29-0.01-1.81,0.33c-0.52,0.35-0.84,0.82-0.95,1.43c-0.17,1,0.19,1.86,1.09,2.59l-0.19,0.34
			c-1.19-0.57-2.02-1.27-2.49-2.08c-0.48-0.82-0.63-1.7-0.46-2.63c0.12-0.67,0.38-1.26,0.79-1.75c0.41-0.49,0.91-0.86,1.51-1.07
			c0.6-0.22,1.13-0.28,1.61-0.2c0.86,0.15,1.7,0.54,2.51,1.18c1.08,0.87,2.51,2.59,4.28,5.18l0.5-2.85c0.13-0.7,0.17-1.16,0.15-1.39
			c-0.02-0.22-0.09-0.41-0.2-0.57c-0.12-0.16-0.38-0.39-0.79-0.7l0.06-0.35L17.22,228.26z"/>
		<path fill="#231F20" d="M12.54,216.13c1.32,0.23,2.52,0.63,3.6,1.21c0.66,0.35,1.19,0.74,1.57,1.2c0.39,0.45,0.66,0.94,0.85,1.46
			c0.18,0.52,0.22,1.06,0.13,1.62c-0.11,0.64-0.37,1.18-0.8,1.64c-0.41,0.45-0.96,0.83-1.64,1.12c-0.49,0.21-1.13,0.35-1.89,0.44
			c-1.04,0.1-2.09,0.06-3.15-0.12c-1.44-0.25-2.72-0.69-3.85-1.3c-0.93-0.5-1.6-1.14-2.01-1.91c-0.41-0.77-0.55-1.53-0.42-2.28
			c0.13-0.77,0.52-1.44,1.16-2.01c0.64-0.58,1.43-0.94,2.36-1.1C9.74,215.86,11.11,215.88,12.54,216.13z M12,219.13
			c-2.31-0.41-3.66-0.63-4.05-0.67c-0.92-0.09-1.56-0.04-1.92,0.14c-0.24,0.13-0.38,0.37-0.45,0.74c-0.05,0.28-0.01,0.51,0.11,0.7
			c0.19,0.28,0.56,0.52,1.12,0.7c0.56,0.19,2.56,0.58,6,1.19c1.88,0.33,3.14,0.48,3.79,0.47c0.48-0.01,0.81-0.1,1-0.25
			c0.19-0.15,0.31-0.38,0.36-0.68c0.06-0.32-0.01-0.59-0.18-0.79c-0.32-0.33-0.85-0.59-1.6-0.76L12,219.13z"/>
	</g>
	<g enable-background="new    ">
		<path fill="#231F20" d="M7.29,277.94l-0.35,0c-0.21-0.75-0.42-1.27-0.61-1.56s-0.47-0.54-0.86-0.75
			c-0.39-0.21-0.77-0.32-1.17-0.32c-0.54,0-1.02,0.2-1.41,0.6c-0.39,0.4-0.59,0.9-0.59,1.48c0,0.92,0.5,1.71,1.47,2.36l-0.13,0.36
			c-1.1-0.47-1.93-1.08-2.48-1.82c-0.55-0.75-0.83-1.56-0.83-2.48c0.01-0.93,0.28-1.69,0.85-2.3c0.57-0.61,1.23-0.91,1.99-0.91
			c0.5,0,0.97,0.14,1.43,0.42c0.46,0.28,0.87,0.72,1.21,1.32c0.38-0.77,0.84-1.36,1.39-1.76c0.55-0.41,1.24-0.61,2.07-0.61
			c1.4,0,2.58,0.51,3.57,1.52c0.97,1.01,1.47,2.37,1.47,4.07c0,1.13-0.18,1.96-0.56,2.48c-0.26,0.38-0.6,0.56-1.02,0.57
			c-0.3,0-0.56-0.11-0.78-0.32c-0.21-0.21-0.32-0.47-0.32-0.75c0-0.22,0.05-0.42,0.14-0.61c0.05-0.11,0.35-0.48,0.87-1.13
			c0.52-0.65,0.79-1.24,0.79-1.81c0-0.48-0.19-0.91-0.58-1.26c-0.39-0.35-0.87-0.53-1.47-0.52c-0.9,0-1.73,0.32-2.5,0.95
			C8.11,275.79,7.58,276.72,7.29,277.94z"/>
		<path fill="#231F20" d="M7.3,261.42c1.34,0,2.59,0.19,3.75,0.56c0.71,0.23,1.3,0.53,1.75,0.91s0.82,0.81,1.08,1.29
			c0.27,0.48,0.4,1,0.4,1.57c0,0.65-0.17,1.23-0.49,1.75c-0.33,0.53-0.8,0.98-1.41,1.39c-0.44,0.29-1.04,0.54-1.79,0.76
			c-1.01,0.29-2.05,0.42-3.12,0.43c-1.46,0-2.79-0.2-4.02-0.61c-1.01-0.34-1.79-0.85-2.32-1.54c-0.54-0.69-0.8-1.41-0.81-2.18
			c0-0.78,0.27-1.51,0.8-2.18c0.53-0.68,1.24-1.18,2.14-1.49C4.48,261.64,5.84,261.41,7.3,261.42z M7.29,264.47
			c-2.34,0-3.71,0.02-4.11,0.04c-0.92,0.07-1.54,0.22-1.86,0.48c-0.21,0.17-0.32,0.43-0.31,0.8c0,0.29,0.08,0.51,0.24,0.67
			c0.23,0.25,0.64,0.41,1.23,0.5c0.59,0.08,2.62,0.12,6.11,0.13c1.9,0,3.17-0.07,3.82-0.2c0.47-0.1,0.79-0.24,0.94-0.43
			c0.15-0.19,0.24-0.43,0.24-0.73c0-0.34-0.1-0.58-0.31-0.74c-0.37-0.28-0.94-0.44-1.71-0.48L7.29,264.47z"/>
	</g>
	<g enable-background="new    ">
		<path fill="#231F20" d="M14.5,325.48l-9.61-4.77l-0.21-1.2l8.51-1.5l-0.21-1.21l2.02-0.36l0.21,1.21l2.96-0.52l0.48,2.68
			l-2.96,0.52l0.84,4.78L14.5,325.48z M14.34,324.53l-0.68-3.84l-5.22,0.92L14.34,324.53z"/>
		<path fill="#231F20" d="M9.57,307.04c1.32-0.23,2.58-0.27,3.79-0.1c0.74,0.09,1.37,0.29,1.88,0.59c0.51,0.29,0.95,0.66,1.29,1.08
			c0.34,0.43,0.57,0.92,0.67,1.48c0.11,0.64,0.05,1.24-0.18,1.81c-0.23,0.57-0.62,1.11-1.15,1.61c-0.39,0.36-0.93,0.72-1.63,1.06
			c-0.95,0.46-1.95,0.77-3.01,0.97c-1.44,0.25-2.79,0.29-4.06,0.09c-1.05-0.16-1.9-0.52-2.55-1.1c-0.65-0.58-1.04-1.25-1.18-2.01
			c-0.13-0.77,0-1.52,0.4-2.28c0.4-0.76,1.02-1.37,1.85-1.84C6.84,307.75,8.13,307.29,9.57,307.04z M10.07,310.04
			c-2.31,0.41-3.66,0.66-4.04,0.75c-0.89,0.22-1.47,0.49-1.75,0.79c-0.17,0.2-0.23,0.48-0.18,0.84c0.05,0.28,0.17,0.49,0.35,0.62
			c0.27,0.2,0.7,0.29,1.29,0.27s2.6-0.33,6.04-0.94c1.87-0.33,3.11-0.62,3.73-0.86c0.45-0.18,0.73-0.38,0.85-0.58
			c0.13-0.2,0.16-0.46,0.1-0.76c-0.06-0.32-0.21-0.55-0.44-0.68c-0.41-0.21-1-0.27-1.77-0.17L10.07,310.04z"/>
	</g>
	<g enable-background="new    ">
		<path fill="#231F20" d="M19.45,369.34l-2.15-5.9l2.74,0.07l1.81,4.97l1.43,0.02c-0.7-2.17-0.76-4.01-0.2-5.52
			c0.46-1.24,1.31-2.09,2.51-2.53c0.77-0.28,1.62-0.34,2.51-0.17c0.9,0.17,1.7,0.58,2.39,1.24c0.7,0.65,1.21,1.46,1.56,2.41
			c0.38,1.03,0.47,1.89,0.29,2.58c-0.13,0.49-0.37,0.79-0.72,0.91c-0.27,0.1-0.54,0.08-0.82-0.04s-0.46-0.32-0.56-0.59
			c-0.09-0.25-0.13-0.5-0.12-0.79c0.01-0.28,0.11-0.8,0.32-1.56c0.12-0.47,0.19-0.86,0.18-1.18c0-0.22-0.04-0.45-0.13-0.7
			c-0.18-0.51-0.53-0.87-1.03-1.09c-0.5-0.22-1.02-0.24-1.53-0.04c-1.09,0.4-1.78,1.26-2.06,2.61c-0.29,1.34-0.12,2.84,0.48,4.5
			c0.07,0.17,0.16,0.41,0.28,0.75L19.45,369.34z"/>
		<path fill="#231F20" d="M20.12,351.59c1.26-0.46,2.5-0.71,3.71-0.76c0.75-0.03,1.4,0.05,1.96,0.25c0.56,0.19,1.05,0.48,1.46,0.84
			c0.42,0.36,0.72,0.81,0.92,1.33c0.22,0.61,0.27,1.22,0.13,1.82c-0.14,0.6-0.42,1.2-0.85,1.78c-0.33,0.42-0.8,0.87-1.42,1.33
			c-0.85,0.62-1.78,1.1-2.79,1.47c-1.37,0.5-2.69,0.77-3.98,0.8c-1.07,0.03-1.96-0.18-2.71-0.65c-0.74-0.46-1.24-1.05-1.51-1.77
			c-0.27-0.73-0.26-1.5,0-2.32c0.26-0.82,0.77-1.53,1.51-2.13C17.55,352.77,18.75,352.09,20.12,351.59z M21.14,354.47
			c-2.21,0.8-3.49,1.28-3.84,1.44c-0.84,0.37-1.37,0.73-1.58,1.08c-0.14,0.23-0.15,0.52-0.03,0.86c0.1,0.27,0.25,0.45,0.46,0.55
			c0.29,0.15,0.74,0.16,1.31,0.04c0.58-0.12,2.5-0.77,5.79-1.97c1.78-0.65,2.96-1.15,3.52-1.49c0.41-0.25,0.65-0.49,0.74-0.72
			c0.09-0.23,0.07-0.49-0.03-0.77c-0.11-0.31-0.3-0.51-0.55-0.58c-0.44-0.14-1.03-0.09-1.77,0.15L21.14,354.47z"/>
	</g>
	<g enable-background="new    ">
		<path fill="#231F20" d="M37,405.57l0.24-0.14c0.87,0.88,1.67,1.52,2.46,1.9c0.77,0.39,1.56,0.59,2.36,0.61
			c0.8,0.02,1.7-0.12,2.68-0.43c-0.32-0.15-0.55-0.29-0.7-0.44c-0.33-0.31-0.6-0.64-0.82-1.02c-0.5-0.87-0.6-1.78-0.31-2.72
			s0.99-1.73,2.08-2.36c0.77-0.45,1.56-0.7,2.38-0.75c0.82-0.06,1.57,0.11,2.25,0.48c0.69,0.37,1.21,0.9,1.59,1.55
			c0.41,0.71,0.6,1.49,0.56,2.32c-0.04,0.83-0.34,1.64-0.9,2.42c-0.56,0.77-1.28,1.42-2.16,1.93c-1.3,0.75-2.69,1.14-4.18,1.16
			c-1.48,0.02-2.89-0.35-4.22-1.12C39,408.2,37.88,407.07,37,405.57z M45.5,407.23c0.81-0.41,1.41-0.72,1.77-0.93
			c0.79-0.46,1.5-0.97,2.15-1.55c0.64-0.58,1.05-1.08,1.19-1.52c0.1-0.31,0.08-0.59-0.07-0.85c-0.15-0.26-0.45-0.41-0.87-0.44
			c-0.42-0.02-1.1,0.23-2.04,0.78c-1.58,0.91-2.56,1.73-2.93,2.46c-0.25,0.47-0.25,0.92-0.01,1.33
			C44.83,406.73,45.11,406.98,45.5,407.23z"/>
		<path fill="#231F20" d="M38.04,393.42c1.16-0.67,2.34-1.13,3.52-1.39c0.73-0.16,1.38-0.2,1.97-0.09c0.58,0.11,1.11,0.29,1.58,0.58
			c0.47,0.28,0.85,0.67,1.13,1.16c0.33,0.56,0.47,1.15,0.45,1.76c-0.02,0.62-0.2,1.26-0.53,1.91c-0.24,0.47-0.63,1-1.17,1.55
			c-0.73,0.75-1.57,1.39-2.49,1.94c-1.26,0.73-2.53,1.22-3.78,1.48c-1.05,0.22-1.97,0.16-2.78-0.17c-0.81-0.33-1.41-0.82-1.79-1.48
			c-0.39-0.67-0.52-1.43-0.4-2.29c0.12-0.85,0.5-1.64,1.11-2.36C35.72,395.01,36.77,394.15,38.04,393.42z M39.55,396.07
			c-2.03,1.17-3.22,1.87-3.54,2.09c-0.76,0.52-1.21,0.96-1.37,1.34c-0.1,0.25-0.05,0.53,0.13,0.85c0.15,0.25,0.32,0.4,0.54,0.46
			c0.33,0.1,0.76,0.03,1.31-0.18c0.55-0.21,2.33-1.21,5.36-2.95c1.65-0.95,2.71-1.64,3.21-2.08c0.36-0.32,0.56-0.6,0.6-0.84
			c0.05-0.24-0.01-0.49-0.17-0.75c-0.17-0.29-0.38-0.45-0.64-0.49c-0.45-0.05-1.04,0.09-1.73,0.45L39.55,396.07z"/>
	</g>
	<g enable-background="new    ">
		<path fill="#231F20" d="M78.57,439.51l-10.83,4.33l1.79,2.13c0.7,0.83,1.33,1.37,1.9,1.61c0.4,0.16,0.89,0.16,1.46,0l0.24,0.29
			l-3.82,1.93l-5.14-6.12l13.38-5.37L78.57,439.51z"/>
		<path fill="#231F20" d="M62.98,431.81c1.03-0.86,2.1-1.52,3.23-1.98c0.69-0.29,1.33-0.43,1.93-0.44c0.59,0,1.14,0.09,1.66,0.29
			c0.51,0.19,0.95,0.51,1.32,0.95c0.42,0.5,0.66,1.05,0.75,1.66c0.08,0.61,0.02,1.27-0.19,1.97c-0.16,0.51-0.46,1.09-0.88,1.73
			c-0.59,0.86-1.29,1.64-2.12,2.33c-1.12,0.94-2.28,1.64-3.47,2.11c-0.99,0.39-1.91,0.49-2.76,0.33c-0.85-0.18-1.53-0.56-2.02-1.15
			c-0.5-0.6-0.76-1.32-0.8-2.18c-0.03-0.86,0.2-1.7,0.68-2.52C60.97,433.79,61.85,432.75,62.98,431.81z M64.92,434.15
			c-1.8,1.51-2.84,2.4-3.12,2.67c-0.66,0.64-1.03,1.16-1.12,1.56c-0.06,0.26,0.04,0.53,0.27,0.81c0.18,0.22,0.38,0.34,0.61,0.36
			c0.33,0.04,0.75-0.1,1.25-0.41c0.5-0.31,2.09-1.59,4.76-3.83c1.46-1.23,2.38-2.09,2.8-2.61c0.29-0.37,0.44-0.69,0.45-0.93
			c0-0.24-0.09-0.48-0.29-0.71c-0.21-0.25-0.45-0.38-0.72-0.37c-0.46,0.02-1,0.28-1.62,0.74L64.92,434.15z"/>
	</g>
	<g enable-background="new    ">
		<path fill="#231F20" d="M103.39,473.78c-0.28-1.14-0.37-2.05-0.26-2.75c0.1-0.69,0.4-1.34,0.9-1.93c0.7-0.83,1.6-1.27,2.7-1.32
			c1.1-0.05,2.19,0.38,3.26,1.27c1.02,0.85,1.59,1.76,1.73,2.73c0.13,0.97-0.1,1.81-0.7,2.54c-0.47,0.55-1.03,0.9-1.7,1.04
			s-1.52,0.08-2.56-0.21c0.3,1.3,0.39,2.25,0.29,2.83c-0.1,0.59-0.37,1.14-0.81,1.66c-0.58,0.68-1.38,1.05-2.4,1.08
			c-1.02,0.03-2.05-0.37-3.06-1.22c-0.98-0.82-1.54-1.69-1.68-2.59c-0.14-0.9,0.06-1.69,0.6-2.33c0.4-0.48,0.91-0.79,1.5-0.92
			S102.54,473.58,103.39,473.78z M103.64,474.65c-0.4,0.09-0.78,0.27-1.13,0.5c-0.35,0.23-0.68,0.54-1,0.91
			c-0.55,0.65-0.83,1.28-0.85,1.87c-0.01,0.44,0.17,0.83,0.54,1.14c0.34,0.29,0.73,0.4,1.17,0.35c0.44-0.04,0.82-0.26,1.12-0.61
			c0.3-0.37,0.5-0.87,0.57-1.48C104.13,476.72,103.99,475.82,103.64,474.65z M106.49,474.33c0.27-0.01,0.5-0.05,0.66-0.1
			c0.25-0.1,0.56-0.28,0.92-0.54c0.37-0.27,0.7-0.59,1.02-0.96c0.4-0.47,0.67-0.93,0.82-1.35s0.17-0.8,0.06-1.13
			c-0.11-0.33-0.28-0.6-0.51-0.79c-0.37-0.3-0.79-0.43-1.27-0.38c-0.48,0.06-0.92,0.33-1.31,0.79
			C106.05,470.84,105.93,472.33,106.49,474.33z"/>
		<path fill="#231F20" d="M94.28,465.01c0.86-1.03,1.8-1.87,2.84-2.51c0.62-0.4,1.24-0.66,1.82-0.76c0.58-0.1,1.14-0.1,1.68,0
			c0.54,0.1,1.03,0.34,1.46,0.71c0.5,0.41,0.83,0.92,1.03,1.5c0.19,0.58,0.24,1.25,0.16,1.97c-0.06,0.53-0.26,1.14-0.57,1.87
			c-0.43,0.95-0.99,1.84-1.68,2.67c-0.94,1.12-1.96,2.01-3.05,2.69c-0.91,0.56-1.79,0.83-2.66,0.8c-0.87-0.03-1.6-0.29-2.19-0.78
			c-0.6-0.51-0.99-1.17-1.16-2.01c-0.17-0.84-0.1-1.71,0.24-2.6C92.65,467.31,93.33,466.14,94.28,465.01z M96.6,466.98
			c-1.51,1.8-2.37,2.86-2.6,3.17c-0.54,0.75-0.82,1.32-0.82,1.73c-0.01,0.27,0.13,0.52,0.41,0.75c0.22,0.18,0.44,0.26,0.67,0.25
			c0.33-0.02,0.72-0.23,1.17-0.62c0.44-0.39,1.78-1.93,4.03-4.6c1.22-1.46,1.99-2.47,2.3-3.05c0.22-0.43,0.32-0.75,0.27-1
			c-0.03-0.24-0.17-0.46-0.41-0.65c-0.26-0.22-0.51-0.29-0.77-0.24c-0.45,0.1-0.94,0.44-1.46,1.01L96.6,466.98z"/>
	</g>
	<g enable-background="new    ">
		<path fill="#231F20" d="M150.61,495.99l-0.14,0.24c-1.08-0.33-2.06-0.47-2.97-0.43c-0.91,0.04-1.73,0.26-2.47,0.66
			c-0.74,0.4-1.43,0.96-2.05,1.68c0.46,0.02,0.84,0.07,1.12,0.14c0.29,0.08,0.57,0.19,0.85,0.35c0.88,0.51,1.43,1.25,1.65,2.22
			c0.23,0.97,0.01,2-0.63,3.11c-0.44,0.76-1,1.37-1.69,1.83c-0.69,0.46-1.42,0.69-2.21,0.7c-0.79,0.01-1.51-0.17-2.14-0.53
			c-0.68-0.39-1.22-0.95-1.6-1.69c-0.38-0.74-0.54-1.58-0.47-2.52c0.06-0.95,0.37-1.89,0.92-2.83c0.7-1.22,1.67-2.22,2.9-3.01
			c1.23-0.78,2.62-1.18,4.17-1.19C147.41,494.71,149,495.14,150.61,495.99z M142.44,498.79c-0.43,0.61-0.78,1.15-1.06,1.64
			c-0.6,1.04-1.04,2.08-1.31,3.11c-0.15,0.57-0.16,1.06-0.03,1.45c0.06,0.21,0.22,0.38,0.44,0.51c0.29,0.17,0.58,0.17,0.88,0.02
			c0.42-0.21,0.9-0.78,1.45-1.74c0.91-1.58,1.35-2.79,1.32-3.6c-0.02-0.53-0.25-0.92-0.66-1.16
			C143.26,498.91,142.92,498.82,142.44,498.79z"/>
		<path fill="#231F20" d="M130.75,492.61c0.67-1.16,1.46-2.15,2.36-2.97c0.54-0.51,1.11-0.86,1.66-1.06
			c0.56-0.21,1.11-0.31,1.66-0.29c0.55,0.01,1.08,0.16,1.56,0.44c0.56,0.33,0.98,0.76,1.27,1.31c0.29,0.55,0.45,1.18,0.5,1.92
			c0.03,0.53-0.05,1.17-0.24,1.93c-0.26,1.01-0.65,1.99-1.19,2.93c-0.73,1.26-1.58,2.32-2.54,3.18c-0.8,0.71-1.63,1.12-2.48,1.25
			c-0.87,0.12-1.63,0-2.29-0.39c-0.68-0.39-1.17-0.99-1.49-1.78c-0.32-0.8-0.39-1.67-0.22-2.6
			C129.54,495.15,130.02,493.87,130.75,492.61z M133.38,494.14c-1.17,2.04-1.85,3.23-2.02,3.58c-0.4,0.83-0.58,1.44-0.51,1.85
			c0.04,0.27,0.21,0.49,0.53,0.68c0.24,0.14,0.48,0.18,0.7,0.13c0.32-0.08,0.68-0.35,1.03-0.81c0.37-0.46,1.42-2.21,3.16-5.23
			c0.95-1.65,1.52-2.78,1.73-3.41c0.15-0.46,0.18-0.8,0.1-1.03c-0.08-0.23-0.25-0.42-0.51-0.57c-0.29-0.16-0.56-0.19-0.8-0.09
			c-0.43,0.18-0.85,0.59-1.27,1.24L133.38,494.14z"/>
	</g>
	<g enable-background="new    ">
		<path fill="#231F20" d="M183.06,518.17c-0.65-0.97-1.05-1.8-1.19-2.49s-0.07-1.39,0.19-2.12c0.37-1.02,1.06-1.74,2.09-2.17
			c1.02-0.43,2.19-0.4,3.5,0.08c1.25,0.45,2.1,1.11,2.56,1.97s0.52,1.73,0.21,2.62c-0.24,0.68-0.65,1.19-1.24,1.56
			c-0.58,0.37-1.4,0.59-2.47,0.69c0.72,1.13,1.13,1.98,1.25,2.56c0.1,0.58,0.04,1.2-0.19,1.83c-0.3,0.84-0.93,1.46-1.88,1.84
			c-0.95,0.38-2.05,0.35-3.3-0.11c-1.2-0.44-2.03-1.05-2.47-1.86c-0.44-0.81-0.52-1.6-0.23-2.4c0.21-0.59,0.59-1.06,1.1-1.39
			C181.49,518.48,182.19,518.27,183.06,518.17z M183.59,518.91c-0.34,0.23-0.64,0.51-0.89,0.86c-0.25,0.34-0.47,0.75-0.63,1.21
			c-0.29,0.8-0.34,1.49-0.15,2.04c0.14,0.42,0.44,0.72,0.9,0.89c0.42,0.15,0.83,0.13,1.23-0.07c0.4-0.2,0.68-0.52,0.85-0.97
			c0.17-0.45,0.17-0.98,0.03-1.59C184.77,520.67,184.32,519.88,183.59,518.91z M186.17,517.62c0.26-0.11,0.45-0.21,0.58-0.32
			c0.2-0.17,0.43-0.44,0.69-0.83c0.25-0.38,0.46-0.8,0.63-1.24c0.21-0.58,0.31-1.1,0.31-1.54c-0.01-0.44-0.11-0.8-0.33-1.08
			c-0.21-0.27-0.46-0.46-0.75-0.57c-0.45-0.17-0.89-0.13-1.33,0.08c-0.43,0.22-0.75,0.62-0.96,1.19
			C184.55,514.5,184.94,515.94,186.17,517.62z"/>
		<path fill="#231F20" d="M171.5,513.05c0.46-1.26,1.06-2.36,1.81-3.33c0.46-0.59,0.94-1.04,1.45-1.33
			c0.51-0.29,1.04-0.48,1.58-0.58c0.55-0.09,1.08-0.03,1.62,0.16c0.61,0.22,1.1,0.58,1.48,1.06c0.38,0.48,0.65,1.09,0.82,1.8
			c0.12,0.52,0.16,1.17,0.1,1.94c-0.08,1.04-0.3,2.08-0.67,3.08c-0.5,1.37-1.15,2.56-1.95,3.56c-0.66,0.83-1.41,1.38-2.24,1.65
			c-0.83,0.27-1.6,0.28-2.32,0.01c-0.74-0.26-1.33-0.76-1.78-1.5c-0.45-0.73-0.68-1.57-0.67-2.52
			C170.74,515.77,171,514.43,171.5,513.05z M174.35,514.11c-0.8,2.21-1.26,3.5-1.37,3.87c-0.25,0.88-0.31,1.52-0.19,1.91
			c0.08,0.26,0.3,0.45,0.64,0.57c0.27,0.1,0.51,0.1,0.71,0.01c0.31-0.13,0.6-0.46,0.89-0.98c0.28-0.52,1.01-2.42,2.21-5.7
			c0.65-1.79,1.02-3,1.12-3.66c0.06-0.47,0.04-0.82-0.08-1.03c-0.12-0.21-0.32-0.37-0.6-0.47c-0.32-0.11-0.58-0.1-0.81,0.04
			c-0.39,0.25-0.73,0.73-1.03,1.45L174.35,514.11z"/>
	</g>
	<g enable-background="new    ">
		<path fill="#231F20" d="M232.11,522.26l-5.51,10.27l2.74,0.48c1.07,0.19,1.9,0.18,2.49,0c0.41-0.13,0.79-0.45,1.13-0.94l0.37,0.06
			l-1.68,3.94l-7.87-1.39l6.81-12.71L232.11,522.26z"/>
		<path fill="#231F20" d="M215.21,526.38c0.23-1.32,0.63-2.52,1.21-3.6c0.35-0.66,0.74-1.19,1.2-1.57c0.45-0.38,0.93-0.66,1.46-0.84
			c0.52-0.18,1.06-0.22,1.62-0.13c0.64,0.11,1.18,0.37,1.64,0.8c0.45,0.41,0.83,0.96,1.12,1.64c0.21,0.49,0.35,1.13,0.44,1.89
			c0.1,1.04,0.06,2.09-0.12,3.15c-0.25,1.44-0.69,2.72-1.3,3.85c-0.5,0.93-1.14,1.6-1.91,2.01c-0.77,0.41-1.53,0.55-2.28,0.42
			c-0.77-0.13-1.44-0.52-2.01-1.16c-0.57-0.64-0.94-1.43-1.1-2.36C214.94,529.19,214.96,527.83,215.21,526.38z M218.21,526.93
			c-0.41,2.31-0.63,3.66-0.67,4.05c-0.09,0.92-0.04,1.56,0.14,1.92c0.13,0.24,0.37,0.38,0.74,0.45c0.28,0.05,0.51,0.01,0.7-0.12
			c0.28-0.18,0.52-0.56,0.7-1.12c0.19-0.56,0.58-2.56,1.19-6c0.33-1.88,0.48-3.14,0.47-3.79c-0.01-0.48-0.1-0.81-0.25-1
			c-0.15-0.19-0.38-0.31-0.68-0.36c-0.32-0.06-0.59,0.01-0.79,0.18c-0.33,0.32-0.59,0.85-0.76,1.6L218.21,526.93z"/>
	</g>
	<g enable-background="new    ">
		<path fill="#231F20" d="M270.59,538.67l0-0.28c1.19-0.31,2.16-0.7,2.87-1.17c0.72-0.47,1.29-1.06,1.71-1.74
			c0.42-0.68,0.75-1.53,0.98-2.54c-0.29,0.2-0.53,0.33-0.72,0.39c-0.43,0.13-0.86,0.2-1.29,0.2c-1,0-1.83-0.36-2.51-1.09
			c-0.68-0.72-1-1.72-1-2.98c0-0.89,0.18-1.7,0.54-2.44c0.37-0.74,0.88-1.31,1.54-1.71c0.67-0.4,1.38-0.6,2.14-0.6
			c0.82,0,1.59,0.22,2.29,0.67s1.25,1.11,1.64,1.98c0.4,0.88,0.59,1.82,0.59,2.84c0,1.5-0.36,2.9-1.08,4.2
			c-0.72,1.29-1.75,2.33-3.08,3.1C273.85,538.27,272.34,538.64,270.59,538.67z M276.28,532.13c0.05-0.91,0.08-1.57,0.08-2
			c0-0.91-0.09-1.79-0.26-2.65s-0.41-1.45-0.72-1.79c-0.22-0.24-0.48-0.37-0.77-0.36c-0.3,0-0.58,0.18-0.81,0.53
			c-0.24,0.35-0.35,1.07-0.35,2.15c0,1.82,0.22,3.07,0.67,3.77c0.28,0.45,0.66,0.67,1.15,0.67
			C275.51,532.45,275.86,532.34,276.28,532.13z"/>
		<path fill="#231F20" d="M260.58,531.68c0-1.34,0.19-2.59,0.56-3.75c0.23-0.71,0.53-1.3,0.91-1.75c0.38-0.45,0.81-0.82,1.29-1.08
			c0.48-0.27,1-0.4,1.57-0.4c0.64,0,1.23,0.17,1.75,0.49c0.53,0.33,0.98,0.8,1.39,1.41c0.29,0.44,0.54,1.04,0.76,1.79
			c0.29,1.01,0.43,2.05,0.43,3.12c0,1.46-0.2,2.79-0.61,4.02c-0.34,1.01-0.85,1.79-1.54,2.32s-1.41,0.8-2.18,0.81
			c-0.77,0-1.51-0.27-2.18-0.8c-0.68-0.53-1.18-1.24-1.49-2.14C260.81,534.49,260.58,533.15,260.58,531.68z M263.63,531.7
			c0,2.34,0.02,3.71,0.04,4.11c0.07,0.92,0.22,1.54,0.48,1.86c0.17,0.21,0.43,0.32,0.8,0.31c0.29,0,0.51-0.08,0.67-0.24
			c0.25-0.23,0.41-0.64,0.5-1.22c0.08-0.59,0.12-2.62,0.13-6.11c0-1.9-0.07-3.17-0.2-3.82c-0.1-0.47-0.24-0.78-0.43-0.94
			c-0.19-0.15-0.43-0.24-0.73-0.24c-0.34,0-0.58,0.11-0.74,0.32c-0.28,0.37-0.44,0.94-0.48,1.71L263.63,531.7z"/>
	</g>
	<g enable-background="new    ">
		<path fill="#231F20" d="M323.47,533.12l-6.19,1.1l0.54-2.69l5.21-0.92l0.27-1.4c-2.26,0.31-4.08,0.06-5.47-0.76
			c-1.15-0.67-1.83-1.65-2.05-2.91c-0.14-0.81-0.05-1.65,0.27-2.5c0.32-0.86,0.87-1.57,1.63-2.14c0.76-0.56,1.65-0.94,2.64-1.12
			c1.08-0.19,1.95-0.13,2.59,0.17c0.45,0.21,0.71,0.5,0.78,0.87c0.05,0.28-0.01,0.54-0.18,0.79s-0.41,0.4-0.68,0.45
			c-0.26,0.05-0.52,0.04-0.79-0.02c-0.28-0.06-0.77-0.25-1.48-0.58c-0.45-0.2-0.82-0.34-1.12-0.38c-0.22-0.04-0.45-0.04-0.7,0
			c-0.53,0.1-0.95,0.36-1.25,0.83c-0.31,0.46-0.41,0.95-0.31,1.5c0.21,1.15,0.94,1.97,2.2,2.48c1.26,0.51,2.77,0.62,4.51,0.3
			c0.18-0.03,0.44-0.08,0.79-0.15L323.47,533.12z"/>
		<path fill="#231F20" d="M306.13,529.37c-0.23-1.32-0.27-2.58-0.1-3.79c0.09-0.74,0.29-1.37,0.59-1.88
			c0.29-0.51,0.66-0.95,1.08-1.29c0.43-0.34,0.92-0.57,1.48-0.67c0.64-0.11,1.24-0.05,1.81,0.18c0.57,0.23,1.11,0.62,1.61,1.15
			c0.36,0.39,0.72,0.93,1.06,1.63c0.46,0.95,0.77,1.95,0.97,3.01c0.25,1.44,0.29,2.79,0.09,4.06c-0.16,1.05-0.52,1.9-1.1,2.55
			s-1.24,1.04-2.01,1.18c-0.77,0.13-1.52,0-2.28-0.4c-0.76-0.4-1.37-1.02-1.84-1.85C306.84,532.1,306.38,530.81,306.13,529.37z
			 M309.12,528.86c0.41,2.31,0.66,3.66,0.75,4.04c0.22,0.89,0.49,1.47,0.79,1.75c0.2,0.17,0.48,0.23,0.84,0.18
			c0.28-0.05,0.49-0.17,0.62-0.35c0.2-0.27,0.29-0.7,0.27-1.29c-0.02-0.59-0.33-2.6-0.94-6.04c-0.33-1.87-0.62-3.11-0.86-3.73
			c-0.18-0.45-0.38-0.73-0.58-0.85s-0.46-0.16-0.76-0.1c-0.32,0.06-0.54,0.21-0.68,0.44c-0.21,0.41-0.27,1-0.17,1.77L309.12,528.86z
			"/>
	</g>
	<g enable-background="new    ">
		<path fill="#231F20" d="M367.99,510.75l-3.03,10.29l-1.13,0.41l-2.96-8.11l-1.15,0.42l-0.7-1.93l1.15-0.42l-1.03-2.82l2.55-0.93
			l1.03,2.82l4.56-1.67L367.99,510.75z M367.08,511.07l-3.67,1.34l1.82,4.97L367.08,511.07z"/>
		<path fill="#231F20" d="M350.68,518.82c-0.46-1.26-0.71-2.5-0.76-3.71c-0.03-0.75,0.05-1.4,0.25-1.96
			c0.2-0.56,0.48-1.05,0.84-1.46c0.36-0.42,0.81-0.72,1.34-0.92c0.61-0.22,1.22-0.27,1.82-0.13c0.6,0.14,1.2,0.42,1.78,0.85
			c0.42,0.32,0.87,0.8,1.33,1.42c0.62,0.85,1.1,1.78,1.47,2.79c0.5,1.37,0.77,2.69,0.8,3.98c0.03,1.07-0.18,1.96-0.65,2.71
			c-0.46,0.74-1.05,1.24-1.77,1.51c-0.73,0.27-1.5,0.26-2.32,0c-0.82-0.26-1.53-0.77-2.13-1.51
			C351.86,521.39,351.18,520.19,350.68,518.82z M353.55,517.79c0.8,2.21,1.28,3.49,1.44,3.84c0.37,0.84,0.73,1.37,1.08,1.58
			c0.23,0.14,0.51,0.15,0.86,0.02c0.27-0.1,0.45-0.25,0.55-0.46c0.15-0.29,0.16-0.74,0.04-1.31s-0.77-2.5-1.97-5.79
			c-0.65-1.78-1.15-2.96-1.49-3.52c-0.25-0.41-0.49-0.65-0.72-0.74c-0.23-0.09-0.49-0.07-0.77,0.03c-0.31,0.11-0.51,0.3-0.58,0.55
			c-0.14,0.44-0.09,1.03,0.15,1.77L353.55,517.79z"/>
	</g>
	<g enable-background="new    ">
		<path fill="#231F20" d="M406.9,492.69l0.18,0.3c-0.54,0.56-0.89,1-1.05,1.31c-0.16,0.31-0.23,0.68-0.22,1.12
			c0.01,0.44,0.11,0.83,0.32,1.17c0.27,0.47,0.68,0.78,1.22,0.92s1.07,0.06,1.58-0.24c0.8-0.46,1.23-1.28,1.3-2.44l0.38-0.07
			c0.14,1.19,0.03,2.21-0.33,3.06c-0.36,0.85-0.94,1.5-1.73,1.96c-0.8,0.47-1.61,0.61-2.42,0.42s-1.4-0.61-1.78-1.27
			c-0.25-0.43-0.36-0.91-0.35-1.45c0.01-0.54,0.19-1.11,0.54-1.71c-0.85,0.06-1.6-0.05-2.22-0.32c-0.63-0.27-1.15-0.77-1.56-1.49
			c-0.7-1.21-0.86-2.49-0.47-3.85c0.39-1.36,1.31-2.46,2.79-3.31c0.98-0.56,1.79-0.81,2.43-0.76c0.46,0.04,0.8,0.24,1,0.6
			c0.15,0.26,0.18,0.54,0.11,0.83c-0.08,0.3-0.25,0.51-0.49,0.65c-0.19,0.11-0.39,0.17-0.6,0.18c-0.12,0-0.59-0.06-1.4-0.19
			c-0.82-0.14-1.47-0.06-1.95,0.22c-0.42,0.24-0.69,0.62-0.8,1.13c-0.11,0.51-0.01,1.02,0.28,1.54c0.45,0.78,1.14,1.34,2.07,1.69
			C404.64,493.05,405.7,493.04,406.9,492.69z"/>
		<path fill="#231F20" d="M392.59,500.94c-0.67-1.16-1.13-2.34-1.39-3.52c-0.16-0.73-0.2-1.38-0.09-1.97
			c0.11-0.58,0.29-1.11,0.58-1.58c0.28-0.47,0.67-0.85,1.16-1.13c0.56-0.33,1.15-0.47,1.76-0.45c0.62,0.02,1.26,0.21,1.91,0.54
			c0.47,0.24,1,0.63,1.55,1.17c0.75,0.73,1.39,1.57,1.94,2.49c0.73,1.26,1.22,2.53,1.48,3.78c0.21,1.05,0.16,1.97-0.17,2.78
			s-0.82,1.41-1.48,1.79c-0.67,0.39-1.43,0.52-2.29,0.4c-0.85-0.12-1.64-0.5-2.36-1.11C394.19,503.27,393.32,502.2,392.59,500.94z
			 M395.23,499.43c1.17,2.03,1.87,3.22,2.09,3.54c0.52,0.76,0.96,1.21,1.34,1.37c0.25,0.1,0.53,0.05,0.85-0.13
			c0.25-0.15,0.41-0.32,0.46-0.54c0.1-0.33,0.03-0.76-0.18-1.31c-0.21-0.55-1.21-2.33-2.95-5.36c-0.96-1.65-1.64-2.71-2.08-3.21
			c-0.32-0.36-0.6-0.56-0.84-0.6c-0.24-0.05-0.49,0.01-0.75,0.17c-0.29,0.17-0.45,0.38-0.49,0.64c-0.05,0.45,0.09,1.04,0.45,1.72
			L395.23,499.43z"/>
	</g>
	<g enable-background="new    ">
		<path fill="#231F20" d="M435.09,463.66l6.04-5.08l0.15,0.17c0,3.76,0.12,6.19,0.37,7.29c0.24,1.1,0.67,2,1.28,2.74
			c0.44,0.53,0.98,0.83,1.6,0.91c0.63,0.07,1.17-0.09,1.64-0.49c0.78-0.65,1.05-1.55,0.83-2.68l0.37-0.13
			c0.54,1.2,0.73,2.26,0.56,3.2c-0.17,0.93-0.61,1.7-1.33,2.31c-0.52,0.44-1.1,0.72-1.73,0.84c-0.63,0.12-1.25,0.06-1.84-0.15
			c-0.6-0.22-1.05-0.51-1.36-0.88c-0.56-0.67-0.95-1.51-1.16-2.52c-0.28-1.36-0.26-3.6,0.05-6.72l-2.22,1.86
			c-0.54,0.46-0.88,0.78-1.01,0.97c-0.13,0.18-0.19,0.37-0.21,0.57c-0.01,0.2,0.04,0.54,0.15,1.04l-0.27,0.23L435.09,463.66z"/>
		<path fill="#231F20" d="M430.88,475.95c-0.86-1.03-1.52-2.1-1.98-3.23c-0.29-0.68-0.43-1.33-0.44-1.93s0.09-1.15,0.29-1.66
			c0.19-0.51,0.51-0.95,0.95-1.32c0.5-0.42,1.05-0.66,1.66-0.75c0.61-0.08,1.27-0.02,1.97,0.19c0.51,0.16,1.09,0.46,1.73,0.88
			c0.86,0.59,1.64,1.29,2.33,2.12c0.94,1.12,1.64,2.28,2.11,3.47c0.39,0.99,0.49,1.91,0.32,2.76c-0.18,0.85-0.56,1.53-1.15,2.02
			c-0.6,0.5-1.32,0.76-2.18,0.8c-0.86,0.02-1.7-0.2-2.52-0.68C432.86,477.96,431.82,477.08,430.88,475.95z M433.22,474.01
			c1.51,1.8,2.4,2.84,2.67,3.12c0.64,0.66,1.16,1.03,1.56,1.12c0.26,0.06,0.53-0.04,0.81-0.27c0.22-0.18,0.34-0.38,0.36-0.61
			c0.04-0.33-0.1-0.75-0.41-1.25c-0.31-0.5-1.59-2.09-3.83-4.76c-1.23-1.46-2.09-2.38-2.61-2.8c-0.37-0.29-0.69-0.44-0.93-0.44
			s-0.48,0.09-0.71,0.29c-0.25,0.21-0.38,0.45-0.37,0.72c0.02,0.46,0.28,1,0.74,1.62L433.22,474.01z"/>
	</g>
	<g enable-background="new    ">
		<path fill="#231F20" d="M477.81,439.27l-8.41-7.05c-0.63-0.53-1.06-0.84-1.28-0.93c-0.22-0.09-0.46-0.09-0.72-0.01
			c-0.26,0.08-0.55,0.32-0.88,0.71l-0.19,0.24l-0.28-0.23l4.54-5.42l0.28,0.23l-0.23,0.27c-0.37,0.44-0.58,0.79-0.64,1.06
			s-0.02,0.52,0.1,0.73s0.5,0.59,1.16,1.14l5.33,4.47c0.47,0.4,0.79,0.63,0.95,0.67c0.15,0.05,0.33,0.05,0.52,0
			c0.18-0.06,0.35-0.16,0.48-0.32c0.22-0.25,0.4-0.63,0.54-1.14l0.38,0.09l-1.44,5.23L477.81,439.27z"/>
		<path fill="#231F20" d="M464.16,444.7c-1.03-0.86-1.87-1.8-2.51-2.84c-0.4-0.62-0.66-1.24-0.77-1.81c-0.1-0.58-0.1-1.14,0-1.68
			c0.1-0.54,0.34-1.03,0.71-1.46c0.41-0.5,0.92-0.83,1.5-1.03c0.58-0.19,1.25-0.24,1.97-0.16c0.53,0.06,1.14,0.26,1.87,0.57
			c0.95,0.43,1.84,0.99,2.67,1.68c1.12,0.94,2.01,1.96,2.69,3.05c0.56,0.91,0.83,1.79,0.8,2.66s-0.29,1.6-0.77,2.18
			c-0.51,0.6-1.17,0.99-2.01,1.16c-0.84,0.17-1.71,0.1-2.6-0.24C466.46,446.34,465.28,445.64,464.16,444.7z M466.13,442.37
			c1.8,1.51,2.86,2.37,3.17,2.6c0.75,0.54,1.32,0.82,1.73,0.82c0.27,0.01,0.52-0.13,0.75-0.41c0.18-0.22,0.26-0.44,0.25-0.67
			c-0.02-0.33-0.23-0.72-0.62-1.17c-0.39-0.45-1.93-1.78-4.6-4.03c-1.46-1.22-2.47-1.99-3.05-2.3c-0.43-0.22-0.75-0.32-1-0.27
			c-0.24,0.04-0.46,0.17-0.65,0.41c-0.22,0.26-0.29,0.51-0.24,0.78c0.1,0.45,0.44,0.93,1.01,1.46L466.13,442.37z"/>
	</g>
	<g enable-background="new    ">
		<path fill="#231F20" d="M493.58,404.71c-1.16-0.67-2.15-1.46-2.97-2.36c-0.51-0.54-0.86-1.11-1.06-1.66
			c-0.2-0.55-0.31-1.11-0.29-1.66c0.01-0.55,0.16-1.08,0.44-1.56c0.33-0.56,0.76-0.98,1.31-1.27c0.55-0.29,1.18-0.45,1.92-0.5
			c0.53-0.03,1.17,0.05,1.93,0.24c1.02,0.26,1.99,0.65,2.93,1.19c1.26,0.73,2.32,1.58,3.18,2.54c0.7,0.8,1.12,1.63,1.25,2.48
			c0.12,0.87,0,1.63-0.39,2.29c-0.39,0.68-0.99,1.17-1.78,1.49c-0.8,0.32-1.67,0.39-2.6,0.22
			C496.12,405.92,494.84,405.44,493.58,404.71z M495.12,402.07c2.04,1.17,3.23,1.85,3.58,2.02c0.83,0.4,1.44,0.58,1.85,0.51
			c0.27-0.04,0.49-0.21,0.68-0.53c0.14-0.24,0.19-0.48,0.13-0.7c-0.08-0.32-0.35-0.68-0.81-1.03c-0.46-0.37-2.21-1.42-5.23-3.16
			c-1.65-0.95-2.78-1.52-3.41-1.74c-0.46-0.15-0.8-0.18-1.03-0.1c-0.23,0.08-0.42,0.25-0.57,0.51c-0.17,0.29-0.19,0.56-0.09,0.8
			c0.18,0.43,0.59,0.85,1.24,1.27L495.12,402.07z"/>
	</g>
	<g enable-background="new    ">
		<path fill="#231F20" d="M523.16,357.71l-10.32-3.75c-0.77-0.28-1.28-0.42-1.52-0.44c-0.24-0.01-0.46,0.07-0.68,0.24
			c-0.21,0.17-0.41,0.49-0.58,0.97l-0.11,0.28l-0.34-0.13l2.41-6.64l0.34,0.13l-0.12,0.33c-0.2,0.54-0.28,0.95-0.23,1.22
			c0.04,0.28,0.16,0.49,0.34,0.65c0.19,0.15,0.68,0.38,1.47,0.67l6.54,2.37c0.58,0.21,0.96,0.32,1.12,0.31
			c0.17-0.01,0.33-0.07,0.49-0.18s0.27-0.27,0.34-0.47c0.11-0.32,0.16-0.74,0.12-1.26l0.4-0.05l0.44,5.41L523.16,357.71z"/>
		<path fill="#231F20" d="M512.19,367.48c-1.26-0.46-2.37-1.06-3.33-1.81c-0.59-0.46-1.04-0.94-1.33-1.45
			c-0.29-0.51-0.48-1.04-0.58-1.58c-0.09-0.54-0.03-1.08,0.16-1.62c0.22-0.61,0.58-1.1,1.06-1.48c0.48-0.38,1.09-0.65,1.8-0.82
			c0.52-0.12,1.17-0.16,1.94-0.1c1.04,0.08,2.08,0.3,3.08,0.67c1.37,0.5,2.56,1.15,3.56,1.95c0.83,0.66,1.38,1.41,1.65,2.24
			c0.27,0.83,0.28,1.6,0.01,2.32c-0.27,0.73-0.76,1.32-1.5,1.78c-0.73,0.45-1.57,0.68-2.52,0.67
			C514.9,368.24,513.56,367.98,512.19,367.48z M513.25,364.62c2.21,0.8,3.5,1.26,3.88,1.37c0.88,0.25,1.52,0.31,1.91,0.19
			c0.26-0.08,0.45-0.3,0.57-0.64c0.1-0.27,0.1-0.51,0.01-0.71c-0.13-0.31-0.46-0.6-0.98-0.89c-0.52-0.28-2.42-1.01-5.7-2.21
			c-1.78-0.65-3-1.02-3.66-1.12c-0.47-0.06-0.82-0.04-1.03,0.08c-0.21,0.12-0.37,0.32-0.47,0.6c-0.11,0.32-0.1,0.58,0.04,0.81
			c0.25,0.39,0.73,0.73,1.45,1.03L513.25,364.62z"/>
	</g>
	<g enable-background="new    ">
		<path fill="#231F20" d="M520.77,311.6l1.37-7.78l0.21,0.04c2.42,2.89,4.07,4.67,4.96,5.34c0.89,0.68,1.81,1.11,2.74,1.27
			c0.68,0.12,1.29,0.01,1.81-0.33s0.84-0.82,0.95-1.43c0.17-1-0.19-1.86-1.09-2.59l0.19-0.34c1.18,0.57,2.02,1.27,2.49,2.08
			c0.48,0.82,0.62,1.7,0.46,2.63c-0.12,0.67-0.38,1.26-0.79,1.75c-0.41,0.49-0.91,0.86-1.5,1.07c-0.6,0.22-1.13,0.28-1.61,0.21
			c-0.86-0.15-1.7-0.54-2.51-1.18c-1.08-0.87-2.51-2.59-4.28-5.18l-0.5,2.85c-0.13,0.7-0.17,1.16-0.15,1.39
			c0.02,0.22,0.09,0.41,0.2,0.57c0.12,0.16,0.38,0.39,0.79,0.7l-0.06,0.35L520.77,311.6z"/>
		<path fill="#231F20" d="M525.45,323.72c-1.32-0.23-2.52-0.63-3.6-1.21c-0.66-0.35-1.19-0.74-1.57-1.2
			c-0.38-0.45-0.66-0.94-0.85-1.46c-0.18-0.52-0.22-1.06-0.13-1.62c0.12-0.64,0.37-1.18,0.8-1.64c0.41-0.45,0.96-0.83,1.64-1.12
			c0.49-0.21,1.13-0.35,1.89-0.44c1.04-0.1,2.09-0.06,3.15,0.12c1.44,0.25,2.72,0.69,3.86,1.3c0.93,0.5,1.6,1.14,2.01,1.91
			c0.41,0.77,0.55,1.53,0.42,2.28c-0.13,0.77-0.52,1.44-1.16,2.01c-0.64,0.58-1.43,0.94-2.36,1.1
			C528.26,323.99,526.89,323.98,525.45,323.72z M526,320.73c2.31,0.41,3.66,0.63,4.05,0.67c0.92,0.09,1.56,0.04,1.92-0.14
			c0.24-0.13,0.38-0.37,0.45-0.73c0.05-0.28,0.01-0.51-0.12-0.7c-0.18-0.28-0.55-0.52-1.12-0.7c-0.56-0.19-2.56-0.58-6-1.19
			c-1.88-0.33-3.14-0.48-3.79-0.47c-0.48,0.01-0.81,0.1-1,0.25c-0.18,0.16-0.31,0.38-0.36,0.68c-0.06,0.32,0.01,0.59,0.18,0.79
			c0.32,0.33,0.85,0.59,1.6,0.76L526,320.73z"/>
	</g>
	<g enable-background="new    ">
		<path fill="#231F20" d="M530.85,261.88l0.34,0c0.22,0.75,0.42,1.27,0.61,1.56c0.19,0.29,0.47,0.54,0.86,0.75
			c0.39,0.21,0.77,0.32,1.17,0.32c0.54,0,1.02-0.2,1.41-0.6c0.39-0.4,0.59-0.9,0.59-1.48c0-0.92-0.5-1.7-1.47-2.36l0.13-0.36
			c1.1,0.47,1.93,1.08,2.48,1.82c0.55,0.75,0.83,1.56,0.83,2.48c-0.01,0.93-0.29,1.69-0.85,2.3c-0.57,0.61-1.23,0.91-1.99,0.91
			c-0.5,0-0.97-0.14-1.43-0.42c-0.46-0.28-0.87-0.72-1.21-1.32c-0.38,0.78-0.84,1.36-1.39,1.76c-0.54,0.4-1.24,0.61-2.07,0.61
			c-1.4,0-2.58-0.51-3.57-1.52c-0.98-1.02-1.47-2.37-1.47-4.07c0-1.13,0.18-1.96,0.56-2.48c0.26-0.38,0.6-0.56,1.02-0.57
			c0.3,0,0.56,0.11,0.78,0.32c0.21,0.21,0.32,0.47,0.32,0.75c0,0.22-0.05,0.42-0.13,0.62c-0.05,0.11-0.35,0.48-0.87,1.13
			c-0.52,0.65-0.79,1.24-0.79,1.81c0,0.48,0.19,0.91,0.58,1.26c0.39,0.35,0.87,0.53,1.47,0.52c0.9,0,1.73-0.32,2.5-0.95
			C530.04,264.03,530.56,263.1,530.85,261.88z"/>
		<path fill="#231F20" d="M530.84,278.41c-1.34,0-2.59-0.19-3.75-0.56c-0.71-0.23-1.29-0.52-1.75-0.91
			c-0.46-0.38-0.82-0.81-1.08-1.29c-0.27-0.48-0.4-1.01-0.4-1.57c0-0.65,0.17-1.23,0.49-1.75c0.33-0.53,0.8-0.98,1.41-1.39
			c0.44-0.29,1.04-0.54,1.79-0.76c1.01-0.29,2.05-0.43,3.12-0.43c1.46,0,2.79,0.2,4.02,0.61c1.01,0.34,1.79,0.85,2.32,1.54
			c0.54,0.69,0.8,1.41,0.81,2.18c0,0.77-0.27,1.51-0.8,2.18c-0.53,0.68-1.24,1.18-2.14,1.49
			C533.65,278.18,532.31,278.4,530.84,278.41z M530.86,275.36c2.34,0,3.71-0.02,4.11-0.04c0.92-0.07,1.54-0.22,1.86-0.48
			c0.21-0.17,0.32-0.43,0.31-0.8c0-0.29-0.08-0.51-0.24-0.67c-0.23-0.25-0.64-0.41-1.22-0.49c-0.59-0.08-2.62-0.12-6.11-0.13
			c-1.89,0-3.17,0.07-3.82,0.2c-0.47,0.1-0.78,0.24-0.94,0.43c-0.15,0.19-0.24,0.43-0.24,0.73c0,0.34,0.1,0.58,0.31,0.73
			c0.37,0.28,0.94,0.44,1.71,0.48L530.86,275.36z"/>
	</g>
	<g enable-background="new    ">
		<path fill="#231F20" d="M523.52,214.38l9.61,4.77l0.21,1.19l-8.51,1.5l0.21,1.21l-2.02,0.36l-0.22-1.21l-2.96,0.52l-0.48-2.68
			l2.96-0.52l-0.85-4.78L523.52,214.38z M523.68,215.32l0.68,3.84l5.21-0.92L523.68,215.32z"/>
		<path fill="#231F20" d="M528.46,232.82c-1.32,0.23-2.58,0.27-3.79,0.1c-0.74-0.09-1.37-0.29-1.88-0.59s-0.95-0.66-1.29-1.08
			c-0.34-0.43-0.57-0.92-0.67-1.48c-0.11-0.64-0.05-1.24,0.18-1.81c0.23-0.57,0.62-1.11,1.15-1.61c0.39-0.36,0.93-0.72,1.63-1.06
			c0.95-0.46,1.94-0.77,3-0.97c1.44-0.25,2.79-0.29,4.06-0.09c1.05,0.16,1.9,0.52,2.55,1.1c0.65,0.58,1.04,1.24,1.18,2.01
			c0.13,0.77,0,1.52-0.41,2.28c-0.4,0.76-1.02,1.37-1.85,1.84C531.19,232.11,529.9,232.57,528.46,232.82z M527.94,229.81
			c2.31-0.41,3.66-0.66,4.04-0.75c0.89-0.23,1.47-0.49,1.75-0.79c0.17-0.2,0.23-0.48,0.18-0.85c-0.05-0.28-0.17-0.49-0.35-0.62
			c-0.27-0.2-0.7-0.29-1.29-0.27c-0.59,0.02-2.61,0.33-6.04,0.94c-1.87,0.33-3.11,0.62-3.73,0.86c-0.44,0.18-0.73,0.38-0.85,0.58
			c-0.13,0.2-0.16,0.46-0.1,0.76c0.06,0.32,0.21,0.55,0.44,0.68c0.41,0.21,1,0.27,1.77,0.17L527.94,229.81z"/>
	</g>
	<g enable-background="new    ">
		<path fill="#231F20" d="M518.57,170.53l2.15,5.9l-2.74-0.07l-1.81-4.97l-1.43-0.02c0.7,2.17,0.76,4,0.2,5.52
			c-0.46,1.24-1.31,2.09-2.51,2.53c-0.77,0.28-1.62,0.34-2.51,0.17c-0.89-0.17-1.69-0.58-2.39-1.24c-0.7-0.65-1.21-1.46-1.56-2.41
			c-0.38-1.03-0.47-1.89-0.29-2.58c0.13-0.49,0.37-0.79,0.72-0.91c0.27-0.1,0.54-0.08,0.82,0.04c0.27,0.12,0.47,0.33,0.56,0.59
			c0.09,0.25,0.13,0.5,0.12,0.79c-0.01,0.28-0.12,0.8-0.32,1.56c-0.12,0.47-0.19,0.86-0.18,1.18c0,0.22,0.04,0.45,0.13,0.7
			c0.18,0.51,0.53,0.87,1.03,1.09c0.5,0.22,1.02,0.24,1.54,0.04c1.09-0.4,1.78-1.26,2.07-2.61c0.29-1.34,0.12-2.84-0.48-4.5
			c-0.07-0.16-0.16-0.41-0.28-0.75L518.57,170.53z"/>
		<path fill="#231F20" d="M517.89,188.26c-1.26,0.46-2.5,0.71-3.71,0.76c-0.75,0.03-1.4-0.05-1.96-0.25
			c-0.56-0.19-1.05-0.48-1.46-0.84c-0.42-0.36-0.72-0.81-0.92-1.33c-0.22-0.61-0.27-1.22-0.13-1.82c0.13-0.61,0.42-1.2,0.85-1.78
			c0.33-0.42,0.8-0.87,1.42-1.33c0.85-0.62,1.78-1.1,2.79-1.47c1.37-0.5,2.69-0.77,3.98-0.8c1.07-0.03,1.96,0.18,2.71,0.65
			c0.74,0.46,1.24,1.05,1.5,1.77c0.27,0.73,0.26,1.5,0,2.32s-0.77,1.53-1.51,2.13C520.46,187.08,519.27,187.76,517.89,188.26z
			 M516.87,185.38c2.21-0.81,3.48-1.28,3.84-1.44c0.84-0.37,1.37-0.73,1.58-1.08c0.14-0.23,0.15-0.52,0.02-0.86
			c-0.1-0.27-0.25-0.45-0.46-0.55c-0.3-0.15-0.74-0.16-1.31-0.04c-0.58,0.12-2.5,0.77-5.79,1.97c-1.78,0.65-2.96,1.15-3.52,1.49
			c-0.41,0.25-0.65,0.49-0.74,0.72c-0.08,0.23-0.07,0.49,0.03,0.77c0.11,0.31,0.3,0.51,0.55,0.58c0.44,0.14,1.03,0.09,1.77-0.15
			L516.87,185.38z"/>
	</g>
	<g enable-background="new    ">
		<path fill="#231F20" d="M501.14,134.25l-0.24,0.14c-0.87-0.88-1.67-1.52-2.45-1.9c-0.78-0.39-1.56-0.59-2.36-0.61
			c-0.8-0.03-1.7,0.12-2.68,0.43c0.32,0.15,0.55,0.29,0.7,0.44c0.33,0.31,0.6,0.65,0.82,1.03c0.5,0.87,0.6,1.78,0.31,2.72
			c-0.3,0.94-0.99,1.73-2.08,2.36c-0.77,0.45-1.56,0.7-2.38,0.75c-0.82,0.06-1.58-0.11-2.25-0.48c-0.69-0.37-1.21-0.9-1.59-1.55
			c-0.41-0.71-0.6-1.49-0.56-2.32c0.04-0.83,0.34-1.64,0.9-2.42c0.55-0.78,1.28-1.42,2.16-1.93c1.3-0.75,2.69-1.14,4.18-1.16
			c1.48-0.02,2.89,0.35,4.22,1.12C499.16,131.63,500.26,132.75,501.14,134.25z M492.64,132.59c-0.81,0.41-1.41,0.72-1.77,0.93
			c-0.79,0.45-1.5,0.97-2.15,1.55c-0.64,0.58-1.05,1.08-1.19,1.52c-0.1,0.31-0.07,0.59,0.07,0.85c0.15,0.26,0.45,0.41,0.87,0.44
			c0.42,0.03,1.1-0.23,2.04-0.77c1.58-0.91,2.56-1.73,2.93-2.47c0.25-0.47,0.25-0.92,0.01-1.33
			C493.31,133.09,493.05,132.85,492.64,132.59z"/>
		<path fill="#231F20" d="M500.1,146.4c-1.16,0.67-2.34,1.13-3.52,1.39c-0.73,0.16-1.38,0.2-1.97,0.09
			c-0.58-0.11-1.11-0.29-1.58-0.58c-0.47-0.28-0.85-0.67-1.13-1.16c-0.32-0.56-0.47-1.15-0.45-1.76c0.02-0.62,0.2-1.26,0.53-1.91
			c0.24-0.47,0.63-1,1.17-1.55c0.73-0.74,1.57-1.39,2.49-1.94c1.26-0.73,2.53-1.22,3.78-1.48c1.05-0.22,1.97-0.16,2.78,0.17
			c0.81,0.33,1.41,0.82,1.79,1.48c0.39,0.67,0.52,1.43,0.4,2.29c-0.12,0.85-0.5,1.64-1.11,2.36
			C502.43,144.8,501.38,145.67,500.1,146.4z M498.6,143.76c2.03-1.17,3.22-1.87,3.54-2.09c0.76-0.52,1.21-0.96,1.37-1.34
			c0.1-0.25,0.06-0.53-0.13-0.85c-0.15-0.25-0.32-0.4-0.54-0.46c-0.33-0.1-0.75-0.03-1.3,0.18c-0.55,0.21-2.33,1.21-5.36,2.95
			c-1.65,0.95-2.71,1.64-3.21,2.08c-0.36,0.32-0.56,0.6-0.6,0.84c-0.04,0.24,0.01,0.49,0.16,0.75c0.17,0.29,0.38,0.45,0.64,0.49
			c0.46,0.05,1.04-0.09,1.73-0.45L498.6,143.76z"/>
	</g>
	<g enable-background="new    ">
		<path fill="#231F20" d="M434.73,66.05c0.28,1.14,0.37,2.05,0.26,2.75s-0.4,1.34-0.9,1.93c-0.7,0.83-1.6,1.27-2.7,1.32
			c-1.1,0.05-2.2-0.38-3.26-1.27c-1.01-0.85-1.59-1.76-1.73-2.73c-0.14-0.97,0.1-1.81,0.7-2.54c0.47-0.55,1.03-0.9,1.7-1.04
			c0.67-0.14,1.52-0.08,2.56,0.21c-0.3-1.3-0.39-2.25-0.29-2.84c0.1-0.59,0.37-1.14,0.81-1.66c0.58-0.68,1.38-1.05,2.4-1.08
			c1.02-0.03,2.05,0.37,3.06,1.22c0.98,0.82,1.54,1.69,1.68,2.59c0.14,0.9-0.06,1.69-0.61,2.33c-0.4,0.48-0.91,0.79-1.5,0.92
			C436.31,66.28,435.58,66.25,434.73,66.05z M431.62,65.51c-0.27,0.02-0.5,0.05-0.66,0.1c-0.25,0.1-0.56,0.28-0.92,0.54
			c-0.37,0.27-0.7,0.59-1.02,0.96c-0.4,0.47-0.67,0.93-0.82,1.35c-0.15,0.42-0.17,0.8-0.06,1.13c0.11,0.33,0.28,0.6,0.51,0.79
			c0.37,0.3,0.79,0.43,1.27,0.38c0.48-0.06,0.92-0.33,1.31-0.79C432.07,69,432.19,67.51,431.62,65.51z M434.48,65.18
			c0.4-0.09,0.78-0.27,1.13-0.5c0.36-0.23,0.68-0.54,1-0.91c0.55-0.65,0.83-1.28,0.85-1.87c0.01-0.44-0.17-0.83-0.54-1.14
			c-0.34-0.29-0.73-0.4-1.17-0.35c-0.44,0.05-0.82,0.26-1.13,0.61c-0.3,0.37-0.5,0.87-0.57,1.48
			C433.98,63.11,434.12,64.01,434.48,65.18z"/>
		<path fill="#231F20" d="M443.84,74.82c-0.86,1.03-1.8,1.87-2.84,2.51c-0.62,0.4-1.24,0.66-1.82,0.76c-0.58,0.1-1.14,0.1-1.68,0
			c-0.54-0.1-1.03-0.34-1.46-0.71c-0.5-0.41-0.83-0.92-1.03-1.5c-0.19-0.58-0.24-1.25-0.16-1.97c0.06-0.53,0.26-1.15,0.57-1.87
			c0.43-0.95,0.99-1.84,1.68-2.67c0.94-1.12,1.96-2.01,3.05-2.69c0.91-0.56,1.79-0.82,2.66-0.8s1.6,0.29,2.18,0.77
			c0.6,0.51,0.99,1.17,1.16,2.01c0.17,0.84,0.1,1.71-0.24,2.6C445.48,72.53,444.78,73.7,443.84,74.82z M441.52,72.85
			c1.51-1.8,2.37-2.86,2.6-3.17c0.54-0.75,0.81-1.32,0.83-1.72c0.01-0.27-0.13-0.52-0.41-0.75c-0.22-0.18-0.44-0.26-0.67-0.25
			c-0.33,0.02-0.72,0.23-1.17,0.62c-0.44,0.39-1.78,1.93-4.03,4.6c-1.22,1.46-1.98,2.47-2.3,3.05c-0.22,0.43-0.32,0.75-0.27,1
			c0.04,0.24,0.17,0.46,0.41,0.65c0.25,0.21,0.51,0.29,0.77,0.24c0.45-0.1,0.94-0.44,1.47-1L441.52,72.85z"/>
	</g>
	<g enable-background="new    ">
		<path fill="#231F20" d="M387.31,43.77l0.14-0.24c1.07,0.33,2.06,0.47,2.97,0.43c0.9-0.05,1.73-0.26,2.47-0.66
			c0.74-0.4,1.43-0.96,2.05-1.68c-0.46-0.02-0.84-0.07-1.12-0.14c-0.29-0.08-0.57-0.19-0.85-0.35c-0.88-0.51-1.43-1.25-1.65-2.22
			s-0.01-2,0.63-3.11c0.44-0.76,1-1.37,1.69-1.83c0.69-0.46,1.43-0.69,2.21-0.7c0.79-0.01,1.51,0.17,2.14,0.53
			c0.68,0.39,1.22,0.95,1.6,1.69c0.38,0.74,0.54,1.58,0.47,2.52c-0.06,0.95-0.37,1.89-0.92,2.83c-0.7,1.22-1.67,2.22-2.9,3.01
			c-1.23,0.78-2.62,1.18-4.17,1.19C390.5,45.05,388.93,44.63,387.31,43.77z M395.48,40.97c0.43-0.61,0.78-1.15,1.06-1.64
			c0.6-1.04,1.04-2.08,1.31-3.11c0.15-0.57,0.16-1.06,0.03-1.45c-0.07-0.21-0.22-0.38-0.44-0.51c-0.29-0.16-0.58-0.17-0.88-0.02
			c-0.42,0.21-0.9,0.78-1.45,1.74c-0.91,1.59-1.35,2.79-1.32,3.6c0.02,0.53,0.25,0.92,0.66,1.16
			C394.66,40.87,395.01,40.94,395.48,40.97z"/>
		<path fill="#231F20" d="M407.17,47.17c-0.67,1.16-1.46,2.15-2.36,2.97c-0.54,0.5-1.11,0.86-1.66,1.06
			c-0.55,0.2-1.11,0.31-1.66,0.29c-0.55-0.01-1.07-0.16-1.56-0.44c-0.56-0.32-0.98-0.76-1.27-1.31c-0.29-0.55-0.45-1.18-0.49-1.92
			c-0.03-0.53,0.05-1.17,0.24-1.93c0.26-1.01,0.65-1.99,1.19-2.93c0.73-1.26,1.57-2.33,2.54-3.18c0.8-0.71,1.63-1.12,2.48-1.25
			c0.87-0.12,1.63,0,2.29,0.39c0.68,0.39,1.17,0.99,1.49,1.78c0.33,0.8,0.39,1.67,0.22,2.6C408.38,44.61,407.9,45.89,407.17,47.17z
			 M404.53,45.63c1.17-2.04,1.85-3.23,2.02-3.58c0.4-0.83,0.58-1.44,0.51-1.85c-0.04-0.27-0.21-0.49-0.53-0.68
			c-0.24-0.14-0.48-0.19-0.7-0.13c-0.32,0.08-0.67,0.35-1.04,0.81c-0.37,0.46-1.42,2.2-3.17,5.23c-0.95,1.65-1.52,2.78-1.73,3.41
			c-0.15,0.46-0.18,0.8-0.1,1.03c0.08,0.23,0.25,0.42,0.51,0.57c0.29,0.17,0.56,0.19,0.8,0.09c0.43-0.18,0.85-0.59,1.27-1.24
			L404.53,45.63z"/>
	</g>
	<g enable-background="new    ">
		<path fill="#231F20" d="M355.07,21.66c0.65,0.98,1.05,1.81,1.19,2.49c0.14,0.68,0.07,1.39-0.18,2.12
			c-0.37,1.02-1.06,1.74-2.09,2.17c-1.02,0.43-2.19,0.4-3.5-0.08c-1.25-0.45-2.1-1.11-2.56-1.97c-0.46-0.86-0.52-1.73-0.21-2.62
			c0.24-0.68,0.65-1.19,1.23-1.56c0.58-0.37,1.4-0.59,2.47-0.69c-0.72-1.13-1.13-1.98-1.25-2.57c-0.1-0.58-0.04-1.2,0.19-1.83
			c0.3-0.84,0.93-1.46,1.88-1.84c0.94-0.38,2.04-0.34,3.29,0.11c1.2,0.44,2.03,1.05,2.47,1.86c0.44,0.8,0.52,1.6,0.23,2.4
			c-0.21,0.59-0.59,1.06-1.1,1.39C356.63,21.35,355.93,21.56,355.07,21.66z M351.96,22.21c-0.26,0.11-0.45,0.22-0.58,0.32
			c-0.2,0.17-0.43,0.44-0.68,0.83c-0.25,0.38-0.46,0.8-0.63,1.24c-0.21,0.58-0.31,1.1-0.31,1.54c0.01,0.44,0.11,0.8,0.33,1.08
			c0.21,0.27,0.46,0.46,0.75,0.57c0.45,0.17,0.89,0.13,1.33-0.08c0.43-0.22,0.75-0.62,0.96-1.19
			C353.57,25.34,353.18,23.9,351.96,22.21z M354.53,20.93c0.34-0.23,0.64-0.51,0.88-0.85c0.25-0.34,0.46-0.75,0.63-1.21
			c0.29-0.8,0.34-1.49,0.15-2.04c-0.14-0.42-0.44-0.72-0.9-0.89c-0.42-0.15-0.83-0.13-1.23,0.07c-0.4,0.2-0.68,0.52-0.85,0.97
			c-0.17,0.45-0.17,0.98-0.02,1.58C353.36,19.17,353.8,19.95,354.53,20.93z"/>
		<path fill="#231F20" d="M366.62,26.79c-0.46,1.26-1.06,2.37-1.81,3.33c-0.46,0.59-0.93,1.04-1.45,1.33
			c-0.51,0.29-1.05,0.49-1.58,0.58c-0.55,0.09-1.08,0.03-1.62-0.16c-0.61-0.22-1.1-0.58-1.48-1.06c-0.38-0.48-0.65-1.09-0.82-1.8
			c-0.12-0.52-0.16-1.17-0.1-1.94c0.08-1.04,0.3-2.08,0.67-3.08c0.5-1.37,1.15-2.56,1.95-3.56c0.66-0.83,1.41-1.38,2.24-1.65
			c0.83-0.27,1.6-0.28,2.32-0.01c0.74,0.26,1.33,0.76,1.78,1.5c0.45,0.73,0.68,1.57,0.67,2.52
			C367.37,24.07,367.13,25.41,366.62,26.79z M363.77,25.73c0.8-2.21,1.26-3.5,1.37-3.87c0.25-0.88,0.31-1.52,0.19-1.91
			c-0.08-0.26-0.3-0.45-0.64-0.57c-0.27-0.1-0.51-0.1-0.71-0.01c-0.31,0.13-0.6,0.46-0.89,0.98c-0.28,0.52-1.01,2.42-2.21,5.7
			c-0.65,1.79-1.02,3-1.11,3.65c-0.07,0.48-0.04,0.82,0.08,1.03c0.12,0.21,0.32,0.37,0.6,0.48c0.32,0.11,0.58,0.1,0.81-0.04
			c0.39-0.25,0.73-0.73,1.03-1.45L363.77,25.73z"/>
	</g>
	<g enable-background="new    ">
		<path fill="#231F20" d="M305.9,17.6l5.51-10.27l-2.74-0.48c-1.07-0.19-1.9-0.18-2.49,0c-0.41,0.13-0.79,0.45-1.13,0.94l-0.37-0.06
			l1.68-3.94l7.87,1.39l-6.81,12.71L305.9,17.6z"/>
		<path fill="#231F20" d="M322.8,13.48c-0.23,1.32-0.63,2.52-1.21,3.6c-0.35,0.66-0.74,1.19-1.2,1.57
			c-0.45,0.39-0.93,0.66-1.46,0.85c-0.52,0.18-1.06,0.22-1.62,0.13c-0.64-0.11-1.18-0.37-1.64-0.8c-0.45-0.41-0.83-0.96-1.12-1.64
			c-0.21-0.49-0.35-1.13-0.44-1.89c-0.1-1.04-0.06-2.09,0.12-3.15c0.25-1.44,0.69-2.72,1.3-3.86c0.5-0.93,1.14-1.6,1.91-2.01
			c0.77-0.41,1.53-0.55,2.28-0.42c0.77,0.13,1.44,0.52,2.01,1.16c0.58,0.64,0.94,1.43,1.1,2.36
			C323.07,10.67,323.06,12.04,322.8,13.48z M319.81,12.93c0.41-2.31,0.63-3.66,0.67-4.05c0.09-0.92,0.04-1.56-0.14-1.92
			c-0.13-0.24-0.37-0.38-0.73-0.45c-0.28-0.05-0.51-0.01-0.7,0.12c-0.28,0.19-0.52,0.56-0.7,1.12s-0.58,2.56-1.19,6
			c-0.33,1.88-0.48,3.14-0.47,3.79c0.01,0.48,0.1,0.81,0.25,1c0.16,0.18,0.38,0.31,0.68,0.36c0.32,0.06,0.59,0,0.79-0.18
			c0.33-0.32,0.59-0.85,0.76-1.6L319.81,12.93z"/>
	</g>
	<g enable-background="new    ">
		<path fill="#231F20" d="M267.57,1.17l0,0.28c-1.19,0.3-2.16,0.7-2.87,1.17c-0.72,0.47-1.29,1.06-1.71,1.74
			c-0.42,0.68-0.75,1.53-0.98,2.54c0.29-0.2,0.53-0.33,0.72-0.39c0.43-0.13,0.86-0.19,1.29-0.2c1,0,1.83,0.37,2.51,1.09
			c0.68,0.73,1,1.72,1.01,2.98c0,0.89-0.18,1.7-0.54,2.44c-0.37,0.74-0.88,1.31-1.54,1.71c-0.67,0.4-1.38,0.6-2.14,0.6
			c-0.82,0-1.59-0.23-2.29-0.67s-1.25-1.11-1.64-1.98c-0.4-0.88-0.59-1.82-0.59-2.84c0-1.5,0.36-2.91,1.08-4.2
			c0.72-1.29,1.75-2.33,3.08-3.1C264.31,1.56,265.83,1.18,267.57,1.17z M261.89,7.7c-0.05,0.91-0.08,1.57-0.08,2
			c0,0.91,0.09,1.79,0.26,2.65c0.18,0.85,0.41,1.45,0.72,1.79c0.22,0.24,0.48,0.37,0.77,0.36c0.3,0,0.57-0.18,0.81-0.52
			c0.24-0.35,0.35-1.08,0.35-2.15c0-1.82-0.22-3.07-0.67-3.77c-0.28-0.45-0.66-0.67-1.15-0.67C262.64,7.38,262.3,7.48,261.89,7.7z"
			/>
		<path fill="#231F20" d="M277.57,8.15c0,1.34-0.19,2.59-0.56,3.75c-0.23,0.71-0.53,1.3-0.91,1.75c-0.38,0.45-0.81,0.82-1.29,1.08
			c-0.48,0.27-1,0.4-1.57,0.4c-0.65,0-1.23-0.17-1.75-0.49c-0.52-0.34-0.98-0.8-1.39-1.41c-0.29-0.44-0.54-1.04-0.76-1.79
			c-0.29-1.01-0.42-2.05-0.43-3.12c0-1.46,0.2-2.79,0.61-4.02c0.34-1.01,0.85-1.79,1.54-2.32c0.69-0.54,1.41-0.8,2.18-0.81
			c0.78,0,1.51,0.27,2.18,0.8c0.68,0.53,1.18,1.24,1.49,2.14C277.36,5.33,277.57,6.68,277.57,8.15z M274.52,8.13
			c0-2.34-0.02-3.71-0.04-4.11c-0.07-0.92-0.22-1.54-0.48-1.85c-0.17-0.21-0.43-0.32-0.8-0.31c-0.29,0-0.51,0.08-0.67,0.24
			c-0.25,0.23-0.41,0.64-0.5,1.22c-0.08,0.59-0.12,2.62-0.13,6.11c0,1.89,0.07,3.17,0.2,3.82c0.1,0.47,0.24,0.78,0.43,0.94
			c0.19,0.15,0.43,0.24,0.73,0.24c0.34,0,0.58-0.1,0.73-0.31c0.28-0.37,0.44-0.94,0.48-1.71L274.52,8.13z"/>
	</g>
	<g enable-background="new    ">
		<path fill="#231F20" d="M214.56,6.74l6.18-1.1l-0.54,2.69L215,9.26l-0.27,1.41c2.26-0.31,4.08-0.06,5.47,0.76
			c1.15,0.67,1.83,1.65,2.05,2.91c0.14,0.81,0.05,1.65-0.27,2.5c-0.32,0.85-0.87,1.56-1.63,2.14c-0.76,0.56-1.65,0.94-2.64,1.12
			c-1.08,0.19-1.95,0.14-2.59-0.17c-0.45-0.21-0.71-0.5-0.78-0.87c-0.05-0.28,0.01-0.55,0.18-0.79c0.17-0.25,0.4-0.4,0.68-0.45
			c0.26-0.05,0.52-0.04,0.8,0.02c0.28,0.06,0.77,0.25,1.48,0.58c0.45,0.2,0.82,0.34,1.12,0.38c0.22,0.04,0.45,0.04,0.71-0.01
			c0.53-0.1,0.95-0.36,1.25-0.83c0.31-0.46,0.41-0.95,0.31-1.5c-0.21-1.15-0.94-1.97-2.2-2.48c-1.26-0.51-2.77-0.62-4.51-0.3
			c-0.18,0.03-0.44,0.08-0.79,0.15L214.56,6.74z"/>
		<path fill="#231F20" d="M231.91,10.5c0.23,1.32,0.27,2.58,0.1,3.79c-0.09,0.74-0.29,1.37-0.59,1.88
			c-0.29,0.51-0.66,0.95-1.08,1.29c-0.43,0.34-0.92,0.57-1.48,0.67c-0.64,0.11-1.24,0.05-1.81-0.18c-0.57-0.23-1.11-0.62-1.61-1.15
			c-0.36-0.39-0.72-0.93-1.06-1.63c-0.46-0.95-0.77-1.95-0.97-3.01c-0.25-1.44-0.29-2.79-0.09-4.06c0.16-1.05,0.52-1.9,1.1-2.55
			c0.58-0.65,1.24-1.04,2-1.18c0.77-0.13,1.52,0,2.28,0.4c0.76,0.4,1.37,1.02,1.84,1.85C231.2,7.76,231.65,9.05,231.91,10.5z
			 M228.91,11c-0.41-2.31-0.66-3.66-0.75-4.04c-0.22-0.89-0.49-1.47-0.79-1.75c-0.2-0.17-0.48-0.23-0.85-0.18
			c-0.28,0.05-0.49,0.17-0.62,0.35c-0.2,0.27-0.29,0.7-0.27,1.29c0.02,0.59,0.33,2.6,0.94,6.04c0.33,1.87,0.62,3.12,0.86,3.73
			c0.18,0.44,0.38,0.73,0.58,0.85c0.2,0.13,0.46,0.16,0.76,0.1c0.32-0.06,0.55-0.21,0.68-0.44c0.21-0.41,0.27-1,0.17-1.77L228.91,11
			z"/>
	</g>
	<g enable-background="new    ">
		<path fill="#231F20" d="M170.05,29.12l3.03-10.29l1.14-0.41l2.96,8.11l1.15-0.42l0.7,1.93l-1.15,0.42l1.03,2.82l-2.56,0.93
			l-1.03-2.82l-4.56,1.66L170.05,29.12z M170.95,28.79l3.67-1.34l-1.82-4.97L170.95,28.79z"/>
		<path fill="#231F20" d="M187.35,21.04c0.46,1.26,0.71,2.5,0.76,3.71c0.03,0.75-0.05,1.4-0.25,1.96c-0.19,0.56-0.48,1.05-0.84,1.46
			c-0.36,0.42-0.81,0.72-1.34,0.92c-0.61,0.21-1.22,0.27-1.82,0.13c-0.6-0.14-1.2-0.42-1.78-0.85c-0.42-0.32-0.87-0.79-1.33-1.42
			c-0.62-0.85-1.1-1.78-1.47-2.79c-0.5-1.37-0.76-2.7-0.8-3.98c-0.03-1.07,0.18-1.96,0.65-2.71c0.46-0.74,1.05-1.24,1.76-1.5
			c0.73-0.27,1.5-0.26,2.32,0s1.53,0.77,2.13,1.51C186.18,18.48,186.85,19.67,187.35,21.04z M184.48,22.07
			c-0.8-2.21-1.28-3.49-1.44-3.84c-0.37-0.84-0.73-1.37-1.08-1.58c-0.23-0.14-0.52-0.15-0.86-0.02c-0.27,0.1-0.45,0.25-0.55,0.46
			c-0.15,0.3-0.16,0.74-0.04,1.31c0.12,0.58,0.77,2.5,1.97,5.79c0.65,1.78,1.15,2.96,1.49,3.52c0.25,0.41,0.49,0.65,0.72,0.74
			c0.23,0.09,0.49,0.07,0.77-0.03c0.31-0.11,0.51-0.3,0.58-0.55c0.14-0.44,0.09-1.03-0.15-1.77L184.48,22.07z"/>
	</g>
	<g enable-background="new    ">
		<path fill="#231F20" d="M131.26,47.14l-0.18-0.3c0.54-0.56,0.89-1,1.05-1.31c0.16-0.31,0.23-0.69,0.22-1.12
			c-0.01-0.44-0.11-0.83-0.31-1.17c-0.27-0.47-0.68-0.78-1.22-0.92c-0.54-0.14-1.07-0.06-1.58,0.24c-0.8,0.46-1.23,1.28-1.31,2.44
			l-0.38,0.07c-0.15-1.19-0.03-2.21,0.33-3.06c0.36-0.85,0.94-1.5,1.73-1.96c0.8-0.46,1.61-0.61,2.42-0.42
			c0.8,0.19,1.4,0.61,1.78,1.27c0.25,0.43,0.36,0.91,0.35,1.45c-0.01,0.54-0.19,1.11-0.54,1.71c0.85-0.06,1.6,0.05,2.23,0.32
			c0.63,0.27,1.15,0.77,1.56,1.49c0.7,1.21,0.86,2.49,0.47,3.85c-0.39,1.36-1.32,2.46-2.79,3.31c-0.98,0.56-1.8,0.81-2.43,0.76
			c-0.46-0.04-0.8-0.24-1-0.6c-0.15-0.26-0.18-0.54-0.11-0.83c0.08-0.3,0.25-0.51,0.49-0.65c0.19-0.11,0.39-0.17,0.6-0.18
			c0.12-0.01,0.59,0.05,1.4,0.19c0.82,0.14,1.47,0.06,1.95-0.22c0.42-0.24,0.69-0.62,0.8-1.13c0.11-0.51,0.01-1.02-0.28-1.54
			c-0.45-0.78-1.14-1.34-2.07-1.69C133.54,46.76,132.46,46.78,131.26,47.14z"/>
		<path fill="#231F20" d="M145.58,38.89c0.67,1.16,1.13,2.34,1.39,3.52c0.16,0.73,0.2,1.38,0.09,1.97
			c-0.11,0.59-0.29,1.11-0.58,1.58c-0.28,0.47-0.67,0.85-1.16,1.13c-0.56,0.33-1.15,0.47-1.76,0.45c-0.62-0.02-1.26-0.2-1.91-0.53
			c-0.47-0.24-1-0.63-1.55-1.17c-0.75-0.73-1.39-1.57-1.93-2.5c-0.73-1.26-1.23-2.52-1.48-3.78c-0.22-1.05-0.16-1.97,0.17-2.78
			c0.33-0.8,0.82-1.41,1.48-1.79c0.67-0.39,1.43-0.52,2.29-0.4c0.85,0.12,1.64,0.5,2.36,1.11
			C143.98,36.56,144.85,37.61,145.58,38.89z M142.93,40.4c-1.17-2.03-1.87-3.22-2.09-3.54c-0.52-0.76-0.96-1.21-1.34-1.37
			c-0.25-0.1-0.53-0.05-0.85,0.13c-0.25,0.15-0.4,0.32-0.46,0.54c-0.09,0.33-0.03,0.75,0.18,1.31c0.21,0.55,1.21,2.33,2.95,5.36
			c0.95,1.65,1.64,2.71,2.09,3.21c0.32,0.36,0.6,0.56,0.84,0.6c0.24,0.05,0.49-0.01,0.75-0.16c0.29-0.17,0.45-0.38,0.49-0.64
			c0.06-0.46-0.1-1.04-0.45-1.72L142.93,40.4z"/>
	</g>
	<g enable-background="new    ">
		<path fill="#231F20" d="M102.93,76.2l-6.05,5.08l-0.15-0.17c0-3.76-0.13-6.19-0.37-7.29s-0.67-2-1.28-2.74
			c-0.44-0.53-0.98-0.83-1.6-0.91c-0.63-0.07-1.17,0.09-1.64,0.49c-0.78,0.65-1.06,1.55-0.83,2.68l-0.37,0.14
			c-0.54-1.2-0.73-2.27-0.56-3.2c0.17-0.93,0.61-1.7,1.33-2.31c0.52-0.44,1.1-0.72,1.73-0.84c0.63-0.12,1.25-0.07,1.84,0.15
			c0.6,0.22,1.05,0.51,1.36,0.88c0.56,0.67,0.95,1.51,1.16,2.52c0.28,1.36,0.26,3.6-0.05,6.72l2.22-1.86
			c0.54-0.46,0.88-0.79,1.01-0.97c0.13-0.18,0.19-0.37,0.21-0.57c0.01-0.2-0.03-0.54-0.15-1.04l0.27-0.23L102.93,76.2z"/>
		<path fill="#231F20" d="M107.13,63.91c0.86,1.03,1.52,2.1,1.98,3.23c0.29,0.68,0.43,1.33,0.44,1.93c0,0.59-0.09,1.15-0.29,1.66
			c-0.19,0.51-0.51,0.95-0.95,1.32c-0.49,0.42-1.05,0.66-1.66,0.75c-0.61,0.08-1.27,0.02-1.97-0.19c-0.51-0.16-1.09-0.45-1.73-0.88
			c-0.86-0.59-1.64-1.29-2.33-2.12c-0.94-1.12-1.64-2.28-2.11-3.47c-0.39-0.99-0.49-1.91-0.32-2.76c0.18-0.85,0.56-1.53,1.15-2.02
			c0.6-0.5,1.32-0.76,2.18-0.8c0.86-0.02,1.7,0.2,2.52,0.68C105.17,61.9,106.2,62.79,107.13,63.91z M104.79,65.85
			c-1.52-1.8-2.4-2.84-2.67-3.12c-0.64-0.66-1.16-1.03-1.56-1.12c-0.26-0.06-0.53,0.04-0.81,0.27c-0.22,0.18-0.34,0.39-0.36,0.61
			c-0.04,0.33,0.1,0.75,0.41,1.25c0.31,0.5,1.59,2.09,3.83,4.76c1.23,1.46,2.09,2.38,2.61,2.8c0.37,0.3,0.69,0.44,0.93,0.45
			c0.24,0,0.48-0.09,0.71-0.29c0.25-0.21,0.38-0.45,0.37-0.72c-0.02-0.46-0.28-1-0.74-1.62L104.79,65.85z"/>
	</g>
	<g enable-background="new    ">
		<path fill="#231F20" d="M60.32,100.55l8.41,7.05c0.63,0.53,1.06,0.84,1.28,0.93c0.22,0.09,0.46,0.09,0.72,0.01
			c0.26-0.08,0.55-0.32,0.88-0.71l0.19-0.23l0.28,0.23l-4.54,5.42l-0.28-0.23l0.23-0.27c0.37-0.44,0.58-0.79,0.64-1.06
			c0.05-0.27,0.02-0.52-0.1-0.73c-0.12-0.21-0.5-0.59-1.16-1.14l-5.33-4.47c-0.47-0.4-0.79-0.63-0.95-0.68
			c-0.15-0.05-0.33-0.05-0.52,0c-0.18,0.06-0.35,0.16-0.48,0.32c-0.22,0.26-0.4,0.63-0.54,1.14l-0.38-0.09l1.44-5.23L60.32,100.55z"
			/>
		<path fill="#231F20" d="M73.97,95.13c1.03,0.86,1.87,1.8,2.51,2.84c0.4,0.62,0.66,1.24,0.77,1.82c0.1,0.58,0.1,1.14,0,1.68
			c-0.1,0.54-0.34,1.03-0.71,1.46c-0.42,0.5-0.92,0.83-1.5,1.03c-0.59,0.19-1.25,0.24-1.97,0.16c-0.53-0.06-1.14-0.26-1.87-0.57
			c-0.95-0.43-1.84-0.99-2.67-1.68c-1.12-0.94-2.01-1.96-2.69-3.05c-0.56-0.91-0.83-1.79-0.8-2.66c0.03-0.87,0.29-1.6,0.77-2.19
			c0.51-0.6,1.17-0.99,2.01-1.16c0.84-0.17,1.71-0.1,2.6,0.23C71.67,93.49,72.85,94.19,73.97,95.13z M72.01,97.46
			c-1.8-1.51-2.86-2.37-3.17-2.6c-0.75-0.54-1.32-0.82-1.73-0.82c-0.27-0.01-0.52,0.13-0.75,0.41c-0.18,0.22-0.26,0.44-0.25,0.67
			c0.02,0.33,0.23,0.72,0.62,1.17c0.39,0.44,1.93,1.78,4.6,4.03c1.46,1.22,2.47,1.99,3.05,2.3c0.42,0.22,0.75,0.32,1,0.27
			c0.24-0.04,0.46-0.18,0.65-0.41c0.22-0.26,0.3-0.51,0.24-0.77c-0.1-0.45-0.44-0.94-1.01-1.46L72.01,97.46z"/>
	</g>
	<g enable-background="new    ">
		<path fill="#231F20" d="M459.43,100.35l10.83-4.33l-1.79-2.13c-0.7-0.83-1.34-1.37-1.9-1.6c-0.4-0.17-0.89-0.17-1.47-0.01
			l-0.24-0.29l3.81-1.94l5.14,6.12l-13.38,5.36L459.43,100.35z"/>
		<path fill="#231F20" d="M475.03,108.05c-1.03,0.86-2.1,1.52-3.24,1.98c-0.69,0.29-1.33,0.43-1.92,0.43c-0.59,0-1.15-0.1-1.66-0.29
			c-0.51-0.2-0.96-0.51-1.32-0.95c-0.42-0.5-0.67-1.05-0.75-1.66c-0.08-0.61-0.02-1.27,0.19-1.97c0.16-0.51,0.45-1.09,0.88-1.74
			c0.59-0.87,1.3-1.65,2.12-2.34c1.12-0.94,2.27-1.64,3.47-2.11c0.99-0.39,1.91-0.5,2.76-0.32c0.85,0.18,1.53,0.56,2.02,1.15
			c0.5,0.6,0.76,1.32,0.79,2.18c0.03,0.86-0.2,1.7-0.68,2.52C477.04,106.07,476.15,107.11,475.03,108.05z M473.08,105.71
			c1.8-1.51,2.84-2.4,3.12-2.67c0.66-0.64,1.03-1.16,1.12-1.56c0.05-0.26-0.04-0.53-0.27-0.82c-0.18-0.22-0.39-0.34-0.61-0.36
			c-0.33-0.04-0.75,0.1-1.25,0.41c-0.5,0.31-2.09,1.59-4.76,3.83c-1.46,1.22-2.39,2.09-2.8,2.61c-0.29,0.38-0.44,0.69-0.45,0.93
			s0.09,0.48,0.29,0.71c0.21,0.25,0.45,0.37,0.72,0.37c0.46-0.03,1-0.27,1.62-0.74L473.08,105.71z"/>
	</g>
</g>
</svg>
