<?xml version="1.0" encoding="utf-8"?>
<!-- Generator: Adobe Illustrator 16.0.0, SVG Export Plug-In . SVG Version: 6.00 Build 0)  -->
<!DOCTYPE svg PUBLIC "-//W3C//DTD SVG 1.1//EN" "http://www.w3.org/Graphics/SVG/1.1/DTD/svg11.dtd">
<svg version="1.1" xmlns="http://www.w3.org/2000/svg" xmlns:xlink="http://www.w3.org/1999/xlink" x="0px" y="0px" width="172px"
	 height="104px" viewBox="0 0 172 104" enable-background="new 0 0 172 104" xml:space="preserve">
<g id="BG">
</g>
<g id="Dome">
	<polygon fill-rule="evenodd" clip-rule="evenodd" fill="#333333" points="44.35,72.7 44.85,72.7 44.35,73.2 	"/>
	<g>
		<g>
			<g>
				<linearGradient id="SVGID_1_" gradientUnits="userSpaceOnUse" x1="6.7021" y1="-4.3975" x2="165.1296" y2="31.4918">
					<stop  offset="0" style="stop-color:#82786D"/>
					<stop  offset="0.349" style="stop-color:#82786D"/>
					<stop  offset="0.5098" style="stop-color:#A69A8D"/>
					<stop  offset="0.8784" style="stop-color:#82786D"/>
					<stop  offset="1" style="stop-color:#6B6359"/>
					<stop  offset="1" style="stop-color:#8A4D1E"/>
					<stop  offset="1" style="stop-color:#8A4D1E"/>
				</linearGradient>
				<polygon fill-rule="evenodd" clip-rule="evenodd" fill="url(#SVGID_1_)" points="167.3,23.05 166.83,23.05 166.67,23.05 
					153.1,23.05 137.95,23.05 20.85,23.05 4.78,23.05 8.42,2.9 20.85,2.9 20.85,19.65 153.1,19.65 153.1,2.9 162,2.9 167.35,23.05 
									"/>
				
					<linearGradient id="SVGID_2_" gradientUnits="userSpaceOnUse" x1="223.7061" y1="-405.2725" x2="268.9415" y2="-405.2725" gradientTransform="matrix(0.7256 0.6881 -0.8489 0.5731 -452.657 79.667)">
					<stop  offset="3.921569e-003" style="stop-color:#ABA298"/>
					<stop  offset="1" style="stop-color:#796F63"/>
				</linearGradient>
				<polygon fill-rule="evenodd" clip-rule="evenodd" fill="url(#SVGID_2_)" points="3.9,40.05 4.75,23.05 4.78,23.05 20.85,23.05 
					137.95,23.05 153.1,23.05 166.67,23.05 166.83,23.05 167.3,23.05 168.35,38.4 168.45,40.05 153.35,40.05 153.35,38.4 21.1,38.4 
					21.1,40.05 				"/>
				<path fill-rule="evenodd" clip-rule="evenodd" fill="#B1A89F" d="M153.35,40.05h15.1v1.6h-15.1V40.05z M3.9,40.05h17.2v1.6H3.9
					V40.05z"/>
				<path fill-rule="evenodd" clip-rule="evenodd" fill="#43342F" d="M168.45,41.65v1.65h-15.1v-1.65H168.45z M21.1,41.65v1.65H3.9
					v-1.65H21.1z"/>
				
					<linearGradient id="SVGID_3_" gradientUnits="userSpaceOnUse" x1="-922.7344" y1="-65.5537" x2="-875.6493" y2="-65.5537" gradientTransform="matrix(-0.2134 -0.977 0.9931 -0.1396 -41.2565 -834.088)">
					<stop  offset="3.921569e-003" style="stop-color:#ABA298"/>
					<stop  offset="1" style="stop-color:#796F63"/>
				</linearGradient>
				<path fill-rule="evenodd" clip-rule="evenodd" fill="url(#SVGID_3_)" d="M168.45,43.3h0.25l1.5,20.75h-16.85V43.3H168.45z
					 M3.9,43.3h17.2v20.75H2.5L3.65,43.3H3.9z"/>
				<path fill-rule="evenodd" clip-rule="evenodd" fill="#5B5147" d="M153.35,64.05h16.85v3.1v0.6h-16.85V64.05z M21.1,64.05v3.38
					c-0.01,0.11-0.02,0.22-0.02,0.33H2.67c-0.05-0.1-0.11-0.2-0.17-0.3v-3.4H21.1z"/>
				<linearGradient id="SVGID_4_" gradientUnits="userSpaceOnUse" x1="2.5" y1="84.6123" x2="132.875" y2="84.6123">
					<stop  offset="3.921569e-003" style="stop-color:#ABA298"/>
					<stop  offset="1" style="stop-color:#796F63"/>
				</linearGradient>
				<path fill-rule="evenodd" clip-rule="evenodd" fill="url(#SVGID_4_)" d="M153.35,67.75h16.85V83.5v10.2v8.1h-16.85h-15.4H21.1
					H2.5V67.75v-0.3c0.06,0.1,0.12,0.2,0.17,0.3h18.4c0.01-0.11,0.02-0.22,0.02-0.33V93.7h132.25V67.75z"/>
			</g>
			<g>
				<linearGradient id="SVGID_5_" gradientUnits="userSpaceOnUse" x1="4.7998" y1="23.5" x2="167.3496" y2="23.5">
					<stop  offset="0" style="stop-color:#FFFFFF;stop-opacity:0"/>
					<stop  offset="0.5098" style="stop-color:#FFFFFF;stop-opacity:0.5529"/>
					<stop  offset="1" style="stop-color:#FFFFFF;stop-opacity:0.3137"/>
					<stop  offset="1" style="stop-color:#8A4D1E"/>
					<stop  offset="1" style="stop-color:#8A4D1E"/>
				</linearGradient>
				<rect x="4.8" y="23" fill-rule="evenodd" clip-rule="evenodd" fill="url(#SVGID_5_)" width="162.55" height="1"/>
			</g>
		</g>
		<g>
			
				<linearGradient id="SVGID_6_" gradientUnits="userSpaceOnUse" x1="-1062.2764" y1="-367.9004" x2="-1058.1212" y2="-367.9004" gradientTransform="matrix(-0.722 -0.6919 0.7204 -0.6947 -343.0526 -957.2906)">
				<stop  offset="0" style="stop-color:#696E74"/>
				<stop  offset="1" style="stop-color:#424041"/>
			</linearGradient>
			<path fill-rule="evenodd" clip-rule="evenodd" fill="url(#SVGID_6_)" d="M155.75,28.5h-0.3c-0.13,0-0.27,0-0.4,0h-0.15h-0.1v-0.1
				c0.43-0.13,0.85-0.2,1.25-0.2c0.5,0,0.93,0.07,1.3,0.2h0.1c0.1,0,0.18,0.03,0.25,0.1c0.53,0.27,1.05,0.6,1.55,1
				c0.83,0.9,1.25,1.95,1.25,3.15v0.6c0,0.13,0,0.3,0,0.5c-0.2,0.7-0.62,1.32-1.25,1.85c-0.3,0.2-0.55,0.43-0.75,0.7
				c-0.07,0.13-0.23,0.23-0.5,0.3v-0.1c0.27-0.13,0.47-0.33,0.6-0.6c0.97-0.8,1.45-1.82,1.45-3.05c0-1.2-0.48-2.25-1.45-3.15
				C157.77,28.9,156.82,28.5,155.75,28.5z"/>
			
				<linearGradient id="SVGID_7_" gradientUnits="userSpaceOnUse" x1="-987.6411" y1="-100.3887" x2="-982.8025" y2="-100.3887" gradientTransform="matrix(-0.3927 -0.9197 0.9246 -0.3811 -136.205 -912.512)">
				<stop  offset="0" style="stop-color:#B9BDBE"/>
				<stop  offset="1" style="stop-color:#606068"/>
			</linearGradient>
			<path fill-rule="evenodd" clip-rule="evenodd" fill="url(#SVGID_7_)" d="M158,36.5l-0.2,0.1l-0.1-0.1c0.2-0.13,0.37-0.27,0.5-0.4
				c0.9-0.87,1.35-1.85,1.35-2.95v-0.2c0-1.2-0.45-2.25-1.35-3.15c-0.4-0.4-0.9-0.7-1.5-0.9c-0.43-0.26-0.74-0.4-0.95-0.4
				c1.07,0,2.02,0.4,2.85,1.2c0.97,0.9,1.45,1.95,1.45,3.15c0,1.23-0.48,2.25-1.45,3.05C158.47,36.17,158.27,36.37,158,36.5z"/>
			
				<linearGradient id="SVGID_8_" gradientUnits="userSpaceOnUse" x1="-972.2363" y1="-76.5391" x2="-963.6746" y2="-76.5391" gradientTransform="matrix(-0.3562 -0.9344 0.9437 -0.3318 -114.7704 -897.6369)">
				<stop  offset="0" style="stop-color:#666C7A"/>
				<stop  offset="1" style="stop-color:#494E61"/>
			</linearGradient>
			<path fill-rule="evenodd" clip-rule="evenodd" fill="url(#SVGID_8_)" d="M157.7,36.5v-0.2l-2.8-7.8h0.15c0.13,0,0.27,0,0.4,0h0.3
				c0.21,0,0.52,0.14,0.95,0.4c0.6,0.2,1.1,0.5,1.5,0.9c0.9,0.9,1.35,1.95,1.35,3.15v0.2c0,1.1-0.45,2.08-1.35,2.95
				C158.07,36.23,157.9,36.37,157.7,36.5z"/>
			<path fill-rule="evenodd" clip-rule="evenodd" fill="#605D68" d="M154.8,28.4c-0.13,0-0.27,0.03-0.4,0.1h-0.2
				c-0.13,0-0.2,0.07-0.2,0.2v-0.3c0.53-0.2,1.08-0.3,1.65-0.3h0.1c0.57,0,1.1,0.1,1.6,0.3c-0.37-0.13-0.8-0.2-1.3-0.2
				C155.65,28.2,155.23,28.27,154.8,28.4z"/>
			<path fill-rule="evenodd" clip-rule="evenodd" fill="#6B6A70" d="M153.15,29l-0.1,0.2h-0.1v-0.3h0.1c0-0.13,0.03-0.2,0.1-0.2V29z
				"/>
			<path fill-rule="evenodd" clip-rule="evenodd" fill="#38373C" d="M153.15,28.7c0.27-0.13,0.55-0.23,0.85-0.3v0.3l-0.2,0.2h-0.05
				c-0.22,0.01-0.42,0.04-0.6,0.1V28.7z"/>
			
				<linearGradient id="SVGID_9_" gradientUnits="userSpaceOnUse" x1="-1021.1138" y1="-196.0869" x2="-1015.4371" y2="-196.0869" gradientTransform="matrix(-0.5197 -0.8544 0.8752 -0.4855 -203.8762 -931.3327)">
				<stop  offset="0" style="stop-color:#5F6170"/>
				<stop  offset="1" style="stop-color:#7C7C7C"/>
			</linearGradient>
			<path fill-rule="evenodd" clip-rule="evenodd" fill="url(#SVGID_9_)" d="M153.05,29.3l3,7.6h-0.2c-0.83,0-1.6-0.2-2.3-0.6
				c-0.27-0.27-0.47-0.5-0.6-0.7c-1-0.77-1.5-1.75-1.5-2.95c0-1,0.2-1.82,0.6-2.45c0.3-0.27,0.6-0.5,0.9-0.7L153.05,29.3z"/>
			
				<linearGradient id="SVGID_10_" gradientUnits="userSpaceOnUse" x1="-1059.4561" y1="-371.708" x2="-1056.9629" y2="-371.708" gradientTransform="matrix(-0.722 -0.6919 0.7218 -0.6933 -342.4695 -956.7313)">
				<stop  offset="0" style="stop-color:#E8E8E0"/>
				<stop  offset="1" style="stop-color:#535258"/>
			</linearGradient>
			<path fill-rule="evenodd" clip-rule="evenodd" fill="url(#SVGID_10_)" d="M156.05,36.9l0.25,0.2c-0.3,0.13-0.58,0.2-0.85,0.2
				h-0.2c-0.83-0.13-1.57-0.4-2.2-0.8c-0.2-0.13-0.47-0.33-0.8-0.6c-0.83-0.8-1.25-1.82-1.25-3.05c0-0.87,0.22-1.72,0.65-2.55
				c0.27-0.2,0.47-0.4,0.6-0.6c0.17-0.13,0.4-0.3,0.7-0.5l0.1,0.1l-0.1,0.2c-0.3,0.2-0.6,0.43-0.9,0.7c-0.4,0.63-0.6,1.45-0.6,2.45
				c0,1.2,0.5,2.18,1.5,2.95c0.13,0.2,0.33,0.43,0.6,0.7c0.7,0.4,1.47,0.6,2.3,0.6H156.05z"/>
			<path fill-rule="evenodd" clip-rule="evenodd" fill="#52525A" d="M153.15,29c0.18-0.06,0.38-0.09,0.6-0.1
				c-0.15,0.01-0.28,0.04-0.4,0.1l-0.2,0.2l-0.1,0.1l-0.1-0.1h0.1L153.15,29z"/>
			<polygon fill-rule="evenodd" clip-rule="evenodd" fill="#31343D" points="153.15,29.2 156.5,36.9 156.05,36.9 153.05,29.3 			"/>
			<path fill-rule="evenodd" clip-rule="evenodd" fill="#B4B1AC" d="M156.3,37.1c0.4,0,0.9-0.17,1.5-0.5l0.2,0.5
				c-0.8,0.33-1.58,0.5-2.35,0.5c-1.1,0-2-0.23-2.7-0.7c-0.13-0.13-0.28-0.23-0.45-0.3c-0.17-0.07-0.32-0.17-0.45-0.3
				c-0.97-1-1.45-2.15-1.45-3.45c0-1,0.28-1.88,0.85-2.65c0.13-0.27,0.33-0.5,0.6-0.7c0.13-0.2,0.43-0.4,0.9-0.6v0.3
				c-0.3,0.2-0.53,0.37-0.7,0.5c-0.13,0.2-0.33,0.4-0.6,0.6c-0.43,0.83-0.65,1.68-0.65,2.55c0,1.23,0.42,2.25,1.25,3.05
				c0.33,0.27,0.6,0.47,0.8,0.6c0.63,0.4,1.37,0.67,2.2,0.8h0.2C155.72,37.3,156,37.23,156.3,37.1z"/>
			<polygon fill-rule="evenodd" clip-rule="evenodd" fill="#6A7579" points="153.35,29 156.7,36.9 156.5,36.9 153.15,29.2 			"/>
			<path fill-rule="evenodd" clip-rule="evenodd" fill="#AAB2B4" d="M154.9,28.5l2.8,7.8l-3.3-7.8c0.13,0,0.27,0,0.4,0H154.9z"/>
			<path fill-rule="evenodd" clip-rule="evenodd" fill="#B8C0C3" d="M154.8,28.5c-0.13,0-0.27,0-0.4,0c0.13-0.07,0.27-0.1,0.4-0.1
				V28.5z"/>
			
				<linearGradient id="SVGID_11_" gradientUnits="userSpaceOnUse" x1="-983.6299" y1="-115.3613" x2="-975.2938" y2="-115.3613" gradientTransform="matrix(-0.4109 -0.9117 0.9339 -0.3615 -139.1272 -901.4596)">
				<stop  offset="0" style="stop-color:#3D3D47"/>
				<stop  offset="1" style="stop-color:#33363D"/>
			</linearGradient>
			<path fill-rule="evenodd" clip-rule="evenodd" fill="url(#SVGID_11_)" d="M156.7,36.9l-3.35-7.9c0.12-0.06,0.25-0.09,0.4-0.1
				h0.05l0.2-0.2l3.6,7.9c-0.17,0.07-0.4,0.17-0.7,0.3C156.83,36.9,156.77,36.9,156.7,36.9z"/>
			<path fill-rule="evenodd" clip-rule="evenodd" fill="#646F71" d="M157.7,36.5c0,0.07-0.03,0.1-0.1,0.1l-3.6-7.9
				c0-0.13,0.07-0.2,0.2-0.2h0.2l3.3,7.8V36.5z"/>
			<path fill-rule="evenodd" clip-rule="evenodd" fill="#A9AAAF" d="M158,36.6c0.27-0.07,0.43-0.17,0.5-0.3
				c0.2-0.27,0.45-0.5,0.75-0.7c0.63-0.53,1.05-1.15,1.25-1.85c-0.13,0.63-0.42,1.22-0.85,1.75c-0.07,0.27-0.2,0.53-0.4,0.8
				c-0.43,0.2-0.72,0.4-0.85,0.6c-0.13,0-0.27,0.07-0.4,0.2l-0.2-0.5H158z"/>
		</g>
		<g>
			<path fill-rule="evenodd" clip-rule="evenodd" fill="#605D68" d="M21.67,30.78c-0.16-0.3-0.4-0.6-0.72-0.93
				c-0.3-0.27-0.65-0.5-1.05-0.7c-0.1-0.07-0.22-0.12-0.35-0.15l-0.15-0.15c-0.1-0.07-0.2-0.05-0.3,0.05l0.2-0.25
				c0.53,0.2,1,0.5,1.4,0.9l0.1,0.05C21.16,29.96,21.46,30.36,21.67,30.78z"/>
			
				<linearGradient id="SVGID_12_" gradientUnits="userSpaceOnUse" x1="-829.1582" y1="-49.2813" x2="-825.0256" y2="-49.2813" gradientTransform="matrix(-0.0605 -0.9982 1.0005 -0.0215 18.716 -793.1865)">
				<stop  offset="0" style="stop-color:#696E74"/>
				<stop  offset="1" style="stop-color:#424041"/>
			</linearGradient>
			<path fill-rule="evenodd" clip-rule="evenodd" fill="url(#SVGID_12_)" d="M19.85,29.25l0.05-0.1c0.4,0.2,0.75,0.43,1.05,0.7
				c0.32,0.32,0.56,0.63,0.72,0.93l0.08,0.13l0.1,0.05c0.07,0.07,0.12,0.17,0.15,0.3c0.17,0.57,0.3,1.15,0.4,1.75
				c0.03,1.23-0.37,2.3-1.2,3.2l-0.4,0.45c-0.1,0.1-0.22,0.22-0.35,0.35c-0.63,0.37-1.37,0.53-2.2,0.5c-0.33-0.03-0.67-0.03-1,0
				c-0.13,0.03-0.32,0-0.55-0.1l0.05-0.1c0.3,0.07,0.58,0.07,0.85,0c1.23,0.07,2.28-0.35,3.15-1.25c0.8-0.9,1.15-2.02,1.05-3.35
				c-0.07-1.13-0.48-2.07-1.25-2.8l-0.25-0.2c-0.07-0.07-0.15-0.15-0.25-0.25l-0.15-0.1L19.85,29.25z"/>
			<path fill-rule="evenodd" clip-rule="evenodd" fill="#B8C0C3" d="M19.9,29.15l-0.05,0.1c-0.1-0.07-0.2-0.15-0.3-0.25
				C19.68,29.03,19.8,29.08,19.9,29.15z"/>
			<path fill-rule="evenodd" clip-rule="evenodd" fill="#AAB2B4" d="M19.85,29.25l0.05,0.1l-3.2,7.6L19.55,29
				C19.65,29.1,19.75,29.18,19.85,29.25z"/>
			<path fill-rule="evenodd" clip-rule="evenodd" fill="#646F71" d="M16.7,36.95l-0.15,0.15c-0.03,0.07-0.08,0.07-0.15,0l2.7-8.2
				c0.1-0.1,0.2-0.12,0.3-0.05L19.55,29L16.7,36.95z"/>
			
				<linearGradient id="SVGID_13_" gradientUnits="userSpaceOnUse" x1="-632.1797" y1="116.4209" x2="-623.6191" y2="116.4209" gradientTransform="matrix(0.3709 -0.9287 0.9188 0.3955 145.4504 -595.116)">
				<stop  offset="0" style="stop-color:#666C7A"/>
				<stop  offset="1" style="stop-color:#494E61"/>
			</linearGradient>
			<path fill-rule="evenodd" clip-rule="evenodd" fill="url(#SVGID_13_)" d="M16.55,37.1l0.15-0.15l3.2-7.6l0.15,0.1
				c0.1,0.1,0.18,0.18,0.25,0.25l0.25,0.2c0.13,0.13,0.27,0.45,0.4,0.95c0.3,0.53,0.47,1.1,0.5,1.7c0.07,1.27-0.32,2.33-1.15,3.2
				l-0.1,0.15c-0.77,0.8-1.77,1.22-3,1.25C17,37.15,16.78,37.13,16.55,37.1z"/>
			
				<linearGradient id="SVGID_14_" gradientUnits="userSpaceOnUse" x1="-661.6528" y1="107.2246" x2="-656.7978" y2="107.2246" gradientTransform="matrix(0.3395 -0.9406 0.9406 0.3395 142.7604 -622.7009)">
				<stop  offset="0" style="stop-color:#B9BDBE"/>
				<stop  offset="1" style="stop-color:#606068"/>
			</linearGradient>
			<path fill-rule="evenodd" clip-rule="evenodd" fill="url(#SVGID_14_)" d="M16.75,37.3l-0.2-0.05V37.1
				c0.23,0.03,0.45,0.05,0.65,0.05c1.23-0.03,2.23-0.45,3-1.25l0.1-0.15c0.83-0.87,1.22-1.93,1.15-3.2c-0.03-0.6-0.2-1.17-0.5-1.7
				c-0.13-0.5-0.27-0.82-0.4-0.95c0.77,0.73,1.18,1.67,1.25,2.8c0.1,1.33-0.25,2.45-1.05,3.35c-0.87,0.9-1.92,1.32-3.15,1.25
				C17.33,37.37,17.05,37.37,16.75,37.3z"/>
			
				<linearGradient id="SVGID_15_" gradientUnits="userSpaceOnUse" x1="-652.1455" y1="97.0469" x2="-643.8208" y2="97.0469" gradientTransform="matrix(0.3153 -0.949 0.9337 0.3614 130.9059 -616.7552)">
				<stop  offset="0" style="stop-color:#3D3D47"/>
				<stop  offset="1" style="stop-color:#33363D"/>
			</linearGradient>
			<path fill-rule="evenodd" clip-rule="evenodd" fill="url(#SVGID_15_)" d="M19.1,28.9l-2.7,8.2c-0.2-0.07-0.43-0.15-0.7-0.25
				c-0.07-0.03-0.12-0.08-0.15-0.15l2.9-8.05c0.08,0.02,0.15,0.05,0.22,0.1c0.04,0.03,0.08,0.06,0.13,0.1v0.05H19.1z"/>
			<path fill-rule="evenodd" clip-rule="evenodd" fill="#38373C" d="M18.5,28.3c0.3,0.07,0.57,0.18,0.8,0.35l-0.2,0.25h-0.3v-0.05
				c-0.04-0.04-0.08-0.07-0.13-0.1c-0.15-0.12-0.27-0.2-0.38-0.25L18.5,28.3z"/>
			<path fill-rule="evenodd" clip-rule="evenodd" fill="#52525A" d="M18.45,28.65h-0.3L18,28.7v-0.2l0.05,0.1l0.25-0.1
				c0.1,0.05,0.23,0.13,0.38,0.25C18.6,28.7,18.53,28.67,18.45,28.65z"/>
			<path fill-rule="evenodd" clip-rule="evenodd" fill="#6B6A70" d="M18.5,28.3l-0.2,0.2l-0.25,0.1L18,28.5l0.2-0.2l0.05,0.1
				C18.35,28.3,18.43,28.27,18.5,28.3z"/>
			<polygon fill-rule="evenodd" clip-rule="evenodd" fill="#6A7579" points="15.4,36.55 18.15,28.65 18.45,28.65 15.55,36.7 			"/>
			
				<linearGradient id="SVGID_16_" gradientUnits="userSpaceOnUse" x1="-716.3149" y1="54.8398" x2="-710.6276" y2="54.8398" gradientTransform="matrix(0.1978 -0.9802 0.9724 0.2367 103.1824 -679.8922)">
				<stop  offset="0" style="stop-color:#5F6170"/>
				<stop  offset="1" style="stop-color:#7C7C7C"/>
			</linearGradient>
			<path fill-rule="evenodd" clip-rule="evenodd" fill="url(#SVGID_16_)" d="M18,28.7l-2.95,7.55l-0.15-0.1
				c-0.6-0.57-1.02-1.25-1.25-2.05c-0.03-0.33-0.03-0.63,0-0.9c-0.2-1.23,0.1-2.28,0.9-3.15c0.7-0.73,1.42-1.2,2.15-1.4
				c0.37,0,0.73,0.02,1.1,0.05H18z"/>
			
				<linearGradient id="SVGID_17_" gradientUnits="userSpaceOnUse" x1="-825.5449" y1="-52.8223" x2="-823.0404" y2="-52.8223" gradientTransform="matrix(-0.0599 -0.9982 1.0007 -0.019 18.9927 -792.1672)">
				<stop  offset="0" style="stop-color:#E8E8E0"/>
				<stop  offset="1" style="stop-color:#535258"/>
			</linearGradient>
			<path fill-rule="evenodd" clip-rule="evenodd" fill="url(#SVGID_17_)" d="M15.05,36.25l0.05,0.35c-0.33-0.1-0.6-0.25-0.8-0.45
				l-0.1-0.1c-0.53-0.67-0.9-1.37-1.1-2.1C13.07,33.72,13,33.4,12.9,33c-0.07-1.17,0.33-2.2,1.2-3.1c0.57-0.63,1.3-1.12,2.2-1.45
				c0.33,0.03,0.6,0.02,0.8-0.05c0.23,0,0.53,0.03,0.9,0.1v0.2h-0.2c-0.37-0.03-0.73-0.05-1.1-0.05c-0.73,0.2-1.45,0.67-2.15,1.4
				c-0.8,0.87-1.1,1.92-0.9,3.15c-0.03,0.27-0.03,0.57,0,0.9c0.23,0.8,0.65,1.48,1.25,2.05L15.05,36.25z"/>
			<path fill-rule="evenodd" clip-rule="evenodd" fill="#B4B1AC" d="M15.1,36.6c0.3,0.27,0.78,0.48,1.45,0.65l-0.2,0.5
				c-0.83-0.3-1.53-0.72-2.1-1.25c-0.8-0.73-1.28-1.52-1.45-2.35c-0.03-0.17-0.08-0.33-0.15-0.5c-0.1-0.17-0.13-0.35-0.1-0.55
				c-0.07-1.4,0.35-2.57,1.25-3.5c0.67-0.73,1.48-1.18,2.45-1.35c0.27-0.1,0.57-0.15,0.9-0.15c0.2-0.03,0.55,0.03,1.05,0.2L18,28.5
				c-0.37-0.07-0.67-0.1-0.9-0.1c-0.2,0.07-0.47,0.08-0.8,0.05c-0.9,0.33-1.63,0.82-2.2,1.45c-0.87,0.9-1.27,1.93-1.2,3.1
				c0.1,0.4,0.17,0.72,0.2,0.95c0.2,0.73,0.57,1.43,1.1,2.1l0.1,0.1C14.5,36.35,14.77,36.5,15.1,36.6z"/>
			<polygon fill-rule="evenodd" clip-rule="evenodd" fill="#31343D" points="18.15,28.65 15.4,36.55 15.05,36.25 18,28.7 			"/>
			<path fill-rule="evenodd" clip-rule="evenodd" fill="#A9AAAF" d="M20.45,37c-0.53,0.37-1.13,0.6-1.8,0.7
				c-0.23,0.17-0.52,0.27-0.85,0.3c-0.43-0.13-0.77-0.18-1-0.15c-0.1-0.07-0.25-0.1-0.45-0.1l0.2-0.5l0.15,0.15
				c0.23,0.1,0.42,0.13,0.55,0.1c0.33-0.03,0.67-0.03,1,0C19.08,37.53,19.82,37.37,20.45,37z"/>
		</g>
	</g>
</g>
</svg>
