<?xml version="1.0" encoding="utf-8"?>
<!-- Generator: Adobe Illustrator 16.0.0, SVG Export Plug-In . SVG Version: 6.00 Build 0)  -->
<!DOCTYPE svg PUBLIC "-//W3C//DTD SVG 1.1//EN" "http://www.w3.org/Graphics/SVG/1.1/DTD/svg11.dtd">
<svg version="1.1" id="Layer_1" xmlns="http://www.w3.org/2000/svg" xmlns:xlink="http://www.w3.org/1999/xlink" x="0px" y="0px"
	 width="214px" height="453px" viewBox="0 0 214 453" enable-background="new 0 0 214 453" xml:space="preserve">
<g>
	<g>
		<linearGradient id="SVGID_1_" gradientUnits="userSpaceOnUse" x1="186.2129" y1="338.6631" x2="39.9878" y2="484.8882">
			<stop  offset="0" style="stop-color:#000000;stop-opacity:0.498"/>
			<stop  offset="1" style="stop-color:#000000;stop-opacity:0"/>
		</linearGradient>
		<polygon fill-rule="evenodd" clip-rule="evenodd" fill="url(#SVGID_1_)" points="163.25,449.4 4.5,449.4 78.1,359 206.55,359 		
			"/>
	</g>
	<g>
		<linearGradient id="SVGID_2_" gradientUnits="userSpaceOnUse" x1="193.2529" y1="389.332" x2="21.9525" y2="418.1546">
			<stop  offset="0" style="stop-color:#000000;stop-opacity:0.498"/>
			<stop  offset="1" style="stop-color:#000000;stop-opacity:0"/>
		</linearGradient>
		<polygon fill-rule="evenodd" clip-rule="evenodd" fill="url(#SVGID_2_)" points="205.75,360.05 165.45,437.4 53.85,437.4 
			109.4,360.05 		"/>
	</g>
	<g>
		<g>
			<g>
				<polygon fill-rule="evenodd" clip-rule="evenodd" fill="#68809B" points="72.15,419 68.15,424.85 56.2,424.85 62.05,418.75 
					72.15,418.75 				"/>
				<polygon fill-rule="evenodd" clip-rule="evenodd" fill="#516379" points="72.15,419 72.15,431.85 68.2,436.75 68.2,424.85 
					68.15,424.85 				"/>
				<linearGradient id="SVGID_3_" gradientUnits="userSpaceOnUse" x1="57.9092" y1="432.1436" x2="70.2828" y2="428.414">
					<stop  offset="0" style="stop-color:#717E8B"/>
					<stop  offset="1" style="stop-color:#91A2B6"/>
				</linearGradient>
				<polygon fill-rule="evenodd" clip-rule="evenodd" fill="url(#SVGID_3_)" points="68.2,436.75 68.2,436.85 56.2,436.85 
					56.2,424.85 68.15,424.85 68.2,424.85 				"/>
			</g>
			<g>
				<polygon fill-rule="evenodd" clip-rule="evenodd" fill="#516379" points="170.05,418.75 170.05,429.2 165.95,436.75 
					165.95,424.85 165.9,424.85 				"/>
				<polygon fill-rule="evenodd" clip-rule="evenodd" fill="#68809B" points="153.95,424.85 159.8,418.75 170.05,418.75 
					165.9,424.85 				"/>
				<linearGradient id="SVGID_4_" gradientUnits="userSpaceOnUse" x1="47.8218" y1="440.708" x2="119.9227" y2="434.3687">
					<stop  offset="0" style="stop-color:#6E7A87"/>
					<stop  offset="1" style="stop-color:#91A2B6"/>
				</linearGradient>
				<polygon fill-rule="evenodd" clip-rule="evenodd" fill="url(#SVGID_4_)" points="165.95,436.75 165.95,436.85 153.95,436.85 
					153.95,424.85 165.9,424.85 165.95,424.85 				"/>
			</g>
		</g>
		<g>
			<linearGradient id="SVGID_5_" gradientUnits="userSpaceOnUse" x1="46.9019" y1="430.248" x2="119.0028" y2="423.9087">
				<stop  offset="0" style="stop-color:#6E7A87"/>
				<stop  offset="1" style="stop-color:#91A2B6"/>
			</linearGradient>
			<polygon fill-rule="evenodd" clip-rule="evenodd" fill="url(#SVGID_5_)" points="171.3,418.15 171.3,431.35 49.8,431.35 
				49.8,418 49.85,417.95 171.3,417.95 			"/>
			<linearGradient id="SVGID_6_" gradientUnits="userSpaceOnUse" x1="208.373" y1="342.2559" x2="241.0175" y2="323.3962">
				<stop  offset="0.0196" style="stop-color:#62757B"/>
				<stop  offset="1" style="stop-color:#728997"/>
			</linearGradient>
			<polygon fill-rule="evenodd" clip-rule="evenodd" fill="url(#SVGID_6_)" points="49.85,417.95 102.75,348.8 205.1,348.8 
				171.3,418.15 171.3,417.95 			"/>
			<polygon fill-rule="evenodd" clip-rule="evenodd" fill="#73848A" points="171.3,418.15 205.1,348.8 205.1,361.05 171.35,431.35 
				171.3,431.35 			"/>
		</g>
	</g>
	<g>
		<linearGradient id="SVGID_7_" gradientUnits="userSpaceOnUse" x1="45.9375" y1="410.3945" x2="123.1129" y2="385.2458">
			<stop  offset="0" style="stop-color:#434C4F"/>
			<stop  offset="1" style="stop-color:#596B71"/>
		</linearGradient>
		<polygon fill-rule="evenodd" clip-rule="evenodd" fill="url(#SVGID_7_)" points="153.7,410.85 165.2,410.85 154.95,417.95 
			49.85,417.95 102.75,348.8 153.7,348.8 		"/>
	</g>
	<g>
		<linearGradient id="SVGID_8_" gradientUnits="userSpaceOnUse" x1="33.3906" y1="361.1514" x2="114.1896" y2="370.4349">
			<stop  offset="0" style="stop-color:#434C4F"/>
			<stop  offset="1" style="stop-color:#72868C"/>
		</linearGradient>
		<polygon fill-rule="evenodd" clip-rule="evenodd" fill="url(#SVGID_8_)" points="192.8,344.2 165.15,400.25 66.75,400.25 
			109.7,344.35 109.8,344.2 		"/>
		<linearGradient id="SVGID_9_" gradientUnits="userSpaceOnUse" x1="57.1201" y1="410.8389" x2="155.8129" y2="402.1754">
			<stop  offset="0" style="stop-color:#6E7A87"/>
			<stop  offset="1" style="stop-color:#91A2B6"/>
		</linearGradient>
		<polygon fill-rule="evenodd" clip-rule="evenodd" fill="url(#SVGID_9_)" points="66.75,400.25 165.15,400.25 165.15,411.1 
			66.65,411.1 66.7,400.3 		"/>
		<polygon fill-rule="evenodd" clip-rule="evenodd" fill="#73848A" points="165.15,400.25 192.8,344.2 192.8,354.1 165.2,411.1 
			165.15,411.1 		"/>
	</g>
	<g>
		
			<radialGradient id="SVGID_10_" cx="165" cy="400.6504" r="1.475" gradientTransform="matrix(1 0 0 0.9237 0 30.5581)" gradientUnits="userSpaceOnUse">
			<stop  offset="0" style="stop-color:#FFFFFF"/>
			<stop  offset="0.1804" style="stop-color:#FFFFFF"/>
			<stop  offset="0.3451" style="stop-color:#FFFFFF;stop-opacity:0.6706"/>
			<stop  offset="0.5333" style="stop-color:#FFFFFF;stop-opacity:0.4"/>
			<stop  offset="0.7294" style="stop-color:#FFFFFF;stop-opacity:0.0941"/>
			<stop  offset="0.8667" style="stop-color:#FFFFFF;stop-opacity:0.0275"/>
			<stop  offset="1" style="stop-color:#FFFFFF;stop-opacity:0"/>
		</radialGradient>
		<path fill-rule="evenodd" clip-rule="evenodd" fill="url(#SVGID_10_)" d="M164,401.55c-0.3-0.27-0.45-0.57-0.45-0.9
			c0-0.37,0.15-0.67,0.45-0.9c0.27-0.27,0.6-0.4,1-0.4s0.73,0.13,1,0.4c0.3,0.23,0.45,0.53,0.45,0.9c0,0.33-0.15,0.63-0.45,0.9
			c-0.27,0.23-0.6,0.35-1,0.35S164.27,401.78,164,401.55z"/>
	</g>
	<g>
		
			<radialGradient id="SVGID_11_" cx="171" cy="418.25" r="1.35" gradientTransform="matrix(1 0 0 0.9259 0 30.9815)" gradientUnits="userSpaceOnUse">
			<stop  offset="0" style="stop-color:#FFFFFF"/>
			<stop  offset="0.1804" style="stop-color:#FFFFFF"/>
			<stop  offset="0.3451" style="stop-color:#FFFFFF;stop-opacity:0.6706"/>
			<stop  offset="0.5333" style="stop-color:#FFFFFF;stop-opacity:0.4"/>
			<stop  offset="0.7294" style="stop-color:#FFFFFF;stop-opacity:0.0941"/>
			<stop  offset="0.8667" style="stop-color:#FFFFFF;stop-opacity:0.0275"/>
			<stop  offset="1" style="stop-color:#FFFFFF;stop-opacity:0"/>
		</radialGradient>
		<path fill-rule="evenodd" clip-rule="evenodd" fill="url(#SVGID_11_)" d="M169.7,418.25c0-0.33,0.13-0.62,0.4-0.85
			c0.23-0.2,0.53-0.3,0.9-0.3s0.68,0.1,0.95,0.3c0.27,0.23,0.4,0.52,0.4,0.85s-0.13,0.62-0.4,0.85c-0.27,0.2-0.58,0.3-0.95,0.3
			s-0.67-0.1-0.9-0.3C169.83,418.87,169.7,418.58,169.7,418.25z"/>
	</g>
	<g>
		
			<radialGradient id="SVGID_12_" cx="177.2002" cy="376.5" r="1.2243" gradientTransform="matrix(0.8997 0.4365 -10.7327 22.1249 4058.6411 -8030.875)" gradientUnits="userSpaceOnUse">
			<stop  offset="0" style="stop-color:#FFFFFF"/>
			<stop  offset="0.1804" style="stop-color:#FFFFFF"/>
			<stop  offset="0.3451" style="stop-color:#FFFFFF;stop-opacity:0.6706"/>
			<stop  offset="0.5333" style="stop-color:#FFFFFF;stop-opacity:0.4"/>
			<stop  offset="0.7294" style="stop-color:#FFFFFF;stop-opacity:0.0941"/>
			<stop  offset="0.8667" style="stop-color:#FFFFFF;stop-opacity:0.0275"/>
			<stop  offset="1" style="stop-color:#FFFFFF;stop-opacity:0"/>
		</radialGradient>
		<path fill-rule="evenodd" clip-rule="evenodd" fill="url(#SVGID_12_)" d="M169.3,394.8c-2.43,4.53-3.8,6.73-4.1,6.6
			c-0.3-0.13,0.57-2.57,2.6-7.3c2.37-5.43,5.15-11.47,8.35-18.1c3.5-7.3,6.48-13.22,8.95-17.75c2.73-5.2,4.25-7.73,4.55-7.6
			c0.3,0.13-0.72,2.9-3.05,8.3c-2.03,4.77-4.8,10.8-8.3,18.1C175.1,383.68,172.1,389.6,169.3,394.8z"/>
	</g>
	<g>
		
			<radialGradient id="SVGID_13_" cx="343.4961" cy="105.8018" r="1.0876" gradientTransform="matrix(0.7931 0.6092 -15.6771 31.6301 1570.3578 -3163.5623)" gradientUnits="userSpaceOnUse">
			<stop  offset="0" style="stop-color:#FFFFFF"/>
			<stop  offset="0.1804" style="stop-color:#FFFFFF"/>
			<stop  offset="0.3451" style="stop-color:#FFFFFF;stop-opacity:0.6706"/>
			<stop  offset="0.5333" style="stop-color:#FFFFFF;stop-opacity:0.4"/>
			<stop  offset="0.7294" style="stop-color:#FFFFFF;stop-opacity:0.0941"/>
			<stop  offset="0.8667" style="stop-color:#FFFFFF;stop-opacity:0.0275"/>
			<stop  offset="1" style="stop-color:#FFFFFF;stop-opacity:0"/>
		</radialGradient>
		<path fill-rule="evenodd" clip-rule="evenodd" fill="url(#SVGID_13_)" d="M173.45,415.35c-3.1,5.77-4.77,8.57-5,8.4
			c-0.2-0.2,1.07-3.32,3.8-9.35c3.17-6.87,6.83-14.5,11-22.9c4.57-9.27,8.4-16.78,11.5-22.55c3.53-6.6,5.4-9.8,5.6-9.6
			c0.3,0.13-1.15,3.65-4.35,10.55c-2.8,6.03-6.48,13.67-11.05,22.9C180.82,401.2,176.98,408.72,173.45,415.35z"/>
	</g>
	<g>
		<path fill-rule="evenodd" clip-rule="evenodd" fill="#FFFFFF" fill-opacity="0.4078" d="M165.05,401.25h0.05l-0.05,0.1V401.25z
			 M171.3,418.9l-0.05-0.85l34.4-70.45l0.8-0.85L171.3,418.9z M165.1,401.25l0.05-0.95l27.65-56.05v0.95L165.1,401.25z"/>
		<path fill-rule="evenodd" clip-rule="evenodd" fill="#FFFFFF" fill-opacity="0.498" d="M171.25,418.05v0.9H49.85v-1h121.4V418.05z
			 M165.05,401.25h-98.3v-1h98.35v1H165.05z"/>
	</g>
	<g>
		<linearGradient id="SVGID_14_" gradientUnits="userSpaceOnUse" x1="128.584" y1="366.084" x2="118.8071" y2="433.1374">
			<stop  offset="0" style="stop-color:#000000;stop-opacity:0.251"/>
			<stop  offset="1" style="stop-color:#000000;stop-opacity:0"/>
		</linearGradient>
		<path fill-rule="evenodd" clip-rule="evenodd" fill="url(#SVGID_14_)" d="M119.9,411.2h-9.8l0.2-10.85l13.55-19.75
			c-1.77-1.13-2.65-2.48-2.65-4.05c0-1.73,1.07-3.22,3.2-4.45c2.17-1.2,4.77-1.8,7.8-1.8s5.62,0.6,7.75,1.8
			c2.17,1.23,3.25,2.72,3.25,4.45s-1.08,3.2-3.25,4.4c-2.07,1.2-4.57,1.82-7.5,1.85c-0.07,0-0.15,0-0.25,0l0.2,0.15l-12.1,17.4
			L120,411.2H119.9z M105.2,417.85h9.5l0.35,13.55h-9.75l-0.45-13.55H105.2z"/>
		<linearGradient id="SVGID_15_" gradientUnits="userSpaceOnUse" x1="110.2754" y1="382.875" x2="132.4254" y2="382.875">
			<stop  offset="0" style="stop-color:#000000;stop-opacity:0.251"/>
			<stop  offset="1" style="stop-color:#000000;stop-opacity:0"/>
		</linearGradient>
		<path fill-rule="evenodd" clip-rule="evenodd" fill="url(#SVGID_15_)" d="M132.4,382.95l-0.2-0.15c0.1,0,0.18,0,0.25,0
			L132.4,382.95z"/>
		<linearGradient id="SVGID_16_" gradientUnits="userSpaceOnUse" x1="105.2002" y1="414.5254" x2="119.9004" y2="414.5254">
			<stop  offset="0" style="stop-color:#000000;stop-opacity:0.251"/>
			<stop  offset="1" style="stop-color:#000000;stop-opacity:0"/>
		</linearGradient>
		<polygon fill-rule="evenodd" clip-rule="evenodd" fill="url(#SVGID_16_)" points="114.7,417.85 105.2,417.85 110,411.2 
			110.1,411.2 119.9,411.2 115.05,417.85 		"/>
	</g>
	<g>
		<radialGradient id="SVGID_17_" cx="132.9502" cy="366.0498" r="15.05" gradientUnits="userSpaceOnUse">
			<stop  offset="0.0196" style="stop-color:#EAFBFF"/>
			<stop  offset="0.8549" style="stop-color:#687B81"/>
			<stop  offset="1" style="stop-color:#4D5455"/>
		</radialGradient>
		<path fill-rule="evenodd" clip-rule="evenodd" fill="url(#SVGID_17_)" d="M142.35,375.5c-0.13,0.27-0.28,0.55-0.45,0.85
			c-0.43,0.27-0.95,0.53-1.55,0.8c-1.87,0.8-4.13,1.2-6.8,1.2c-2.67,0-4.95-0.4-6.85-1.2c-0.6-0.27-1.1-0.53-1.5-0.8
			c-0.17-0.3-0.32-0.62-0.45-0.95c-0.3-0.63-0.52-1.28-0.65-1.95c-0.13-0.63-0.2-1.3-0.2-2c0-2.67,0.93-4.95,2.8-6.85
			c0.3-0.27,0.6-0.52,0.9-0.75l0.55-0.55h10.65c0.53,0.37,1.05,0.8,1.55,1.3c1.9,1.9,2.85,4.18,2.85,6.85c0,0.7-0.07,1.37-0.2,2
			C142.87,374.15,142.65,374.83,142.35,375.5z"/>
		<path fill-rule="evenodd" clip-rule="evenodd" fill="#3E4B4F" d="M142.35,375.5c0.03,0.1,0.05,0.2,0.05,0.3
			c0,0.8-0.88,1.5-2.65,2.1c-1.7,0.57-3.78,0.85-6.25,0.85c-2.43,0-4.53-0.28-6.3-0.85c-1.7-0.6-2.55-1.3-2.55-2.1
			c0-0.13,0.03-0.27,0.1-0.4c0.13,0.33,0.28,0.65,0.45,0.95c0.4,0.27,0.9,0.53,1.5,0.8c1.9,0.8,4.18,1.2,6.85,1.2
			c2.67,0,4.93-0.4,6.8-1.2c0.6-0.27,1.12-0.53,1.55-0.8C142.07,376.05,142.22,375.77,142.35,375.5z"/>
	</g>
	<g>
		<path fill-rule="evenodd" clip-rule="evenodd" fill="#F1F3F3" d="M138.25,362.95c0.37,0.33,0.55,0.7,0.55,1.1
			c0,0.7-0.55,1.28-1.65,1.75c-1.1,0.5-2.42,0.75-3.95,0.75c-1.57,0-2.92-0.25-4.05-0.75c-1.07-0.47-1.6-1.05-1.6-1.75
			c0-0.1,0.02-0.18,0.05-0.25c0.1-0.6,0.62-1.12,1.55-1.55c1.13-0.47,2.48-0.7,4.05-0.7c1.53,0,2.85,0.23,3.95,0.7
			C137.62,362.45,137.98,362.68,138.25,362.95z"/>
	</g>
	<g>
		<linearGradient id="SVGID_18_" gradientUnits="userSpaceOnUse" x1="127.6377" y1="228.5996" x2="138.6627" y2="228.5996">
			<stop  offset="0" style="stop-color:#000000"/>
			<stop  offset="0.4118" style="stop-color:#89969B"/>
			<stop  offset="0.4902" style="stop-color:#89969B"/>
			<stop  offset="0.7569" style="stop-color:#272B2D"/>
			<stop  offset="1" style="stop-color:#040405"/>
		</linearGradient>
		<path fill-rule="evenodd" clip-rule="evenodd" fill="url(#SVGID_18_)" d="M138.65,91.2v272.6c-0.27,0.47-0.77,0.9-1.5,1.3
			c-1.1,0.6-2.43,0.9-4,0.9c-1.6,0-2.97-0.3-4.1-0.9c-0.73-0.4-1.22-0.83-1.45-1.3V91.2H138.65z"/>
	</g>
	<g>
		<g>
			
				<radialGradient id="SVGID_19_" cx="133.1504" cy="55.3999" r="56.775" fx="134.2636" fy="55.3999" gradientUnits="userSpaceOnUse">
				<stop  offset="0" style="stop-color:#E3F4FC"/>
				<stop  offset="0.6" style="stop-color:#A1B4BB"/>
				<stop  offset="0.8157" style="stop-color:#86999B"/>
				<stop  offset="0.9412" style="stop-color:#437478"/>
				<stop  offset="1" style="stop-color:#7CB0B6"/>
			</radialGradient>
			<path fill-rule="evenodd" clip-rule="evenodd" fill="url(#SVGID_19_)" d="M172,20.3c10.47,10.47,15.7,23.1,15.7,37.9
				c0,14.77-5.23,27.38-15.7,37.85c-10.5,10.5-23.13,15.75-37.9,15.75c-14.8,0-27.43-5.25-37.9-15.75c-3.03-3-5.62-6.2-7.75-9.6
				c-5.3-8.3-7.95-17.72-7.95-28.25c0-14.8,5.23-27.43,15.7-37.9c10.47-10.5,23.1-15.75,37.9-15.75c14.73,0,27.3,5.18,37.7,15.55
				C171.87,20.17,171.93,20.23,172,20.3z"/>
		</g>
		<g>
			
				<radialGradient id="SVGID_20_" cx="-49.0288" cy="-312.5391" r="34.7503" gradientTransform="matrix(3.956804e-003 1 -0.2964 5.395642e-003 52.4576 118.4149)" gradientUnits="userSpaceOnUse">
				<stop  offset="0" style="stop-color:#FFFFFF"/>
				<stop  offset="0.2471" style="stop-color:#FFFFFF"/>
				<stop  offset="0.4078" style="stop-color:#FFFFFF;stop-opacity:0.6706"/>
				<stop  offset="0.5333" style="stop-color:#FFFFFF;stop-opacity:0.4"/>
				<stop  offset="0.7294" style="stop-color:#FFFFFF;stop-opacity:0.0941"/>
				<stop  offset="0.8667" style="stop-color:#FFFFFF;stop-opacity:0.0275"/>
				<stop  offset="1" style="stop-color:#FFFFFF;stop-opacity:0"/>
			</radialGradient>
			<path fill-rule="evenodd" clip-rule="evenodd" fill="url(#SVGID_20_)" d="M154.5,70.2c0,9.5-0.92,17.48-2.75,23.95
				c-1.9,6.7-4.18,10.05-6.85,10.05c-2.63,0-4.95-3.23-6.95-9.7c-1.77-6.6-2.68-14.58-2.75-23.95c0-9.37,0.9-17.35,2.7-23.95
				c1.9-6.57,4.17-9.95,6.8-10.15c2.6,0,4.88,3.27,6.85,9.8C153.42,52.85,154.4,60.83,154.5,70.2z"/>
		</g>
		<g>
			
				<radialGradient id="SVGID_21_" cx="103.1445" cy="-3.6382" r="16.4681" gradientTransform="matrix(0.9776 0.2103 -0.564 2.3348 -9.8408 34.8075)" gradientUnits="userSpaceOnUse">
				<stop  offset="0" style="stop-color:#4F7A7E;stop-opacity:0.6"/>
				<stop  offset="0.5176" style="stop-color:#7E979A;stop-opacity:0.4"/>
				<stop  offset="0.7647" style="stop-color:#739093;stop-opacity:0.2275"/>
				<stop  offset="0.8745" style="stop-color:#66878A;stop-opacity:0.0275"/>
				<stop  offset="0.8745" style="stop-color:#638689;stop-opacity:0.0275"/>
				<stop  offset="1" style="stop-color:#537D80;stop-opacity:0"/>
				<stop  offset="1" style="stop-color:#FFFFFF;stop-opacity:0"/>
				<stop  offset="1" style="stop-color:#64818E;stop-opacity:0"/>
			</radialGradient>
			<path fill-rule="evenodd" clip-rule="evenodd" fill="url(#SVGID_21_)" d="M109.6,51.5c-2.4,10.07-6.07,18.3-11,24.7
				c-3.93,5-7.75,7.72-11.45,8.15C82.72,76.52,80.5,67.8,80.5,58.2c0-14.8,5.23-27.43,15.7-37.9c2.63-2.67,5.43-4.98,8.4-6.95
				c3.03,1.9,5.13,5.78,6.3,11.65C112.37,32.9,111.93,41.73,109.6,51.5z"/>
		</g>
		<g>
			
				<radialGradient id="SVGID_22_" cx="-67.4414" cy="-301.0469" r="21.0532" gradientTransform="matrix(0.0778 0.997 -2.7136 0.1033 -672.5789 142.0773)" gradientUnits="userSpaceOnUse">
				<stop  offset="0" style="stop-color:#4F7A7E;stop-opacity:0.6"/>
				<stop  offset="0.4275" style="stop-color:#7E979A;stop-opacity:0.4"/>
				<stop  offset="0.6235" style="stop-color:#739093;stop-opacity:0.2275"/>
				<stop  offset="0.8745" style="stop-color:#66878A;stop-opacity:0.0275"/>
				<stop  offset="0.8745" style="stop-color:#638689;stop-opacity:0.0275"/>
				<stop  offset="1" style="stop-color:#537D80;stop-opacity:0"/>
				<stop  offset="1" style="stop-color:#FFFFFF;stop-opacity:0"/>
				<stop  offset="1" style="stop-color:#64818E;stop-opacity:0"/>
			</radialGradient>
			<path fill-rule="evenodd" clip-rule="evenodd" fill="url(#SVGID_22_)" d="M178.55,28.05c4.93,7.13,7.88,15.12,8.85,23.95
				c-2.27,1.9-5.28,3.72-9.05,5.45c-10.4,4.6-22.85,7.22-37.35,7.85c-14.97,0.57-27.9-1.07-38.8-4.9
				c-10.67-3.77-16.22-8.7-16.65-14.8C85.12,39.77,89.93,34.57,100,30c10.23-4.7,22.83-7.32,37.8-7.85
				c14.53-0.43,27.25,1.2,38.15,4.9C176.82,27.35,177.68,27.68,178.55,28.05z"/>
		</g>
		<g>
			
				<radialGradient id="SVGID_23_" cx="136.2998" cy="77.875" r="31.1404" gradientTransform="matrix(8.925991e-003 1 -1.1118 9.924707e-003 221.6681 -59.1923)" gradientUnits="userSpaceOnUse">
				<stop  offset="0" style="stop-color:#829AA5"/>
				<stop  offset="0.3451" style="stop-color:#8098A4;stop-opacity:0.6706"/>
				<stop  offset="0.5333" style="stop-color:#8098A3;stop-opacity:0.4"/>
				<stop  offset="0.7294" style="stop-color:#7F97A2;stop-opacity:0.0941"/>
				<stop  offset="0.8667" style="stop-color:#8099A3;stop-opacity:0.0275"/>
				<stop  offset="1" style="stop-color:#7F98A2;stop-opacity:0"/>
				<stop  offset="1" style="stop-color:#FFFFFF;stop-opacity:0"/>
			</radialGradient>
			<path fill-rule="evenodd" clip-rule="evenodd" fill="url(#SVGID_23_)" d="M168.65,77.7c0.13,8.8-2.88,16.37-9.05,22.7
				c-6.47,6.23-14.08,9.38-22.85,9.45c-8.97,0.07-16.7-3.02-23.2-9.25c-6.4-6.23-9.67-13.75-9.8-22.55
				c-0.03-8.87,3.05-16.45,9.25-22.75c6.37-6.2,14.05-9.33,23.05-9.4c8.8-0.07,16.47,3.02,23,9.25
				C165.38,61.28,168.58,68.8,168.65,77.7z"/>
		</g>
		<g>
			
				<radialGradient id="SVGID_24_" cx="133.1504" cy="20.2998" r="50.925" gradientTransform="matrix(1 0 0 0.5925 0 8.2714)" gradientUnits="userSpaceOnUse">
				<stop  offset="0" style="stop-color:#FFFFFF"/>
				<stop  offset="0.1804" style="stop-color:#FFFFFF"/>
				<stop  offset="0.3451" style="stop-color:#FFFFFF;stop-opacity:0.6706"/>
				<stop  offset="0.5333" style="stop-color:#FFFFFF;stop-opacity:0.4"/>
				<stop  offset="0.7294" style="stop-color:#FFFFFF;stop-opacity:0.0941"/>
				<stop  offset="0.8667" style="stop-color:#FFFFFF;stop-opacity:0.0275"/>
				<stop  offset="1" style="stop-color:#FFFFFF;stop-opacity:0"/>
			</radialGradient>
			<path fill-rule="evenodd" clip-rule="evenodd" fill="url(#SVGID_24_)" d="M172,20.3c3.07,3.07,5.7,6.33,7.9,9.8
				c-2.4,3.7-6.27,7.05-11.6,10.05c-9.73,5.53-21.45,8.3-35.15,8.3c-13.67,0-25.33-2.77-35-8.3c-4.67-2.63-8.22-5.52-10.65-8.65
				c2.3-3.97,5.2-7.7,8.7-11.2c10.47-10.5,23.1-15.75,37.9-15.75c14.73,0,27.3,5.18,37.7,15.55C171.87,20.17,171.93,20.23,172,20.3z
				"/>
		</g>
		<g>
			
				<radialGradient id="SVGID_25_" cx="134" cy="25.2251" r="24.0017" gradientTransform="matrix(1 0 0 0.5737 0 10.7545)" gradientUnits="userSpaceOnUse">
				<stop  offset="0" style="stop-color:#FFFFFF"/>
				<stop  offset="0.1804" style="stop-color:#FFFFFF"/>
				<stop  offset="0.3451" style="stop-color:#FFFFFF;stop-opacity:0.6706"/>
				<stop  offset="0.5333" style="stop-color:#FFFFFF;stop-opacity:0.4"/>
				<stop  offset="0.7294" style="stop-color:#FFFFFF;stop-opacity:0.0941"/>
				<stop  offset="0.8667" style="stop-color:#FFFFFF;stop-opacity:0.0275"/>
				<stop  offset="1" style="stop-color:#FFFFFF;stop-opacity:0"/>
			</radialGradient>
			<path fill-rule="evenodd" clip-rule="evenodd" fill="url(#SVGID_25_)" d="M117.45,16.05c4.57-2.47,10.08-3.7,16.55-3.7
				s11.98,1.23,16.55,3.7c4.57,2.57,6.85,5.62,6.85,9.15c0,3.57-2.28,6.62-6.85,9.15c-4.57,2.5-10.08,3.75-16.55,3.75
				s-11.98-1.25-16.55-3.75c-4.57-2.53-6.85-5.58-6.85-9.15C110.6,21.67,112.88,18.62,117.45,16.05z"/>
		</g>
		<g>
			
				<radialGradient id="SVGID_26_" cx="108.0498" cy="61.6748" r="32.8817" gradientTransform="matrix(7.960907e-003 1 -0.6862 5.462745e-003 149.5093 -46.7085)" gradientUnits="userSpaceOnUse">
				<stop  offset="0" style="stop-color:#FFFFFF"/>
				<stop  offset="0.1804" style="stop-color:#FFFFFF"/>
				<stop  offset="0.3451" style="stop-color:#FFFFFF;stop-opacity:0.6706"/>
				<stop  offset="0.5333" style="stop-color:#FFFFFF;stop-opacity:0.4"/>
				<stop  offset="0.7294" style="stop-color:#FFFFFF;stop-opacity:0.0941"/>
				<stop  offset="0.8667" style="stop-color:#FFFFFF;stop-opacity:0.0275"/>
				<stop  offset="1" style="stop-color:#FFFFFF;stop-opacity:0"/>
			</radialGradient>
			<path fill-rule="evenodd" clip-rule="evenodd" fill="url(#SVGID_26_)" d="M129.1,61.5c0.07,8.8-1.9,16.38-5.9,22.75
				c-4.2,6.23-9.17,9.37-14.9,9.4c-5.87,0.07-10.88-3-15.05-9.2c-4.2-6.23-6.33-13.77-6.4-22.6c-0.07-8.87,1.93-16.43,6-22.7
				c4.13-6.23,9.13-9.38,15-9.45c5.73-0.07,10.72,3.02,14.95,9.25C126.93,45.12,129.03,52.63,129.1,61.5z"/>
		</g>
		<g>
			
				<radialGradient id="SVGID_27_" cx="147.3008" cy="56.3252" r="16.5182" gradientTransform="matrix(8.125530e-003 1 -0.6697 5.441624e-003 183.8233 -91.2772)" gradientUnits="userSpaceOnUse">
				<stop  offset="0" style="stop-color:#FFFFFF"/>
				<stop  offset="0.1804" style="stop-color:#FFFFFF"/>
				<stop  offset="0.3451" style="stop-color:#FFFFFF;stop-opacity:0.6706"/>
				<stop  offset="0.5333" style="stop-color:#FFFFFF;stop-opacity:0.4"/>
				<stop  offset="0.7294" style="stop-color:#FFFFFF;stop-opacity:0.0941"/>
				<stop  offset="0.8667" style="stop-color:#FFFFFF;stop-opacity:0.0275"/>
				<stop  offset="1" style="stop-color:#FFFFFF;stop-opacity:0"/>
			</radialGradient>
			<path fill-rule="evenodd" clip-rule="evenodd" fill="url(#SVGID_27_)" d="M154.5,44.85c2.03,3.17,3.08,6.97,3.15,11.4
				c0,4.5-0.98,8.28-2.95,11.35c-2.03,3.2-4.47,4.8-7.3,4.8c-2.83,0-5.3-1.53-7.4-4.6c-1.97-3.13-2.98-6.93-3.05-11.4
				c0-4.43,0.98-8.22,2.95-11.35c1.97-3.13,4.37-4.73,7.2-4.8C149.97,40.25,152.43,41.78,154.5,44.85z"/>
		</g>
		<g>
			
				<radialGradient id="SVGID_28_" cx="165.0498" cy="61.0498" r="26.3884" gradientTransform="matrix(7.921450e-003 1 -0.6689 5.298467e-003 204.5758 -104.3183)" gradientUnits="userSpaceOnUse">
				<stop  offset="0" style="stop-color:#FFFFFF"/>
				<stop  offset="0.1804" style="stop-color:#FFFFFF"/>
				<stop  offset="0.3451" style="stop-color:#FFFFFF;stop-opacity:0.6706"/>
				<stop  offset="0.5333" style="stop-color:#FFFFFF;stop-opacity:0.4"/>
				<stop  offset="0.7294" style="stop-color:#FFFFFF;stop-opacity:0.0941"/>
				<stop  offset="0.8667" style="stop-color:#FFFFFF;stop-opacity:0.0275"/>
				<stop  offset="1" style="stop-color:#FFFFFF;stop-opacity:0"/>
			</radialGradient>
			<path fill-rule="evenodd" clip-rule="evenodd" fill="url(#SVGID_28_)" d="M176.6,42.75c3.27,5,4.9,11.07,4.9,18.2
				c0.07,7.1-1.47,13.13-4.6,18.1c-3.33,5.07-7.25,7.6-11.75,7.6c-4.5,0.13-8.42-2.3-11.75-7.3c-3.27-5-4.9-11.03-4.9-18.1
				c-0.07-7.17,1.48-13.27,4.65-18.3c3.2-5,7.08-7.57,11.65-7.7C169.27,35.25,173.2,37.75,176.6,42.75z"/>
		</g>
		<g>
			<linearGradient id="SVGID_29_" gradientUnits="userSpaceOnUse" x1="84.9126" y1="59.4106" x2="188.9876" y2="59.4106">
				<stop  offset="0" style="stop-color:#000000;stop-opacity:0"/>
				<stop  offset="0.5098" style="stop-color:#8AA3AD;stop-opacity:0.6706"/>
				<stop  offset="1" style="stop-color:#000000;stop-opacity:0"/>
			</linearGradient>
			<path fill-rule="evenodd" clip-rule="evenodd" fill="url(#SVGID_29_)" d="M166.8,66.5c-1.97,1.17-6.3,2.4-13,3.7
				c-6.73,1.3-13.58,1.77-20.55,1.4c-7.03-0.43-14.37-1.52-22-3.25c-7.7-1.8-11.8-2.92-12.3-3.35c-9-3.73-14.93-8.68-17.8-14.85
				c5.23,9.9,21.32,16.27,48.25,19.1c17.43,1.8,31.72-0.63,42.85-7.3c1.43-0.9,2.82-1.85,4.15-2.85c4.33-3.27,8.13-7.27,11.4-12
				c-3.2,5.23-7,9.67-11.4,13.3c-1.33,1.03-2.72,2.05-4.15,3.05C170.55,64.55,168.73,65.57,166.8,66.5z"/>
			<linearGradient id="SVGID_30_" gradientUnits="userSpaceOnUse" x1="91" y1="66.1006" x2="177.7" y2="66.1006">
				<stop  offset="3.921569e-003" style="stop-color:#FFFFFF;stop-opacity:0"/>
				<stop  offset="0.1725" style="stop-color:#FFFFFF;stop-opacity:0.7059"/>
				<stop  offset="0.5098" style="stop-color:#FFFFFF"/>
				<stop  offset="0.8196" style="stop-color:#FFFFFF;stop-opacity:0.6431"/>
				<stop  offset="1" style="stop-color:#FFFFFF;stop-opacity:0"/>
			</linearGradient>
			<path fill-rule="evenodd" clip-rule="evenodd" fill="url(#SVGID_30_)" d="M166.8,66.5c1.93-0.87,3.75-1.82,5.45-2.85
				c1.43-0.87,2.82-1.8,4.15-2.8c0.87-0.6,1.73-1.25,2.6-1.95c-0.87,0.77-1.73,1.48-2.6,2.15c-1.33,1.1-2.72,2.12-4.15,3.05
				c-11.07,7.33-24.4,10.28-40,8.85c-15.83-1.4-28-4.17-36.5-8.3c-0.27-0.13-0.52-0.25-0.75-0.35c-2.67-1.37-4.95-2.85-6.85-4.45
				c2.6,1.77,5.77,3.4,9.5,4.9c0.07,0,0.13,0.03,0.2,0.1c0.27,0,0.63,0.05,1.1,0.15c0.5,0.43,4.6,1.55,12.3,3.35
				c7.63,1.73,14.97,2.82,22,3.25c6.97,0.37,13.82-0.1,20.55-1.4C160.5,68.9,164.83,67.67,166.8,66.5z"/>
		</g>
	</g>
</g>
</svg>
