<?xml version="1.0" encoding="utf-8"?>
<!-- Generator: Adobe Illustrator 16.0.0, SVG Export Plug-In . SVG Version: 6.00 Build 0)  -->
<!DOCTYPE svg PUBLIC "-//W3C//DTD SVG 1.1//EN" "http://www.w3.org/Graphics/SVG/1.1/DTD/svg11.dtd">
<svg version="1.1" id="Layer_2" xmlns="http://www.w3.org/2000/svg" xmlns:xlink="http://www.w3.org/1999/xlink" x="0px" y="0px"
	 width="12.72px" height="12.94px" viewBox="0 0 12.72 12.94" enable-background="new 0 0 12.72 12.94" xml:space="preserve">
<g>
	<g>
		<radialGradient id="SVGID_1_" cx="6.375" cy="6.6313" r="8.1622" gradientUnits="userSpaceOnUse">
			<stop  offset="0" style="stop-color:#F4F003"/>
			<stop  offset="0.5216" style="stop-color:#F3ED04"/>
			<stop  offset="1" style="stop-color:#B8971B"/>
		</radialGradient>
		<path fill-rule="evenodd" clip-rule="evenodd" fill="url(#SVGID_1_)" d="M0.33,6.63c0-1.7,0.58-3.13,1.75-4.3
			c1.2-1.2,2.63-1.8,4.3-1.8c1.7,0,3.15,0.6,4.35,1.8c1.17,1.17,1.75,2.6,1.75,4.3c0,1.67-0.58,3.1-1.75,4.3
			c-1.2,1.17-2.65,1.75-4.35,1.75c-1.67,0-3.1-0.58-4.3-1.75C0.91,9.73,0.33,8.3,0.33,6.63z"/>
	</g>
	<g>
		<radialGradient id="SVGID_2_" cx="6.875" cy="5.3813" r="8.1622" gradientUnits="userSpaceOnUse">
			<stop  offset="0.0431" style="stop-color:#F4F003;stop-opacity:0"/>
			<stop  offset="0.4392" style="stop-color:#F3ED04;stop-opacity:0"/>
			<stop  offset="0.8314" style="stop-color:#856D16"/>
		</radialGradient>
		<path fill-rule="evenodd" clip-rule="evenodd" fill="url(#SVGID_2_)" d="M0.33,6.63c0-1.7,0.58-3.13,1.75-4.3
			c1.2-1.2,2.63-1.8,4.3-1.8c1.7,0,3.15,0.6,4.35,1.8c1.17,1.17,1.75,2.6,1.75,4.3c0,1.67-0.58,3.1-1.75,4.3
			c-1.2,1.17-2.65,1.75-4.35,1.75c-1.67,0-3.1-0.58-4.3-1.75C0.91,9.73,0.33,8.3,0.33,6.63z"/>
	</g>
	<g>
		<path fill-rule="evenodd" clip-rule="evenodd" d="M9.03,5.73c0.2,0,0.38,0.07,0.55,0.2c0.2,0.17,0.3,0.35,0.3,0.55
			c0,0.2-0.1,0.4-0.3,0.6c-0.17,0.13-0.33,0.2-0.5,0.2h-5c-0.27,0-0.47-0.07-0.6-0.2c-0.17-0.2-0.25-0.4-0.25-0.6
			c0-0.2,0.08-0.38,0.25-0.55c0.13-0.13,0.33-0.2,0.6-0.2H9.03z"/>
	</g>
</g>
</svg>
