<?xml version="1.0" encoding="utf-8"?>
<!-- Generator: Adobe Illustrator 16.0.0, SVG Export Plug-In . SVG Version: 6.00 Build 0)  -->
<!DOCTYPE svg PUBLIC "-//W3C//DTD SVG 1.1//EN" "http://www.w3.org/Graphics/SVG/1.1/DTD/svg11.dtd">
<svg version="1.1" id="Layer_1" xmlns="http://www.w3.org/2000/svg" xmlns:xlink="http://www.w3.org/1999/xlink" x="0px" y="0px"
	 width="234px" height="167px" viewBox="0 0 234 167" enable-background="new 0 0 234 167" xml:space="preserve">
<g>
	
		<radialGradient id="SVGID_1_" cx="111.8486" cy="89.6367" r="117.5362" gradientTransform="matrix(0.8711 -0.4912 0.1619 0.2871 -0.0877 118.8429)" gradientUnits="userSpaceOnUse">
		<stop  offset="0" style="stop-color:#1C40EC;stop-opacity:0.251"/>
		<stop  offset="0.1176" style="stop-color:#0A39E7;stop-opacity:0.1137"/>
		<stop  offset="0.3333" style="stop-color:#0939E3;stop-opacity:0.0667"/>
		<stop  offset="0.5765" style="stop-color:#0A39E9;stop-opacity:0.0275"/>
		<stop  offset="0.7451" style="stop-color:#0838E2;stop-opacity:7.843138e-003"/>
		<stop  offset="1" style="stop-color:#0A39E7;stop-opacity:0"/>
	</radialGradient>
	<path fill-rule="evenodd" clip-rule="evenodd" fill="url(#SVGID_1_)" d="M196.8,72.85c-16.1,17.67-38.15,34.4-66.15,50.2
		c-28,15.77-53.72,25.97-77.15,30.6c-23.43,4.63-37.75,2.33-42.95-6.9c-5.2-9.23,0.23-22.67,16.3-40.3
		C42.95,88.75,65,72.02,93,56.25c28-15.8,53.72-26,77.15-30.6c23.47-4.67,37.8-2.38,43,6.85C218.35,41.73,212.9,55.18,196.8,72.85z"
		/>
	
		<radialGradient id="SVGID_2_" cx="98.0488" cy="-2.9492" r="37.25" gradientTransform="matrix(0.1082 -0.0605 0.0392 0.07 150.3428 79.8702)" gradientUnits="userSpaceOnUse">
		<stop  offset="0" style="stop-color:#FFFFFF"/>
		<stop  offset="0.1686" style="stop-color:#FFFFFF;stop-opacity:0.8392"/>
		<stop  offset="0.2588" style="stop-color:#FFFFFF;stop-opacity:0.3216"/>
		<stop  offset="0.5373" style="stop-color:#FFFFFF;stop-opacity:0.1412"/>
		<stop  offset="0.8588" style="stop-color:#FFFFFF;stop-opacity:0.0275"/>
		<stop  offset="1" style="stop-color:#FFFFFF;stop-opacity:0"/>
	</radialGradient>
	<path fill-rule="evenodd" clip-rule="evenodd" fill="url(#SVGID_2_)" d="M159.38,71.14c1.11-0.62,2.19-0.89,3.25-0.83
		c1.07,0.07,1.8,0.46,2.2,1.18c0.4,0.72,0.35,1.55-0.15,2.49c-0.5,0.94-1.3,1.72-2.4,2.34c-1.11,0.62-2.19,0.89-3.26,0.82
		c-1.06-0.07-1.79-0.46-2.19-1.18c-0.4-0.72-0.35-1.55,0.14-2.49C157.47,72.54,158.28,71.76,159.38,71.14z"/>
	<g>
		<path fill-rule="evenodd" clip-rule="evenodd" fill="#F0F8FF" d="M176.35,59.55c0.17-0.13,0.3-0.25,0.4-0.35
			c0.53,0.23,1.12,0.45,1.75,0.65c0.4-0.1,0.87-0.1,1.4,0c0.87,0.2,1.52,0.28,1.95,0.25c0.67-0.03,1.07-0.05,1.2-0.05
			c0.4,0.07,0.75,0.23,1.05,0.5c1.4,0.5,2.35,0.65,2.85,0.45c0.17-0.1,0.37-0.47,0.6-1.1c0.23-0.67,0.63-1.12,1.2-1.35
			c0.3-0.17,0.78-0.15,1.45,0.05c0.13,0.03,0.53,0.17,1.2,0.4l0.15,0.25c0.23,0.57,0.4,1.03,0.5,1.4c-0.27-0.07-0.68-0.18-1.25-0.35
			c-0.97-0.37-1.55-0.5-1.75-0.4c-0.33,0.13-0.53,0.5-0.6,1.1c-0.1,0.57-0.3,0.92-0.6,1.05c-0.37,0.2-0.77,0.25-1.2,0.15
			c-0.53-0.17-0.98-0.3-1.35-0.4c-0.27-0.1-0.53-0.17-0.8-0.2c-0.23,0-0.48-0.03-0.75-0.1v0.05c-0.17-0.03-0.32-0.05-0.45-0.05
			c-0.07-0.03-0.22-0.03-0.45,0c-0.1,0.03-0.22,0.05-0.35,0.05c-0.47,0.1-0.78,0.13-0.95,0.1c-0.3-0.17-0.55-0.28-0.75-0.35
			c-0.33-0.13-0.58-0.15-0.75-0.05c-0.07,0.03-0.13,0.27-0.2,0.7c-0.07,0.43-0.35,0.75-0.85,0.95c-0.23,0.1-0.53,0.1-0.9,0
			c-0.43-0.13-0.72-0.17-0.85-0.1c-0.1,0.03-0.22,0.2-0.35,0.5c-0.13,0.23-0.23,0.37-0.3,0.4c-0.1,0.07-0.23,0.03-0.4-0.1
			c-0.2-0.13-0.43-0.13-0.7,0c-0.03,0-0.1,0.28-0.2,0.85c-0.13,0.57-0.47,0.97-1,1.2c-0.07,0.03-0.27,0.07-0.6,0.1
			c-0.27,0-0.52,0.05-0.75,0.15c-0.23,0.13-0.37,0.25-0.4,0.35c0,0.07,0.03,0.18,0.1,0.35c0.1,0.3-0.22,0.62-0.95,0.95l-0.75,0.3
			c-0.03,0-0.15,0.13-0.35,0.4c-0.2,0.3-0.4,0.48-0.6,0.55c-0.03,0.03-0.17,0.07-0.4,0.1c-0.23,0-0.38,0.03-0.45,0.1
			c-0.17,0.07-0.3,0.25-0.4,0.55c-0.07,0.3-0.22,0.5-0.45,0.6c-0.33,0.17-0.82,0.13-1.45-0.1c-0.67-0.27-1.05-0.4-1.15-0.4
			l-0.55,0.2c-0.2,0.03-0.28-0.07-0.25-0.3c-0.07-0.1-0.22-0.22-0.45-0.35c-0.23-0.1-0.4-0.13-0.5-0.1
			c-0.07,0.03-0.13,0.12-0.2,0.25c-0.07,0.1-0.08,0.17-0.05,0.2c0,0.07,0.03,0.12,0.1,0.15c0.07,0.07,0.12,0.12,0.15,0.15
			c0.07,0.2-0.05,0.37-0.35,0.5c-0.5,0.27-0.78,0.43-0.85,0.5c-0.07,0.1-0.1,0.28-0.1,0.55l-0.05,0.45
			c-0.67,1.17-1.07,2.02-1.2,2.55c-0.1,0.37-0.15,0.57-0.15,0.6c-0.1,0.2-0.27,0.33-0.5,0.4c-0.37,0.13-0.57,0.2-0.6,0.2
			c-0.23,0.1-0.4,0.25-0.5,0.45c-0.07,0.1-0.15,0.28-0.25,0.55c-0.1,0.27-0.25,0.48-0.45,0.65c-0.27,0.23-0.43,0.43-0.5,0.6h-0.05
			c-0.07,0.1-0.17,0.22-0.3,0.35c-0.1,0.07-0.2,0.15-0.3,0.25c-0.03-0.03-0.07-0.08-0.1-0.15c-0.17-0.37-0.08-0.67,0.25-0.9
			c0.07-0.03,0.12-0.05,0.15-0.05c0.47-0.3,0.75-0.65,0.85-1.05c0.13-0.53,0.52-0.93,1.15-1.2c0.43-0.2,0.55-0.52,0.35-0.95
			c-0.1-0.23-0.28-0.3-0.55-0.2c-0.23,0.07-0.63,0.22-1.2,0.45c-0.1-0.03-0.18-0.05-0.25-0.05c-0.37-0.27-0.62-0.45-0.75-0.55
			c-0.6-0.3-1.07-0.48-1.4-0.55c-0.27-0.03-0.95-0.23-2.05-0.6c-0.87-0.3-1.45-0.38-1.75-0.25c-0.37,0.17-0.52,0.5-0.45,1
			c0,0.5-0.18,0.83-0.55,1c-0.17,0.1-0.43,0.12-0.8,0.05c-0.4-0.07-0.73-0.05-1,0.05c-0.4,0.2-0.7,0.47-0.9,0.8
			c-0.27,0.37-0.42,0.55-0.45,0.55c-0.1,0.07-0.47,0.13-1.1,0.2c-0.6,0.1-1,0.18-1.2,0.25c-0.27,0.13-0.58,0.4-0.95,0.8
			c-0.23,0.23-0.45,0.45-0.65,0.65c-0.1,0.07-0.17,0.1-0.2,0.1c-0.07,0.03-0.12-0.02-0.15-0.15c0.53-0.83,1.12-1.38,1.75-1.65
			c0.43-0.2,0.82-0.32,1.15-0.35c0.27,0,0.57-0.08,0.9-0.25c0.53-0.23,0.92-0.53,1.15-0.9c0.27-0.33,0.42-0.52,0.45-0.55
			c0.2-0.07,0.43-0.08,0.7-0.05c0.27,0.07,0.47,0.07,0.6,0c0.27-0.13,0.5-0.52,0.7-1.15c0.17-0.63,0.38-1.03,0.65-1.2
			c0.3-0.2,0.6-0.23,0.9-0.1s0.7,0.33,1.2,0.6c0.73,0.07,1.37,0.18,1.9,0.35c0.47,0.2,0.8,0.32,1,0.35c0.17,0.1,0.48,0.28,0.95,0.55
			c0.37,0.2,0.7,0.25,1,0.15c0.3-0.07,0.68-0.1,1.15-0.1c0.43,0,0.7-0.02,0.8-0.05l1.05-2.5c-0.1-0.1-0.15-0.17-0.15-0.2
			c-0.07-0.13,0-0.3,0.2-0.5c0.3-0.23,0.53-0.42,0.7-0.55c0.27-0.2,0.45-0.42,0.55-0.65c0.07-0.13,0.23-0.25,0.5-0.35
			c0.63-0.3,1.4-0.22,2.3,0.25c0.87,0.5,1.5,0.67,1.9,0.5c0.23-0.13,0.35-0.25,0.35-0.35c-0.03-0.2,0-0.35,0.1-0.45
			c0.1-0.13,0.23-0.23,0.4-0.3c0.37-0.13,0.57-0.2,0.6-0.2c0.23-0.1,0.57-0.32,1-0.65c0.33-0.33,0.52-0.5,0.55-0.5l0.75-0.3
			c0.1-0.03,0.23-0.22,0.4-0.55c0.17-0.33,0.2-0.58,0.1-0.75v-0.05c-0.07-0.07-0.13-0.13-0.2-0.2c-0.07-0.03-0.13-0.05-0.2-0.05
			l-0.25,0.1c-0.2,0.03-0.43,0.12-0.7,0.25c-0.37,0.17-0.83,0.38-1.4,0.65c-1.13-0.03-1.78-0.2-1.95-0.5
			c-0.1-0.23-0.05-0.48,0.15-0.75c0.17-0.2,0.23-0.35,0.2-0.45c-0.1-0.2-0.58-0.27-1.45-0.2c-0.8,0.07-1.33-0.18-1.6-0.75
			c-0.1-0.2-0.35-0.37-0.75-0.5c-0.4-0.2-0.72-0.23-0.95-0.1c-0.1,0.03-0.17,0.07-0.2,0.1c0.03,0.33,0.1,0.75,0.2,1.25
			c-0.03,0.43-0.48,0.85-1.35,1.25c-0.13,0.07-0.45,0.18-0.95,0.35c-0.43,0.17-0.77,0.3-1,0.4c-0.07-0.1-0.1-0.17-0.1-0.2
			c-0.1-0.1-0.18-0.13-0.25-0.1c-0.03,0-0.13,0.12-0.3,0.35c-0.2,0.3-0.42,0.5-0.65,0.6c-0.17,0.07-0.58,0.03-1.25-0.1
			c-0.6-0.1-0.97-0.2-1.1-0.3c-0.27-0.2-0.47-0.48-0.6-0.85c-0.03-0.03-0.3,0.07-0.8,0.3c-0.33,0.17-0.63,0.18-0.9,0.05
			c-0.13-0.03-0.32-0.18-0.55-0.45c-0.53-0.5-1.18-0.57-1.95-0.2c-0.2,0.07-0.38,0.22-0.55,0.45c-0.17,0.23-0.32,0.38-0.45,0.45
			c-0.63,0.27-1.45,0.3-2.45,0.1c-1-0.2-1.6-0.25-1.8-0.15c-0.23,0.13-0.28,0.35-0.15,0.65c0.17,0.33,0.18,0.57,0.05,0.7
			c-0.33,0.3-0.83,0.6-1.5,0.9h0.05c-0.03,0.1-0.3,0.22-0.8,0.35c-0.6,0.2-1.2,0.33-1.8,0.4c-0.13,0.03-0.42,0.02-0.85-0.05
			c-0.33,0-0.58,0.03-0.75,0.1c-0.37,0.17-0.68,0.43-0.95,0.8s-0.43,0.57-0.5,0.6c-0.43,0.2-0.87,0.28-1.3,0.25
			c-0.23-0.03-0.47-0.1-0.7-0.2c0-0.13,0.03-0.2,0.1-0.2V70.3c-0.1,0.03-0.18,0.07-0.25,0.1c-0.6,0.3-1.18,0.38-1.75,0.25
			c-0.57-0.1-0.93-0.35-1.1-0.75c-0.1-0.23-0.23-0.37-0.4-0.4c-0.17-0.03-0.38,0.03-0.65,0.2c-0.2,0.1-0.43,0.1-0.7,0
			c-0.27-0.1-0.48-0.12-0.65-0.05c-0.1,0.03-0.13,0.12-0.1,0.25c0.03,0.1,0.03,0.17,0,0.2c0,0.03-0.07,0.1-0.2,0.2
			c-0.1,0.07-0.36,0.33-0.77,0.8c-0.41,0.46-0.68,1.09-0.83,1.88c-0.14,0.79,0.53,1.03,2,0.73c1.47-0.31,2.08-0.11,1.83,0.6
			c-0.25,0.7-0.68,1.19-1.28,1.45c-0.4,0.17-0.7,0.18-0.9,0.05c-0.2-0.2-0.47-0.22-0.8-0.05c-0.17,0.07-0.38,0.18-0.65,0.35
			c-0.23,0.2-0.43,0.33-0.6,0.4c-0.63,0.3-1.2,0.35-1.7,0.15c-0.47-0.23-0.83-0.28-1.1-0.15c-0.57,0.27-0.88,0.63-0.95,1.1
			c-0.07,0.43-0.45,0.82-1.15,1.15c-0.33,0.13-0.67,0.15-1,0.05c-0.53-0.1-0.88-0.17-1.05-0.2c-0.23,0-0.58,0-1.05,0
			c-0.43-0.03-0.67-0.22-0.7-0.55c-0.13,0.03-0.25,0.07-0.35,0.1c-0.9,0.4-1.28,0.73-1.15,1c0.1,0.23,0.28,0.58,0.55,1.05
			c0.47,1.03,0.23,1.8-0.7,2.3c-0.27,0.17-0.62,0.35-1.05,0.55c-0.27,0.2-0.35,0.42-0.25,0.65c0.03,0.1,0.18,0.28,0.45,0.55
			c0.2,0.27,0.32,0.45,0.35,0.55c0.13,0.3,0,0.77-0.4,1.4c-0.37,0.57-0.67,0.92-0.9,1.05c-0.07,0-0.2,0.08-0.4,0.25
			c-0.4,0.17-1.07,0.23-2,0.2c-0.93,0-1.47,0.03-1.6,0.1c-0.2,0.07-0.28,0.2-0.25,0.4c0,0.23-0.1,0.47-0.3,0.7
			c-0.1,0.07-0.33,0.18-0.7,0.35c-0.23,0.1-0.35,0.27-0.35,0.5c-0.07,0.47-0.05,0.92,0.05,1.35c0.1,0.27,0.27,0.65,0.5,1.15
			c0.2,0.5,0.12,1.12-0.25,1.85c-0.2,0.47-0.5,0.9-0.9,1.3c-0.03,0.03-0.03,0.05,0,0.05l-0.1,0.05c-0.17,0.1-0.38,0.27-0.65,0.5
			c-0.2,0.23-0.33,0.37-0.4,0.4c-0.3,0.13-0.57,0.15-0.8,0.05c-0.17-0.17-0.33-0.22-0.5-0.15c-0.17,0.07-0.25,0.25-0.25,0.55
			c0,0.17,0,0.47,0,0.9c-0.03,0.87-0.42,1.47-1.15,1.8c-0.2,0.1-0.48,0.2-0.85,0.3c-0.33,0.1-0.55,0.17-0.65,0.2
			c-0.27,0.13-0.45,0.32-0.55,0.55c-0.03,0.23-0.18,0.4-0.45,0.5l-0.2,0.1c-0.13-0.1-0.25-0.22-0.35-0.35
			c-0.17-0.13-0.38-0.15-0.65-0.05c-0.2,0.1-0.38,0.3-0.55,0.6c-0.2,0.3-0.27,0.5-0.2,0.6c0.1,0.27,0.52,0.47,1.25,0.6
			c0,0.07-0.02,0.27-0.05,0.6c-0.07,0.3-0.07,0.52,0,0.65c0.07,0.17,0.18,0.28,0.35,0.35c0.13,0.1,0.28,0.32,0.45,0.65
			c0.07,0.17,0.15,0.47,0.25,0.9c0.03,0.07,0.15,0.12,0.35,0.15c-0.03,0.13-0.07,0.27-0.1,0.4c-0.3-0.07-0.58-0.07-0.85,0v-0.05
			l-0.15,0.1c-0.03,0.03-0.07,0.07-0.1,0.1c-0.3,0.23-0.65,0.62-1.05,1.15c-0.57,0.5-1.33,0.97-2.3,1.4
			c-1.37,0.63-2.52,1.02-3.45,1.15c-0.5,0.1-0.98,0.18-1.45,0.25c-0.1,0.03-0.32,0.23-0.65,0.6c-0.37,0.37-0.58,0.63-0.65,0.8
			c-0.07,0.17-0.02,0.43,0.15,0.8c0.13,0.33,0.15,0.6,0.05,0.8c0,0.07-0.12,0.27-0.35,0.6c-0.17,0.27-0.25,0.53-0.25,0.8
			c-0.03,0.07-0.02,0.18,0.05,0.35c0.07,0.17,0.02,0.32-0.15,0.45c-0.4,0.4-0.73,0.67-1,0.8c-0.27,0.1-0.58,0.12-0.95,0.05
			s-0.67-0.07-0.9,0c-0.23,0.13-0.33,0.27-0.3,0.4c0.03,0.03,0.12,0.18,0.25,0.45c0.3,0.43,0.05,0.83-0.75,1.2
			c-0.17,0.07-0.42,0.13-0.75,0.2c-0.37,0.03-0.62,0.08-0.75,0.15c-0.13,0.07-0.27,0.25-0.4,0.55c-0.1,0.3-0.27,0.5-0.5,0.6
			c-0.33,0.17-0.8,0.22-1.4,0.15c-0.33,0-0.62-0.05-0.85-0.15c-0.3-0.03-0.7,0.03-1.2,0.2c-0.1,0-0.22,0.03-0.35,0.1
			c-0.17,0.07-0.38,0.13-0.65,0.2c-0.07,0-0.13,0-0.2,0c-0.23,0.03-0.48,0.05-0.75,0.05c-0.07,0-0.15,0.05-0.25,0.15
			c0.17,0.2,0.13,0.35-0.1,0.45c-0.03,0.03-0.27,0.05-0.7,0.05c-0.43,0.03-0.85,0.13-1.25,0.3c-1.27,0.6-1.87,1.33-1.8,2.2
			c0.07,0.47,0.07,0.8,0,1c-0.13,0.33-0.48,0.63-1.05,0.9c-0.6,0.27-1.23,0.33-1.9,0.2c-0.37-0.07-0.77-0.17-1.2-0.3
			c-0.2,0-0.47,0.03-0.8,0.1c-0.27,0.03-0.45,0-0.55-0.1c-0.13-0.1-0.33-0.18-0.6-0.25c-0.3-0.07-0.53-0.07-0.7,0
			c-0.17,0.07-0.32,0.22-0.45,0.45s-0.25,0.37-0.35,0.4c-0.17,0.1-0.33,0.12-0.5,0.05c-0.23-0.07-0.43-0.05-0.6,0.05l-1.85,1.1
			c-0.23,0.1-0.38,0.1-0.45,0c-0.17-0.4,0.58-0.93,2.25-1.6c0.73-0.23,1.13-0.48,1.2-0.75c0.07-0.33,0.27-0.57,0.6-0.7
			c0.23-0.13,0.48-0.13,0.75,0c0.23,0.17,0.38,0.27,0.45,0.3c0.6,0,1.1,0.03,1.5,0.1c0.03-0.03,0.53,0.07,1.5,0.3
			c0.73,0.13,1.2,0.15,1.4,0.05c0.17-0.07,0.28-0.27,0.35-0.6c0.03-0.33,0.07-0.55,0.1-0.65c0.2-0.5,0.42-0.97,0.65-1.4
			c0.17-0.33,0.58-0.68,1.25-1.05c0.33-0.23,0.87-0.52,1.6-0.85c0.23-0.1,0.48-0.2,0.75-0.3c0.27-0.1,0.48-0.18,0.65-0.25
			c0.03,0,0.1-0.07,0.2-0.2c0.07-0.07,0.13-0.12,0.2-0.15c0.4-0.17,0.78-0.2,1.15-0.1c0.4,0.07,0.7,0.05,0.9-0.05
			c0.03-0.03,0.1-0.1,0.2-0.2c0.1-0.1,0.17-0.15,0.2-0.15c0.27-0.13,0.63-0.1,1.1,0.1c0.47,0.13,0.75,0.18,0.85,0.15
			c0.03-0.03,0.1-0.17,0.2-0.4c0.1-0.27,0.43-0.53,1-0.8c0.23-0.1,0.47-0.15,0.7-0.15c0.2,0.03,0.32,0.03,0.35,0
			c0.2-0.07,0.27-0.18,0.2-0.35c-0.1-0.2-0.18-0.35-0.25-0.45c-0.2-0.5,0.12-0.93,0.95-1.3c0.2-0.1,0.55-0.18,1.05-0.25
			c0.47-0.1,0.8-0.15,1-0.15c0.23,0.03,0.4-0.33,0.5-1.1c0.13-0.77,0.3-1.55,0.5-2.35c0.2-0.37,0.38-0.68,0.55-0.95
			c0.47-0.9,1.12-1.6,1.95-2.1c-0.1-0.2-0.18-0.45-0.25-0.75c-0.13-0.37-0.23-0.62-0.3-0.75c-0.17-0.33-0.43-0.58-0.8-0.75
			c-0.4-0.2-0.78-0.22-1.15-0.05c-0.47,0.2-0.98,1.07-1.55,2.6c-0.57,1.5-1.12,2.37-1.65,2.6c-0.67,0.3-1.18,0.3-1.55,0
			c-0.37-0.3-0.65-0.4-0.85-0.3c-0.23,0.1-0.23,0.52,0,1.25c0.27,0.77,0.2,1.3-0.2,1.6c-0.2,0.13-0.6,0.32-1.2,0.55
			c-0.43,0.2-0.7,0.4-0.8,0.6c0,0.07,0.05,0.2,0.15,0.4c0.07,0.13,0.07,0.27,0,0.4c-0.2,0.17-0.5,0.35-0.9,0.55
			c-0.27,0.1-0.55,0.15-0.85,0.15c-0.2,0.03-0.37,0.05-0.5,0.05c-0.3,0.33-0.62,0.58-0.95,0.75c-0.43,0.2-0.98,0.18-1.65-0.05
			c-0.63-0.23-1.2-0.23-1.7,0c-0.23,0.13-0.57,0.4-1,0.8c-0.37,0.43-0.73,0.73-1.1,0.9c-0.8,0.37-1.72,0.43-2.75,0.2
			c-0.5-0.13-0.97-0.27-1.4-0.4l-0.4,0.35c-0.43,0.17-0.83,0.18-1.2,0.05c-0.23-0.1-0.57-0.32-1-0.65c-1-0.57-2.4-0.43-4.2,0.4
			c-0.67,0.3-1.07,0.78-1.2,1.45c-0.1,0.7-0.37,1.15-0.8,1.35c-0.4,0.17-0.87,0.02-1.4-0.45c-0.53-0.43-0.92-0.6-1.15-0.5
			c-0.2,0.1-0.3,0.4-0.3,0.9c0,0.57-0.1,0.9-0.3,1c-0.17,0.07-0.42,0.08-0.75,0.05c-0.37-0.07-0.58-0.08-0.65-0.05
			c-0.1,0.03-0.22,0.23-0.35,0.6c-0.1,0.37-0.22,0.58-0.35,0.65c-0.77,0.33-1.17,0.68-1.2,1.05c0,0.33-0.07,0.53-0.2,0.6
			c-0.5,0.2-0.98,0.18-1.45-0.05c-0.63-0.33-1.08-0.52-1.35-0.55c-0.2,0-0.7,0.13-1.5,0.4c-0.73,0.23-1.13,0.28-1.2,0.15
			c-0.1-0.2,0.08-0.47,0.55-0.8c0.3-0.2,0.58-0.37,0.85-0.5c0.63-0.3,1.37-0.42,2.2-0.35c0.8,0.07,1.32,0.03,1.55-0.1
			c0.53-0.23,0.75-0.62,0.65-1.15c-0.1-0.5,0-0.82,0.3-0.95c0.13-0.07,0.33-0.1,0.6-0.1c0.27-0.07,0.45-0.12,0.55-0.15
			c0.4-0.17,0.62-0.47,0.65-0.9c0.03-0.47,0.27-0.8,0.7-1c0.8-0.37,1.45-0.33,1.95,0.1c0.23,0.17,0.38,0.3,0.45,0.4
			c0.2,0.13,0.35,0.17,0.45,0.1c0.07-0.03,0.22-0.3,0.45-0.8c0.2-0.47,0.35-0.8,0.45-1c0.17-0.07,0.32-0.13,0.45-0.2
			c0.17-0.13,0.3-0.25,0.4-0.35c0.17-0.1,0.37-0.2,0.6-0.3c0.73-0.33,1.23-0.53,1.5-0.6c0.33-0.17,0.75-0.32,1.25-0.45
			c0.47-0.13,0.93-0.15,1.4-0.05c0.33,0.1,0.75,0.27,1.25,0.5c0.43,0.27,0.9,0.42,1.4,0.45c0.57-0.03,1.03-0.05,1.4-0.05
			c0.07,0.03,0.48,0.12,1.25,0.25c0.53,0.07,0.97,0.03,1.3-0.1c0.17-0.1,0.42-0.27,0.75-0.5c0.37-0.23,0.63-0.4,0.8-0.5
			c0.57-0.07,0.92-0.13,1.05-0.2c0.1-0.07,0.23-0.17,0.4-0.3c0.17-0.17,0.33-0.28,0.5-0.35c0.23-0.1,0.58-0.1,1.05,0
			c0.43,0.07,0.78,0.05,1.05-0.05c0.1-0.03,0.23-0.15,0.4-0.35l0.35-0.25c0.1-0.07,0.35-0.1,0.75-0.1s0.7-0.05,0.9-0.15
			c0.17-0.1,0.23-0.2,0.2-0.3c0-0.17,0.02-0.28,0.05-0.35c0.23-0.17,0.42-0.33,0.55-0.5c0.2-0.1,0.35-0.18,0.45-0.25
			c0.1-0.1,0.15-0.22,0.15-0.35c0-0.07-0.02-0.18-0.05-0.35c-0.03-0.17-0.07-0.3-0.1-0.4c-0.13-0.4-0.03-0.92,0.3-1.55
			c0.3-0.63,0.62-1.03,0.95-1.2c0.37-0.17,0.77-0.23,1.2-0.2c0.3,0.07,0.48,0.08,0.55,0.05c0.23-0.1,0.4-0.25,0.5-0.45
			c0.17-0.4,0.28-0.63,0.35-0.7c0.07-0.13,0.27-0.32,0.6-0.55c0.37-0.2,0.58-0.33,0.65-0.4c0.07-0.13,0.08-0.33,0.05-0.6
			c-0.03-0.37-0.05-0.62-0.05-0.75c0.03-0.17,0.18-0.38,0.45-0.65c0.43-0.37,0.65-0.57,0.65-0.6l0.25-0.15
			c0.1-0.03,0.18-0.03,0.25,0c0.13-0.07,0.27-0.05,0.4,0.05c0.1,0.07,0.27,0.1,0.5,0.1c0.2,0.03,0.35,0.02,0.45-0.05
			c0.37-0.2,0.75-0.2,1.15,0c0.5,0.17,0.83,0.52,1,1.05c0.43,1.17,0.98,1.77,1.65,1.8c0.3,0,0.7-0.07,1.2-0.2
			c0.2-0.07,0.55-0.23,1.05-0.5c0.4-0.17,0.6-0.23,0.6-0.2c1.43-0.67,2.07-1.18,1.9-1.55c-0.07-0.13-0.2-0.25-0.4-0.35
			c-0.2-0.1-0.35-0.27-0.45-0.5c-0.13-0.23-0.12-0.47,0.05-0.7c0.23-0.27,0.32-0.45,0.25-0.55c0-0.03-0.18-0.1-0.55-0.2
			c-0.33-0.13-0.57-0.33-0.7-0.6c-0.17-0.3-0.17-0.62,0-0.95c0-0.1,0.17-0.43,0.5-1c0.17-0.17,0.35-0.5,0.55-1
			c0.1-0.33,0.25-0.55,0.45-0.65c0.13-0.03,0.3-0.07,0.5-0.1c0.17,0,0.27,0,0.3,0c0.1-0.03,0.17-0.1,0.2-0.2
			c0.03-0.1,0.12-0.18,0.25-0.25c0.23-0.07,0.5-0.15,0.8-0.25c0.5-0.2,0.75-0.32,0.75-0.35c0.83-0.37,1.35-0.73,1.55-1.1
			c0.07-0.27,0.02-0.6-0.15-1c-0.2-0.4-0.27-0.68-0.2-0.85c0.07-0.37,0.43-0.7,1.1-1c0.4-0.17,0.82-0.15,1.25,0.05
			c0.5,0.17,0.82,0.22,0.95,0.15c0.57-0.27,0.83-0.68,0.8-1.25c0-0.03-0.02-0.13-0.05-0.3L110,91.85c-0.23-0.47-0.55-0.8-0.95-1
			c-0.47-0.23-0.97-0.23-1.5,0c-0.13,0.07-0.47,0.43-1,1.1c-0.6,0.63-1.18,1.08-1.75,1.35c-0.43,0.2-0.95,0.25-1.55,0.15
			c-0.57-0.1-0.93-0.32-1.1-0.65c0-0.03,0.02-0.1,0.05-0.2v-0.2c-0.03-0.1-0.12-0.12-0.25-0.05c-0.1-0.03-0.2-0.02-0.3,0.05
			c-0.07,0.03-0.13,0.08-0.2,0.15c-0.1,0.07-0.18,0.12-0.25,0.15c-0.3,0.13-0.58,0.17-0.85,0.1c0.03-0.2,0.07-0.38,0.1-0.55
			c0-0.17,0.03-0.32,0.1-0.45c0.43,0.2,0.75,0.27,0.95,0.2c0.07-0.03,0.12-0.17,0.15-0.4c0.03-0.17,0.13-0.28,0.3-0.35
			c0.17-0.07,0.3-0.08,0.4-0.05c0.13,0.07,0.23,0.17,0.3,0.3c0.03,0.03,0.05,0.18,0.05,0.45c0.03,0.3,0.07,0.47,0.1,0.5
			c0.07,0.17,0.3,0.28,0.7,0.35c0.47,0.1,0.83,0.08,1.1-0.05c0.6-0.27,1.18-0.77,1.75-1.5c0.53-0.73,0.98-1.2,1.35-1.4
			c0.2-0.07,0.55-0.1,1.05-0.1c0.23-0.03,0.43-0.03,0.6,0c-0.1-0.33-0.02-0.63,0.25-0.9c0-0.03,0.32-0.28,0.95-0.75
			c0.27-0.2,0.42-0.55,0.45-1.05c0.07-0.43,0.32-0.75,0.75-0.95c0.67-0.3,1.33-0.35,2-0.15c0.73,0.17,1.15,0.23,1.25,0.2
			c0.8-0.37,1.15-0.68,1.05-0.95l-0.35-0.45c-0.37-0.87-0.07-1.68,0.9-2.45c0.5-0.33,0.83-0.58,1-0.75c0.3-0.27,0.4-0.52,0.3-0.75
			c-0.1-0.23-0.27-0.47-0.5-0.7c-0.27-0.27-0.45-0.5-0.55-0.7c-0.23-0.47-0.28-0.85-0.15-1.15c0.13-0.37,0.48-0.68,1.05-0.95
			c0.17-0.07,0.52-0.25,1.05-0.55l0.8-0.4c0.43-0.2,1.07-0.13,1.9,0.2c0.87,0.33,1.72,0.32,2.55-0.05c0.37-0.17,0.72-0.48,1.05-0.95
			c0.27-0.43,0.45-0.67,0.55-0.7c0.37-0.17,0.73-0.22,1.1-0.15c0.37,0.07,0.67,0.07,0.9,0c0.23-0.13,0.32-0.28,0.25-0.45
			c-0.07-0.1-0.22-0.32-0.45-0.65c-0.23-0.3-0.4-0.57-0.5-0.8c-0.23-0.47-0.25-0.85-0.05-1.15c0.13-0.27,0.63-0.65,1.5-1.15
			c0.4-0.23,0.62-0.62,0.65-1.15c0-0.47,0.28-0.83,0.85-1.1c0.37-0.17,0.93-0.23,1.7-0.2c0.73,0.03,1.18,0.02,1.35-0.05
			c0.1-0.07,0.25-0.17,0.45-0.3c0.2-0.17,0.33-0.27,0.4-0.3c0.27-0.13,0.53-0.18,0.8-0.15c0.37-0.07,0.62,0.05,0.75,0.35
			c0.03,0.03-0.02,0.18-0.15,0.45c-0.1,0.3-0.12,0.53-0.05,0.7c0.67-0.2,1.22-0.33,1.65-0.4c0.63-0.17,1.07-0.07,1.3,0.3
			c0.2-0.1,0.35-0.28,0.45-0.55c0.17-0.23,0.3-0.38,0.4-0.45c0.17-0.07,0.65-0.12,1.45-0.15c0.8-0.03,1.45-0.15,1.95-0.35
			c0.8-0.37,1.17-0.78,1.1-1.25c-0.03-0.47,0.37-0.88,1.2-1.25c0.57-0.27,1.37-0.37,2.4-0.3c1.07,0.1,1.82,0.05,2.25-0.15
			c0.17-0.07,0.33-0.15,0.5-0.25c0.17-0.13,0.32-0.23,0.45-0.3c1.23-0.57,2.18-0.53,2.85,0.1c0.17,0.13,0.38,0.33,0.65,0.6
			c0.2,0.17,0.43,0.2,0.7,0.1c0.1-0.07,0.22-0.13,0.35-0.2c0.07-0.13,0.13-0.22,0.2-0.25c0.3-0.13,0.6-0.17,0.9-0.1
			c0.43,0.03,0.73,0.27,0.9,0.7c0.1,0.27,0.43,0.43,1,0.5c0.53,0.03,0.95-0.02,1.25-0.15c0.1-0.03,0.18-0.2,0.25-0.5
			c0.1-0.27,0.17-0.42,0.2-0.45c0.4-0.17,0.78-0.2,1.15-0.1c0.33,0.1,0.55,0.12,0.65,0.05c0.1-0.03,0.18-0.07,0.25-0.1
			c-0.13-0.23-0.23-0.42-0.3-0.55c-0.07-0.2-0.03-0.37,0.1-0.5c0.27-0.1,0.5-0.2,0.7-0.3c0.4-0.2,0.57-0.38,0.5-0.55
			c0-0.03-0.07-0.1-0.2-0.2c-0.03-0.1-0.1-0.17-0.2-0.2c-0.07-0.03-0.12-0.05-0.15-0.05c-0.33-0.13-0.88-0.18-1.65-0.15
			c-1.37,0.03-2.22-0.07-2.55-0.3c-0.3-0.2-0.83-0.72-1.6-1.55c-0.23-0.27-0.48-0.47-0.75-0.6c-0.3-0.1-0.57-0.1-0.8,0
			c-0.13,0.07-0.25,0.18-0.35,0.35c-0.13,0.13-0.27,0.23-0.4,0.3c-0.17,0.07-0.47,0.07-0.9,0c-0.4-0.1-0.73-0.1-1,0
			c-0.07,0.03-0.3,0.18-0.7,0.45c-0.4,0.3-0.68,0.48-0.85,0.55c-0.37,0.17-0.9,0.25-1.6,0.25c-0.7-0.03-1.33,0.08-1.9,0.35
			c-0.27,0.13-0.57,0.43-0.9,0.9c-0.33,0.47-0.63,0.77-0.9,0.9c-0.13,0.07-0.32,0.07-0.55,0c-0.2-0.07-0.33-0.17-0.4-0.3
			c0.07-0.3,0.08-0.5,0.05-0.6c-0.6,0.1-0.98,0.18-1.15,0.25c-0.07,0.03-0.23,0.13-0.5,0.3c-0.23,0.17-0.42,0.27-0.55,0.3
			c-0.57,0.27-0.93,0.3-1.1,0.1c-0.2-0.23-0.47-0.28-0.8-0.15c-0.2,0.1-0.4,0.23-0.6,0.4c-0.17,0.13-0.33,0.23-0.5,0.3
			c-0.83,0.4-1.77,0.55-2.8,0.45c-0.3-0.03-0.5-0.07-0.6-0.1c-0.2-0.07-0.33-0.18-0.4-0.35c-0.4-0.03-0.68,0.02-0.85,0.15
			c-0.13,0.03-0.3,0.13-0.5,0.3c-0.27,0.1-0.6,0.07-1-0.1c-0.37-0.2-0.88-0.15-1.55,0.15c-0.53,0.2-1.43,0.33-2.7,0.4
			c0.07-0.13,0.17-0.23,0.3-0.3c0.03,0,0.17-0.05,0.4-0.15s0.68-0.27,1.35-0.5c0.67-0.23,1.1-0.4,1.3-0.5c0.3-0.2,0.5-0.32,0.6-0.35
			c0.03-0.03,0.18,0.05,0.45,0.25c0.27,0.23,0.67,0.22,1.2-0.05c0.27-0.17,0.6-0.2,1-0.1c0.43,0.13,0.73,0.2,0.9,0.2l0.4-0.2
			c-0.03-0.1-0.07-0.17-0.1-0.2c0-0.1,0.08-0.18,0.25-0.25c0.6-0.3,1-0.25,1.2,0.15c0.2,0.37,0.45,0.47,0.75,0.3
			c0.6-0.37,1.07-0.63,1.4-0.8c0.6-0.27,1-0.28,1.2-0.05c0.2,0.2,0.47,0.23,0.8,0.1c0-0.03,0.18-0.13,0.55-0.3
			c0.13-0.07,0.3-0.15,0.5-0.25c0.93-0.43,1.53-0.5,1.8-0.2c0.07,0.07,0.13,0.15,0.2,0.25c0.1,0.13,0.25,0.15,0.45,0.05
			c0.1-0.03,0.25-0.18,0.45-0.45c0.2-0.2,0.4-0.35,0.6-0.45c0.7-0.3,1.45-0.48,2.25-0.55c0.83-0.03,1.35-0.1,1.55-0.2
			c0.07-0.03,0.3-0.22,0.7-0.55c0.43-0.33,0.72-0.53,0.85-0.6c0.4-0.17,0.77-0.18,1.1-0.05c0.33,0.13,0.57,0.17,0.7,0.1
			c0.1-0.07,0.23-0.22,0.4-0.45c0.17-0.23,0.3-0.38,0.4-0.45c0.47-0.2,1.12,0,1.95,0.6c0.43,0.3,0.95,0.7,1.55,1.2
			c0.7,0.3,1.48,0.53,2.35,0.7c0.9,0.13,1.58,0.3,2.05,0.5c0.27,0.13,0.93,0.28,2,0.45c0.87,0.07,1.37,0.27,1.5,0.6
			c0.1,0.3,0.73,0.57,1.9,0.8c1.17,0.2,1.8,0.42,1.9,0.65s0.07,0.43-0.1,0.6c-0.2,0.2-0.27,0.35-0.2,0.45c0.1,0.27,0.43,0.27,1,0
			l0.5-0.3c0.5-0.2,1.05-0.23,1.65-0.1c0.57,0.13,0.93,0.17,1.1,0.1c0.2-0.1,0.4-0.37,0.6-0.8c0.2-0.47,0.67-0.87,1.4-1.2
			c0.23-0.1,0.43-0.12,0.6-0.05c0.13,0.07,0.27,0.07,0.4,0c0.03-0.03,0.08-0.1,0.15-0.2c0.07-0.1,0.15-0.18,0.25-0.25
			c0.27-0.13,0.48-0.07,0.65,0.2c0.13,0.23,0.38,0.27,0.75,0.1c0.3-0.13,0.48-0.37,0.55-0.7c0.03-0.23,0-0.48-0.1-0.75
			c-0.03-0.07-0.62-0.3-1.75-0.7C176.87,59.7,176.58,59.62,176.35,59.55z"/>
		
			<linearGradient id="SVGID_3_" gradientUnits="userSpaceOnUse" x1="-304.3647" y1="-508.4844" x2="-295.1907" y2="-508.4844" gradientTransform="matrix(-0.9102 0.4142 -0.4002 -0.9166 -322.3953 -262.6442)">
			<stop  offset="0" style="stop-color:#FFFFFF"/>
			<stop  offset="1" style="stop-color:#FFFFFF;stop-opacity:0"/>
		</linearGradient>
		<path fill-rule="evenodd" clip-rule="evenodd" fill="url(#SVGID_3_)" d="M157.8,78.45c-0.13,0.1-0.27,0.2-0.4,0.3V78.7l-0.05,0.05
			l-0.7,0.3c-0.53,0.23-0.97,0.4-1.3,0.5c-0.2,0.03-0.47,0.03-0.8,0c-0.3-0.03-0.53-0.05-0.7-0.05c-1-0.07-2.45,0.28-4.35,1.05
			l-0.1-0.15c0.17-0.2,0.3-0.32,0.4-0.35c0.07-0.03,0.23-0.07,0.5-0.1c0.27-0.07,0.48-0.13,0.65-0.2c1.2-0.53,2.18-0.78,2.95-0.75
			c0.77,0.1,1.28,0.08,1.55-0.05l0.7-0.5c0.1-0.03,0.18-0.05,0.25-0.05c0.13,0,0.27-0.03,0.4-0.1l1.25-1l0.05,0.05
			c-0.03,0-0.08,0.02-0.15,0.05c-0.33,0.23-0.42,0.53-0.25,0.9C157.73,78.37,157.77,78.42,157.8,78.45z"/>
		
			<linearGradient id="SVGID_4_" gradientUnits="userSpaceOnUse" x1="-323.3208" y1="-495.7451" x2="-311.5067" y2="-495.7451" gradientTransform="matrix(-0.9098 0.4149 -0.4149 -0.9098 -324.8001 -261.4311)">
			<stop  offset="0" style="stop-color:#FFFFFF"/>
			<stop  offset="1" style="stop-color:#FFFFFF;stop-opacity:0"/>
		</linearGradient>
		<path fill-rule="evenodd" clip-rule="evenodd" fill="url(#SVGID_4_)" d="M176.35,59.55c-0.63-0.23-0.98-0.38-1.05-0.45l-0.5-0.5
			c-0.2-0.17-0.42-0.28-0.65-0.35c-0.13-0.07-0.35-0.18-0.65-0.35c-0.3-0.2-0.48-0.37-0.55-0.5c-0.07-0.17-0.03-0.37,0.1-0.6
			c0.1-0.2,0.1-0.38,0-0.55c-0.1-0.3-0.3-0.53-0.6-0.7c-0.3-0.2-0.6-0.23-0.9-0.1c-0.37,0.17-0.58,0.42-0.65,0.75
			c-0.07,0.33-0.22,0.55-0.45,0.65c-0.13,0.07-0.22,0.05-0.25-0.05l-0.15-0.25c-0.03-0.07-0.05-0.15-0.05-0.25c0-0.07,0-0.13,0-0.2
			c-0.07-0.13-0.15-0.22-0.25-0.25c-0.1,0-0.22,0.02-0.35,0.05c-0.1,0.07-0.18,0.15-0.25,0.25c-0.1,0.13-0.17,0.2-0.2,0.2
			c-0.13,0.1-0.32,0-0.55-0.3c-0.27-0.33-0.62-0.4-1.05-0.2c-0.13,0.07-0.33,0.2-0.6,0.4c-0.3,0.23-0.5,0.37-0.6,0.4
			c-0.33,0.13-0.58,0.1-0.75-0.1c-0.17-0.27-0.42-0.37-0.75-0.3c-0.27,0.03-0.6,0.1-1,0.2c-0.53,0.13-0.85,0.23-0.95,0.3
			c0-0.17,0.08-0.3,0.25-0.4c0.07-0.03,0.27-0.13,0.6-0.3c0.73-0.33,1.33-0.38,1.8-0.15c0.43,0.2,0.73,0.27,0.9,0.2
			c0.03,0,0.52-0.28,1.45-0.85c0.17-0.07,0.32-0.1,0.45-0.1c0.13,0.03,0.22,0.08,0.25,0.15c0.03,0.07,0.05,0.12,0.05,0.15
			c-0.03,0.03-0.07,0.07-0.1,0.1c0.23,0,0.37-0.02,0.4-0.05c0.13-0.13,0.25-0.23,0.35-0.3c0.2-0.07,0.38-0.08,0.55-0.05
			c0.2,0.03,0.32,0.1,0.35,0.2l0.05,0.65c0.03,0.07,0.1,0.1,0.2,0.1l0.2-0.1l1.5-1.1c0.27-0.1,0.53-0.03,0.8,0.2
			c0.17,0.17,0.3,0.33,0.4,0.5c0.03,0.1,0.05,0.25,0.05,0.45c0.03,0.03,0.08,0.08,0.15,0.15c0.03,0.03,0.07,0.07,0.1,0.1l0.05,0.5
			c0.03,0.33,0.07,0.52,0.1,0.55c0.07,0.13,0.92,0.65,2.55,1.55c0.2,0.07,0.4,0.17,0.6,0.3C176.65,59.3,176.52,59.42,176.35,59.55z"
			/>
		
			<linearGradient id="SVGID_5_" gradientUnits="userSpaceOnUse" x1="-329.5483" y1="-508.7407" x2="-313.0914" y2="-508.7407" gradientTransform="matrix(-0.9101 0.4145 -0.4145 -0.9101 -324.7531 -261.5261)">
			<stop  offset="0" style="stop-color:#FFFFFF"/>
			<stop  offset="1" style="stop-color:#FFFFFF;stop-opacity:0"/>
		</linearGradient>
		<path fill-rule="evenodd" clip-rule="evenodd" fill="url(#SVGID_5_)" d="M184.5,61.6c0.1,0.13,0.13,0.28,0.1,0.45
			c-0.03,0.1-0.13,0.18-0.3,0.25c-0.2,0.1-0.88,0.32-2.05,0.65c-0.27,0.13-0.45,0.32-0.55,0.55c-0.07,0.13-0.13,0.38-0.2,0.75
			c-0.2,0.73-0.78,1.32-1.75,1.75c-0.5,0.23-0.88,0.32-1.15,0.25c-0.33-0.1-0.65-0.08-0.95,0.05c-0.23,0.1-0.33,0.33-0.3,0.7
			c0,0.17,0.03,0.37,0.1,0.6c0.03,0.27-0.17,0.57-0.6,0.9c-0.4,0.3-0.55,0.55-0.45,0.75c0.03,0.07,0.18,0.2,0.45,0.4
			c0.3,0.17,0.47,0.27,0.5,0.3c0.1,0.27-0.18,0.63-0.85,1.1c-0.67,0.47-0.92,0.88-0.75,1.25c0.1,0.2,0.22,0.35,0.35,0.45
			c0.13,0.13,0.22,0.25,0.25,0.35c0.1,0.2-0.07,0.42-0.5,0.65c-0.07,0.03-0.23,0.1-0.5,0.2c-0.27,0.07-0.48,0.15-0.65,0.25
			c-0.2,0.07-0.3,0.15-0.3,0.25c-0.07,0.1-0.22,0.2-0.45,0.3c-0.6,0.27-1.05,0.37-1.35,0.3c0-0.07,0.03-0.12,0.1-0.15
			c0.03-0.03,0.17-0.1,0.4-0.2c0.1-0.07,0.25-0.13,0.45-0.2c0.23-0.07,0.4-0.12,0.5-0.15c0.2-0.1,0.33-0.2,0.4-0.3
			c0.03-0.1,0.15-0.23,0.35-0.4c0.2-0.1,0.37-0.2,0.5-0.3c0.27-0.13,0.38-0.27,0.35-0.4c-0.03-0.07-0.1-0.13-0.2-0.2
			c-0.1-0.13-0.17-0.27-0.2-0.4c-0.13-0.3,0.07-0.7,0.6-1.2c0.6-0.5,0.85-0.85,0.75-1.05c0-0.03-0.13-0.17-0.4-0.4
			c-0.23-0.27-0.37-0.47-0.4-0.6c-0.13-0.27-0.03-0.58,0.3-0.95c0.3-0.33,0.42-0.57,0.35-0.7c-0.07-0.27,0.02-0.57,0.25-0.9
			c0.17-0.33,0.43-0.57,0.8-0.7c0.17-0.1,0.47-0.17,0.9-0.2c0.43-0.07,0.73-0.13,0.9-0.2c0.47-0.23,0.88-0.57,1.25-1
			c0.33-0.47,0.48-0.9,0.45-1.3c0.3-0.23,0.8-0.5,1.5-0.8c0.53-0.27,0.95-0.53,1.25-0.8V61.5C184.02,61.57,184.27,61.6,184.5,61.6z"
			/>
		
			<linearGradient id="SVGID_6_" gradientUnits="userSpaceOnUse" x1="-241.7544" y1="-516.2373" x2="-225.5768" y2="-516.2373" gradientTransform="matrix(-0.9098 0.415 -0.415 -0.9098 -324.8112 -261.412)">
			<stop  offset="0" style="stop-color:#FFFFFF"/>
			<stop  offset="1" style="stop-color:#FFFFFF;stop-opacity:0"/>
		</linearGradient>
		<path fill-rule="evenodd" clip-rule="evenodd" fill="url(#SVGID_6_)" d="M105.3,105.9c0.1,0.03,0.23,0.07,0.4,0.1
			c0.47,0.07,0.8,0.3,1,0.7c0.2,0.43,0.15,0.88-0.15,1.35c-0.3,0.47-0.4,0.78-0.3,0.95c0.03,0.1,0.08,0.15,0.15,0.15l0.2-0.1
			l0.65-0.4c0.37-0.2,0.78-0.32,1.25-0.35c0.67-0.1,1.08,0.03,1.25,0.4c0.17,0.33,0.03,0.68-0.4,1.05c-0.57,0.43-0.87,0.7-0.9,0.8
			c-0.03,0.1-0.03,0.42,0,0.95c0,0.5-0.18,0.83-0.55,1c-0.43,0.2-0.77,0.22-1,0.05c-0.07-0.07-0.15-0.18-0.25-0.35
			c-0.1-0.1-0.2-0.2-0.3-0.3c-0.3-0.2-0.58-0.32-0.85-0.35c-0.27-0.1-0.55-0.07-0.85,0.1c-0.47,0.2-0.78,0.43-0.95,0.7
			c-0.07,0.1-0.13,0.35-0.2,0.75c-0.17,0.7-0.8,1.3-1.9,1.8c-0.4,0.17-0.83,0.15-1.3-0.05c-0.4-0.23-0.65-0.33-0.75-0.3
			c-0.1,0.07-0.28,0.28-0.55,0.65c-0.23,0.43-0.45,0.7-0.65,0.8H97.8c-0.4-0.03-0.72,0.02-0.95,0.15c-0.23,0.1-0.38,0.28-0.45,0.55
			c-0.03,0.27-0.07,0.4-0.1,0.4c-0.03,0.03-0.17,0.08-0.4,0.15l-0.05-0.2c-0.07-0.27-0.03-0.52,0.1-0.75
			c0.13-0.27,0.32-0.45,0.55-0.55l1.4-0.5c0.43-0.2,0.73-0.42,0.9-0.65c0.17-0.27,0.3-0.43,0.4-0.5c0.23-0.1,0.53-0.03,0.9,0.2
			c0.37,0.2,0.82,0.18,1.35-0.05c0.03,0.07,0.18,0,0.45-0.2c0.33-0.17,0.58-0.4,0.75-0.7c0.07-0.07,0.08-0.18,0.05-0.35
			c-0.03-0.27-0.03-0.43,0-0.5c0.03-0.2,0.27-0.47,0.7-0.8c0.33-0.27,0.57-0.43,0.7-0.5c0.2-0.1,0.43-0.15,0.7-0.15
			c0.23,0.03,0.57,0.08,1,0.15c0.13,0.03,0.38,0.03,0.75,0c0.27-0.07,0.47-0.05,0.6,0.05c-0.1,0.2-0.12,0.35-0.05,0.45
			c0.03,0.07,0.12,0.15,0.25,0.25c0.1,0.07,0.17,0.1,0.2,0.1c0.2-0.1,0.3-0.3,0.3-0.6c-0.03-0.4-0.05-0.68-0.05-0.85
			c0-0.27,0.15-0.52,0.45-0.75c0.4-0.17,0.68-0.33,0.85-0.5l-0.15-0.35c-0.07-0.07-0.18-0.13-0.35-0.2c-0.2-0.07-0.37-0.08-0.5-0.05
			c-0.07,0.07-0.22,0.17-0.45,0.3c-0.23,0.13-0.43,0.25-0.6,0.35c-0.4,0.17-0.77,0.25-1.1,0.25c-0.4-0.03-0.67-0.2-0.8-0.5
			c-0.13-0.3,0-0.63,0.4-1c0.4-0.33,0.47-0.78,0.2-1.35c-0.07-0.17-0.23-0.3-0.5-0.4c-0.03-0.03-0.05-0.07-0.05-0.1
			C105.23,106.17,105.27,106.03,105.3,105.9z"/>
	</g>
	
		<radialGradient id="SVGID_7_" cx="98.0464" cy="-2.9497" r="37.2515" gradientTransform="matrix(0.1233 -0.097 0.069 0.0877 115.6344 81.8619)" gradientUnits="userSpaceOnUse">
		<stop  offset="0" style="stop-color:#FFFFFF"/>
		<stop  offset="0.1686" style="stop-color:#FFFFFF;stop-opacity:0.8392"/>
		<stop  offset="0.2588" style="stop-color:#FFFFFF;stop-opacity:0.3294"/>
		<stop  offset="0.5373" style="stop-color:#FFFFFF;stop-opacity:0.149"/>
		<stop  offset="0.8588" style="stop-color:#FFFFFF;stop-opacity:0.0275"/>
		<stop  offset="1" style="stop-color:#FFFFFF;stop-opacity:0"/>
	</radialGradient>
	<path fill-rule="evenodd" clip-rule="evenodd" fill="url(#SVGID_7_)" d="M124.97,68.84c1.26-0.99,2.59-1.52,3.97-1.59
		c1.39-0.07,2.44,0.35,3.15,1.25c0.71,0.9,0.86,2.01,0.47,3.35c-0.39,1.33-1.21,2.5-2.48,3.49c-1.26,0.99-2.59,1.52-3.98,1.59
		c-1.38,0.07-2.43-0.35-3.14-1.25c-0.71-0.9-0.87-2.01-0.48-3.35C122.88,71,123.71,69.84,124.97,68.84z"/>
	
		<radialGradient id="SVGID_8_" cx="98.0503" cy="-2.9482" r="37.2488" gradientTransform="matrix(0.3942 -0.1921 0.1171 0.2402 59.7027 127.6408)" gradientUnits="userSpaceOnUse">
		<stop  offset="0" style="stop-color:#FFFFFF"/>
		<stop  offset="0.0824" style="stop-color:#FFFFFF;stop-opacity:0.651"/>
		<stop  offset="0.2471" style="stop-color:#FFFFFF;stop-opacity:0.3255"/>
		<stop  offset="0.4588" style="stop-color:#FFFFFF;stop-opacity:0.1451"/>
		<stop  offset="0.7373" style="stop-color:#FFFFFF;stop-opacity:0.0275"/>
		<stop  offset="1" style="stop-color:#FFFFFF;stop-opacity:0"/>
	</radialGradient>
	<path fill-rule="evenodd" clip-rule="evenodd" fill="url(#SVGID_8_)" d="M93.67,99.21c4.03-1.97,7.89-2.78,11.57-2.43
		c3.7,0.35,6.15,1.75,7.34,4.21c1.2,2.46,0.79,5.25-1.21,8.37c-1.99,3.12-5,5.66-9.04,7.63c-4.03,1.96-7.9,2.77-11.6,2.43
		c-3.68-0.35-6.12-1.75-7.32-4.21c-1.2-2.46-0.8-5.25,1.19-8.37C86.62,103.72,89.64,101.17,93.67,99.21z"/>
	
		<radialGradient id="SVGID_9_" cx="98.0488" cy="-2.9502" r="37.2505" gradientTransform="matrix(0.2284 -0.0569 0.0347 0.1392 140.9639 68.431)" gradientUnits="userSpaceOnUse">
		<stop  offset="0" style="stop-color:#FFFFFF"/>
		<stop  offset="0.1529" style="stop-color:#FFFFFF;stop-opacity:0.651"/>
		<stop  offset="0.2588" style="stop-color:#FFFFFF;stop-opacity:0.3216"/>
		<stop  offset="0.5176" style="stop-color:#FFFFFF;stop-opacity:0.1412"/>
		<stop  offset="0.8588" style="stop-color:#FFFFFF;stop-opacity:0.0275"/>
		<stop  offset="1" style="stop-color:#FFFFFF;stop-opacity:0"/>
	</radialGradient>
	<path fill-rule="evenodd" clip-rule="evenodd" fill="url(#SVGID_9_)" d="M161.97,57.29c2.34-0.58,4.45-0.58,6.35,0.02
		c1.9,0.6,3.03,1.6,3.39,3.03c0.36,1.42-0.17,2.84-1.57,4.26c-1.39,1.42-3.26,2.42-5.6,3c-2.34,0.58-4.46,0.58-6.36-0.02
		c-1.89-0.59-3.02-1.6-3.37-3.03c-0.35-1.42,0.17-2.85,1.56-4.26C157.77,58.87,159.63,57.87,161.97,57.29z"/>
	
		<radialGradient id="SVGID_10_" cx="98.0488" cy="-2.9502" r="37.2505" gradientTransform="matrix(0.1454 -0.1144 0.0989 0.1257 99.0501 98.0948)" gradientUnits="userSpaceOnUse">
		<stop  offset="0" style="stop-color:#FFFFFF"/>
		<stop  offset="0.1686" style="stop-color:#FFFFFF;stop-opacity:0.8392"/>
		<stop  offset="0.2588" style="stop-color:#FFFFFF;stop-opacity:0.3255"/>
		<stop  offset="0.5373" style="stop-color:#FFFFFF;stop-opacity:0.1451"/>
		<stop  offset="0.8588" style="stop-color:#FFFFFF;stop-opacity:0.0275"/>
		<stop  offset="1" style="stop-color:#FFFFFF;stop-opacity:0"/>
	</radialGradient>
	<path fill-rule="evenodd" clip-rule="evenodd" fill="url(#SVGID_10_)" d="M109.35,81.86c1.49-1.17,3.11-1.71,4.87-1.63
		c1.77,0.08,3.16,0.77,4.17,2.05c1.01,1.29,1.35,2.8,1.01,4.53c-0.33,1.73-1.24,3.18-2.73,4.35c-1.49,1.17-3.11,1.71-4.88,1.63
		c-1.76-0.08-3.14-0.77-4.16-2.05c-1.01-1.29-1.35-2.8-1.02-4.53C106.95,84.48,107.86,83.03,109.35,81.86z"/>
	
		<radialGradient id="SVGID_11_" cx="98.0513" cy="-2.9531" r="37.2507" gradientTransform="matrix(0.1198 0.0316 -0.0204 0.0776 166.6148 57.16)" gradientUnits="userSpaceOnUse">
		<stop  offset="0" style="stop-color:#FFFFFF"/>
		<stop  offset="0.1686" style="stop-color:#FFFFFF;stop-opacity:0.8392"/>
		<stop  offset="0.2588" style="stop-color:#FFFFFF;stop-opacity:0.3216"/>
		<stop  offset="0.5373" style="stop-color:#FFFFFF;stop-opacity:0.1412"/>
		<stop  offset="0.8588" style="stop-color:#FFFFFF;stop-opacity:0.0275"/>
		<stop  offset="1" style="stop-color:#FFFFFF;stop-opacity:0"/>
	</radialGradient>
	<path fill-rule="evenodd" clip-rule="evenodd" fill="url(#SVGID_11_)" d="M179.18,57.16c1.23,0.32,2.2,0.88,2.91,1.66
		c0.72,0.79,0.97,1.58,0.76,2.38c-0.21,0.79-0.82,1.36-1.83,1.69c-1.01,0.33-2.13,0.34-3.36,0.02c-1.23-0.32-2.2-0.88-2.92-1.67
		c-0.72-0.79-0.97-1.58-0.76-2.37c0.21-0.79,0.82-1.36,1.83-1.69C176.84,56.84,177.96,56.83,179.18,57.16z"/>
	
		<radialGradient id="SVGID_12_" cx="98.0498" cy="-2.9512" r="37.2505" gradientTransform="matrix(0.1454 -0.1144 0.0989 0.1257 59.4002 130.2452)" gradientUnits="userSpaceOnUse">
		<stop  offset="0" style="stop-color:#FFFFFF"/>
		<stop  offset="0.1686" style="stop-color:#FFFFFF;stop-opacity:0.8392"/>
		<stop  offset="0.2588" style="stop-color:#FFFFFF;stop-opacity:0.3216"/>
		<stop  offset="0.5373" style="stop-color:#FFFFFF;stop-opacity:0.1412"/>
		<stop  offset="0.8588" style="stop-color:#FFFFFF;stop-opacity:0.0275"/>
		<stop  offset="1" style="stop-color:#FFFFFF;stop-opacity:0"/>
	</radialGradient>
	<path fill-rule="evenodd" clip-rule="evenodd" fill="url(#SVGID_12_)" d="M69.7,114.01c1.49-1.17,3.11-1.71,4.87-1.63
		c1.77,0.08,3.16,0.77,4.17,2.05c1.01,1.29,1.35,2.8,1.01,4.53c-0.33,1.73-1.24,3.18-2.73,4.35c-1.49,1.17-3.11,1.71-4.88,1.63
		c-1.76-0.08-3.14-0.77-4.16-2.05c-1.01-1.29-1.35-2.8-1.02-4.53C67.3,116.63,68.21,115.18,69.7,114.01z"/>
	
		<radialGradient id="SVGID_13_" cx="98.0498" cy="-2.9512" r="37.2505" gradientTransform="matrix(0.1454 -0.1144 0.0989 0.1257 76.0501 128.9952)" gradientUnits="userSpaceOnUse">
		<stop  offset="0" style="stop-color:#FFFFFF"/>
		<stop  offset="0.1686" style="stop-color:#FFFFFF;stop-opacity:0.8392"/>
		<stop  offset="0.2588" style="stop-color:#FFFFFF;stop-opacity:0.3176"/>
		<stop  offset="0.5373" style="stop-color:#FFFFFF;stop-opacity:0.1373"/>
		<stop  offset="0.8588" style="stop-color:#FFFFFF;stop-opacity:0.0275"/>
		<stop  offset="1" style="stop-color:#FFFFFF;stop-opacity:0"/>
	</radialGradient>
	<path fill-rule="evenodd" clip-rule="evenodd" fill="url(#SVGID_13_)" d="M86.35,112.76c1.49-1.17,3.11-1.71,4.87-1.63
		c1.77,0.08,3.16,0.77,4.17,2.05c1.01,1.29,1.35,2.8,1.01,4.53c-0.33,1.73-1.24,3.18-2.73,4.35c-1.49,1.17-3.11,1.71-4.88,1.63
		c-1.76-0.08-3.14-0.77-4.16-2.05c-1.01-1.29-1.35-2.8-1.02-4.53C83.95,115.38,84.86,113.93,86.35,112.76z"/>
	
		<radialGradient id="SVGID_14_" cx="98.0547" cy="-2.9517" r="37.2483" gradientTransform="matrix(0.0669 -0.0526 0.0503 0.0639 97.7063 111.1992)" gradientUnits="userSpaceOnUse">
		<stop  offset="0" style="stop-color:#FFFFFF"/>
		<stop  offset="0.1686" style="stop-color:#FFFFFF;stop-opacity:0.8392"/>
		<stop  offset="0.2588" style="stop-color:#FFFFFF;stop-opacity:0.3137"/>
		<stop  offset="0.5373" style="stop-color:#FFFFFF;stop-opacity:0.1333"/>
		<stop  offset="0.8588" style="stop-color:#FFFFFF;stop-opacity:0.0275"/>
		<stop  offset="1" style="stop-color:#FFFFFF;stop-opacity:0"/>
	</radialGradient>
	<path fill-rule="evenodd" clip-rule="evenodd" fill="url(#SVGID_14_)" d="M102.26,103.49c0.68-0.54,1.45-0.77,2.29-0.69
		c0.85,0.08,1.53,0.45,2.04,1.1c0.51,0.65,0.71,1.4,0.59,2.24c-0.12,0.84-0.52,1.53-1.2,2.07c-0.68,0.54-1.45,0.77-2.3,0.69
		c-0.84-0.08-1.52-0.45-2.04-1.1c-0.51-0.65-0.71-1.4-0.59-2.24C101.17,104.71,101.57,104.02,102.26,103.49z"/>
	
		<radialGradient id="SVGID_15_" cx="98.0498" cy="-2.9502" r="37.25" gradientTransform="matrix(2.9674 -1.727 0.7245 1.2449 -172.3034 256.9835)" gradientUnits="userSpaceOnUse">
		<stop  offset="0" style="stop-color:#FFFFFF;stop-opacity:0.251"/>
		<stop  offset="0.1686" style="stop-color:#FFFFFF;stop-opacity:0.1529"/>
		<stop  offset="0.3176" style="stop-color:#FFFFFF;stop-opacity:0.0941"/>
		<stop  offset="0.5373" style="stop-color:#FFFFFF;stop-opacity:0.0471"/>
		<stop  offset="0.8157" style="stop-color:#FFFFFF;stop-opacity:0.0118"/>
		<stop  offset="1" style="stop-color:#FFFFFF;stop-opacity:0"/>
	</radialGradient>
	<path fill-rule="evenodd" clip-rule="evenodd" fill="url(#SVGID_15_)" d="M89.7,37.92c30.37-17.67,58.84-28.25,85.42-31.72
		c26.71-3.49,43.76,1.14,51.18,13.88c7.41,12.74,3,29.84-13.25,51.29c-16.13,21.44-39.37,40.99-69.74,58.67
		c-30.37,17.67-58.9,28.25-85.61,31.74c-26.58,3.47-43.58-1.16-50.99-13.9c-7.41-12.74-3.06-29.83,13.07-51.27
		C36.03,75.16,59.34,55.59,89.7,37.92z"/>
</g>
</svg>
